<svg xmlns="http://www.w3.org/2000/svg" width="522.774" height="234.658"><g data-name="グループ 1506"><g data-name="グループ 1" transform="translate(142.396)"><path data-name="パス 1" d="M70.955 72.41a34.708 34.708 0 0 0 1.057-10.675 21.287 21.287 0 0 0-.129-1.309 8.432 8.432 0 0 1-.08-2.308.624.624 0 0 1 .631-.5 6.359 6.359 0 0 1 2.063.925 28.4 28.4 0 0 1 2.529 1.76c.511.381 1.019.763 1.541 1.124a20.278 20.278 0 0 0 2.868 1.686c.426.2.861.392 1.3.564a3.653 3.653 0 0 1-1.9.062 6.465 6.465 0 0 1-1.276-.381 7.26 7.26 0 0 0-2.007-.524 5.731 5.731 0 0 0-3.287.928 1.925 1.925 0 0 0-.988 1.7 2.145 2.145 0 0 0 1.068 1.824 1.917 1.917 0 0 0 1.965-.031 2.034 2.034 0 0 1 .975-.388 3.448 3.448 0 0 1 1.019.321 7.194 7.194 0 0 0 1.095.388 7.465 7.465 0 0 0 5.72-.584c1.01-.607 2.665-2.183 2.812-3.831a2.456 2.456 0 0 0-.859-2.114 3.594 3.594 0 0 0-1.543-.7c-.4-.111-.794-.241-1.184-.384a13.553 13.553 0 0 1-1.86-.863 26.743 26.743 0 0 1-3.053-2.067 27.579 27.579 0 0 0-3.452-2.3c-1.044-.56-3.492-1.862-5.825-.569a4.719 4.719 0 0 0-2.094 2.373A7.4 7.4 0 0 0 67.818 60a33.152 33.152 0 0 1-.874 11.846 2.035 2.035 0 0 0-.268.314l-20.131 32.049a2.434 2.434 0 0 0 2.061 3.733h13.18a2.439 2.439 0 0 0 2.437-2.435l.04-10.921 8.548.04v10.88a2.441 2.441 0 0 0 2.44 2.435h13.61a2.437 2.437 0 0 0 2.065-3.733zm5.907 31.484v-9.268a4.091 4.091 0 0 0-4.085-4.088h-8.51a4.093 4.093 0 0 0-4.088 4.088v9.268h-8.655l17.214-27.405 17.217 27.405z"/><path data-name="パス 2" d="M26.353 75.048h-4.2a1 1 0 0 0-1 1v12.013H6.208V76.049a1 1 0 0 0-1-1H1.002a1 1 0 0 0-1 1v31.158a1 1 0 0 0 1 1h4.206a1 1 0 0 0 1-1V94.07h14.939v13.137a1 1 0 0 0 1 1h4.2a1 1 0 0 0 1-1V76.049a1 1 0 0 0-.994-1.001z"/><path data-name="パス 3" d="M131.359 90.317a7.492 7.492 0 0 0 3.517-6.82c0-6.985-6.229-8.45-11.453-8.45H110.45a1 1 0 0 0-1 1v31.038a1 1 0 0 0 1 1h11.735c9.618 0 14.5-3.18 14.5-9.451-.003-4.055-1.826-6.892-5.326-8.317zm-8.9 12.044h-7.047v-8.57h8.289c5.78 0 6.447 2.422 6.447 4.244.005 1.071.005 4.327-7.689 4.327zm4.184-15.164a7.029 7.029 0 0 1-3.581.865h-7.649v-7.288h9.09a4.571 4.571 0 0 1 3.091.979 3.023 3.023 0 0 1 1.035 2.346 3.36 3.36 0 0 1-1.982 3.098z"/><rect data-name="長方形 1" width="6.368" height="33.161" rx=".449" transform="translate(155.364 75.048)"/><path data-name="パス 4" d="M206.327 102.201h-17.261V76.049a1 1 0 0 0-1-1H183.7a1 1 0 0 0-1 1v31.158a1 1 0 0 0 1 1h22.628a1 1 0 0 0 1-1v-4.005a1 1 0 0 0-1.001-1.001z"/><path data-name="パス 5" d="M247.175 102.201h-18.5V94.07h16.622a1 1 0 0 0 1-1v-4.005a1 1 0 0 0-1-1h-16.623v-7.007h18.1a1 1 0 0 0 1-1v-4.005a1 1 0 0 0-1-1h-23.307a1 1 0 0 0-1 1v31.158a1 1 0 0 0 1 1h23.708a1 1 0 0 0 1-1v-4.009a1 1 0 0 0-1-1.001z"/><g data-name="グループ 1507"><path data-name="パス 6" d="M209.019 12.194a1.424 1.424 0 0 0 .241.02h.009a1.283 1.283 0 0 0 .593-.158l1.789-.981a1.218 1.218 0 0 1 1.126-.018l1.824.917a1.285 1.285 0 0 0 1.842-1.387l-.379-2.007a1.211 1.211 0 0 1 .33-1.077l1.434-1.45a1.271 1.271 0 0 0 .305-1.322 1.255 1.255 0 0 0-1.055-.861l-2.025-.256a1.245 1.245 0 0 1-.892-.58l-.972-2.33a1.271 1.271 0 0 0-1.169-.7 1.309 1.309 0 0 0-1.173.814l-.834 2.226a1.208 1.208 0 0 1-.9.673l-2.014.33a1.285 1.285 0 0 0-.676 2.206l1.487 1.4a1.208 1.208 0 0 1 .366 1.064l-.31 2.016a1.292 1.292 0 0 0 1.048 1.465zm.3-6.043l-.355-.332.48-.078a3.285 3.285 0 0 0 2.46-1.9l.174-.464.223.533a3.262 3.262 0 0 0 2.491 1.744l.479.06-.341.346a3.262 3.262 0 0 0-.888 2.906l.091.475-.435-.216a3.262 3.262 0 0 0-3.042.053l-.421.232.074-.479a3.271 3.271 0 0 0-.982-2.884z"/><path data-name="パス 7" d="M209.639 49.982a1.437 1.437 0 0 0 .241.02h.009a1.331 1.331 0 0 0 .593-.158l1.791-.983a1.218 1.218 0 0 1 1.126-.018l1.822.919a1.286 1.286 0 0 0 1.842-1.389l-.379-2.007a1.212 1.212 0 0 1 .33-1.077l1.434-1.447a1.275 1.275 0 0 0 .305-1.325 1.249 1.249 0 0 0-1.055-.859l-2.025-.259a1.249 1.249 0 0 1-.892-.58l-.972-2.33a1.271 1.271 0 0 0-1.168-.7 1.309 1.309 0 0 0-1.173.814l-.834 2.228a1.206 1.206 0 0 1-.9.671l-2.014.33a1.285 1.285 0 0 0-.676 2.206l1.487 1.4a1.208 1.208 0 0 1 .366 1.064l-.31 2.016a1.292 1.292 0 0 0 1.048 1.465zm.3-6.043l-.355-.332.482-.078a3.282 3.282 0 0 0 2.458-1.9l.174-.464.225.533a3.249 3.249 0 0 0 2.489 1.744l.479.06-.341.346a3.261 3.261 0 0 0-.888 2.906l.091.477-.435-.219a3.258 3.258 0 0 0-3.04.054l-.424.232.074-.479a3.271 3.271 0 0 0-.986-2.88z"/><path data-name="パス 8" d="M156.251 59.96a1.414 1.414 0 0 0 .239.02h.009a1.323 1.323 0 0 0 .593-.158l1.791-.983a1.218 1.218 0 0 1 1.126-.018l1.822.919a1.292 1.292 0 0 0 1.354-.123 1.278 1.278 0 0 0 .491-1.267l-.379-2.007a1.2 1.2 0 0 1 .328-1.077l1.436-1.447a1.284 1.284 0 0 0 .306-1.325 1.252 1.252 0 0 0-1.055-.859l-2.027-.259a1.243 1.243 0 0 1-.892-.58l-.972-2.33a1.269 1.269 0 0 0-1.169-.7 1.314 1.314 0 0 0-1.173.814l-.832 2.228a1.209 1.209 0 0 1-.9.671l-2.014.33a1.287 1.287 0 0 0-.678 2.205l1.487 1.4a1.2 1.2 0 0 1 .366 1.064l-.308 2.016a1.281 1.281 0 0 0 .533 1.253 1.322 1.322 0 0 0 .518.213zm.3-6.043l-.352-.33.48-.08a3.284 3.284 0 0 0 2.46-1.9l.174-.464.223.533a3.257 3.257 0 0 0 2.491 1.744l.479.06-.343.346a3.271 3.271 0 0 0-.888 2.908l.091.475-.435-.219a3.258 3.258 0 0 0-3.04.054l-.424.232.076-.479a3.272 3.272 0 0 0-.991-2.88z"/><path data-name="パス 9" d="M140.594 33.275a1.092 1.092 0 0 0 .241.02h.009a1.283 1.283 0 0 0 .593-.158l1.789-.981a1.211 1.211 0 0 1 1.126-.02l1.824.919a1.285 1.285 0 0 0 1.842-1.387l-.379-2.007a1.21 1.21 0 0 1 .33-1.077l1.434-1.45a1.271 1.271 0 0 0 .305-1.322 1.251 1.251 0 0 0-1.055-.861l-2.025-.259a1.232 1.232 0 0 1-.892-.58l-.972-2.33a1.275 1.275 0 0 0-1.169-.7 1.311 1.311 0 0 0-1.173.816l-.834 2.226a1.213 1.213 0 0 1-.9.673l-2.014.328a1.287 1.287 0 0 0-.676 2.208l1.488 1.4a1.213 1.213 0 0 1 .366 1.066l-.31 2.016a1.277 1.277 0 0 0 .535 1.251 1.237 1.237 0 0 0 .517.209zm.3-6.041l-.355-.332.479-.078a3.279 3.279 0 0 0 2.46-1.907l.174-.464.223.535a3.255 3.255 0 0 0 2.491 1.742l.479.06-.341.346a3.266 3.266 0 0 0-.888 2.908l.091.475-.435-.219a3.268 3.268 0 0 0-3.042.054l-.421.234.074-.482a3.266 3.266 0 0 0-.986-2.872z"/><path data-name="パス 10" d="M104.469 25.813a1.419 1.419 0 0 0 .241.02h.007a1.341 1.341 0 0 0 .6-.158l1.788-.983a1.218 1.218 0 0 1 1.126-.018l1.824.919a1.286 1.286 0 0 0 1.842-1.389l-.379-2.007a1.217 1.217 0 0 1 .328-1.077l1.436-1.447a1.279 1.279 0 0 0 .306-1.325 1.249 1.249 0 0 0-1.055-.859l-2.027-.259a1.234 1.234 0 0 1-.89-.58l-.972-2.33a1.271 1.271 0 0 0-1.168-.7 1.309 1.309 0 0 0-1.173.814l-.844 2.225a1.209 1.209 0 0 1-.9.671l-2.014.33a1.285 1.285 0 0 0-.676 2.206l1.487 1.4a1.209 1.209 0 0 1 .366 1.064l-.31 2.016a1.283 1.283 0 0 0 .535 1.253 1.3 1.3 0 0 0 .522.214zm.3-6.043l-.352-.33.479-.08a3.28 3.28 0 0 0 2.46-1.9l.174-.464.223.533a3.257 3.257 0 0 0 2.491 1.744l.479.06-.341.346a3.264 3.264 0 0 0-.888 2.908l.091.475-.435-.219a3.262 3.262 0 0 0-3.042.054l-.421.232.074-.479a3.266 3.266 0 0 0-.991-2.88z"/><path data-name="パス 11" d="M73.587 16.844a1.085 1.085 0 0 0 .241.02h.009a1.275 1.275 0 0 0 .593-.158l1.789-.981a1.212 1.212 0 0 1 1.126-.02l1.824.919a1.286 1.286 0 0 0 1.842-1.387l-.379-2.007a1.208 1.208 0 0 1 .33-1.077l1.434-1.45a1.275 1.275 0 0 0 .306-1.325 1.249 1.249 0 0 0-1.055-.859l-2.025-.259a1.243 1.243 0 0 1-.892-.58l-.972-2.33a1.275 1.275 0 0 0-1.169-.7 1.311 1.311 0 0 0-1.173.816l-.834 2.226a1.213 1.213 0 0 1-.9.674l-2.014.328a1.287 1.287 0 0 0-.676 2.208l1.488 1.4a1.213 1.213 0 0 1 .366 1.066l-.31 2.016a1.277 1.277 0 0 0 .535 1.251 1.247 1.247 0 0 0 .516.209zm.3-6.043l-.355-.33.479-.078a3.279 3.279 0 0 0 2.46-1.907l.174-.464.225.535a3.252 3.252 0 0 0 2.489 1.742l.479.06-.341.346a3.266 3.266 0 0 0-.888 2.908l.091.475-.435-.219a3.264 3.264 0 0 0-3.04.054l-.424.234.073-.482a3.273 3.273 0 0 0-.984-2.874z"/><path data-name="パス 12" d="M30.284 35.075a1.081 1.081 0 0 0 .241.02h.009a1.274 1.274 0 0 0 .593-.158l1.789-.981a1.216 1.216 0 0 1 1.128-.02l1.822.919a1.285 1.285 0 0 0 1.842-1.387l-.379-2.007a1.21 1.21 0 0 1 .33-1.077l1.434-1.45a1.271 1.271 0 0 0 .306-1.323 1.251 1.251 0 0 0-1.055-.861l-2.025-.259a1.236 1.236 0 0 1-.892-.58l-.972-2.33a1.275 1.275 0 0 0-1.169-.7 1.311 1.311 0 0 0-1.173.816l-.834 2.226a1.213 1.213 0 0 1-.9.673l-2.014.328a1.287 1.287 0 0 0-.676 2.208l1.487 1.4a1.213 1.213 0 0 1 .366 1.066l-.31 2.016a1.277 1.277 0 0 0 .535 1.251 1.248 1.248 0 0 0 .517.21zm.3-6.041l-.354-.332.482-.078a3.279 3.279 0 0 0 2.457-1.907l.174-.464.225.535a3.247 3.247 0 0 0 2.489 1.742l.479.06-.341.346a3.266 3.266 0 0 0-.888 2.908l.091.475-.435-.219a3.264 3.264 0 0 0-3.04.053l-.424.234.074-.482a3.267 3.267 0 0 0-.986-2.871z"/></g></g><g data-name="グループ 2"><path data-name="パス 13" d="M59.752 152.177a1.413 1.413 0 0 0-.968-1.343 22.536 22.536 0 0 1-5.642-3.383c-2.056-1.63-3.421-3.207-3.771-4.3a25 25 0 0 0 .814-5 25.332 25.332 0 0 0 0-2.821c-.016-.3-.051-.6-.089-.914a5.815 5.815 0 0 1-.056-1.617.451.451 0 0 1 .442-.348 4.413 4.413 0 0 1 1.443.649 19.948 19.948 0 0 1 1.773 1.233c.357.265.711.533 1.077.785a14.212 14.212 0 0 0 2.007 1.18c.3.143.6.272.908.393a2.57 2.57 0 0 1-1.331.047 4.712 4.712 0 0 1-.894-.27 5.1 5.1 0 0 0-1.4-.366 3.9 3.9 0 0 0-2.3.649 1.417 1.417 0 0 0 1.429 2.446 1.532 1.532 0 0 1 .682-.272 2.434 2.434 0 0 1 .714.225 4.915 4.915 0 0 0 .767.272 5.245 5.245 0 0 0 4-.408 4.188 4.188 0 0 0 1.969-2.683 1.721 1.721 0 0 0-.6-1.481 2.524 2.524 0 0 0-1.077-.486 10.993 10.993 0 0 1-.83-.27 9.727 9.727 0 0 1-1.3-.6 18.484 18.484 0 0 1-2.136-1.447 19.413 19.413 0 0 0-2.415-1.612c-.731-.393-2.444-1.3-4.079-.4a3.3 3.3 0 0 0-1.465 1.661 5.176 5.176 0 0 0-.169 2.424 23.044 23.044 0 0 1-.718 8.742v.027l-.013.031c-.6 2.507-6.612 6.951-9.507 7.917a1.412 1.412 0 0 0-.97 1.343c0 7.5-5.4 14.91-5.45 14.981a1.418 1.418 0 0 0 1.137 2.261h10.624a1.418 1.418 0 0 0 1.416-1.416v-6.09a4.128 4.128 0 1 1 8.256 0v6.088a1.418 1.418 0 0 0 1.416 1.416h10.616a1.416 1.416 0 0 0 1.14-2.259c-.054-.074-5.45-7.486-5.45-14.984z"/><path data-name="パス 14" d="M176.043 158.539c2.585-.678 5.216-2.368 5.216-6.432a6.071 6.071 0 0 0-3.1-5.624 10.123 10.123 0 0 0-5.087-1.16h-9.529a.7.7 0 0 0-.7.7v21.808a.7.7 0 0 0 .7.7h2.941a.7.7 0 0 0 .7-.7v-8.746h4.248l6.043 9.132a.7.7 0 0 0 .584.315h3.867a.7.7 0 0 0 .566-1.113zm.649-6.32c0 1.229-.415 2.859-4.01 2.859h-5.493v-5.548h6c3.104 0 3.503 1.438 3.503 2.689z"/><path data-name="パス 15" d="M212.934 164.329h-12.95v-5.689h11.632a.7.7 0 0 0 .7-.7v-2.8a.7.7 0 0 0-.7-.7h-11.632v-4.9h12.669a.7.7 0 0 0 .7-.7v-2.8a.7.7 0 0 0-.7-.7H196.34a.7.7 0 0 0-.7.7v21.808a.7.7 0 0 0 .7.7h16.594a.7.7 0 0 0 .7-.7v-2.8a.7.7 0 0 0-.7-.719z"/><path data-name="パス 16" d="M242.435 156.762a14.953 14.953 0 0 0-5.921-1.76c-3.472-.471-4.819-.941-5.337-1.251a1.6 1.6 0 0 1-.727-1.559 2.569 2.569 0 0 1 1.5-2.393 6.581 6.581 0 0 1 3.3-.776c3.717 0 4.148 1.84 4.148 3.225v.363a.7.7 0 0 0 .7.7h3.137a.7.7 0 0 0 .7-.725c-.2-6.282-4.881-7.6-8.773-7.6a11.578 11.578 0 0 0-5.78 1.409 6.371 6.371 0 0 0-3.5 5.881 5.2 5.2 0 0 0 2.364 4.679 16.862 16.862 0 0 0 6.706 1.985 14.053 14.053 0 0 1 4.721 1.222 1.739 1.739 0 0 1 .814 1.644c0 .729 0 2.944-5.047 2.944-4.572 0-5.1-1.92-5.1-3.363v-.241a.69.69 0 0 0-.029-.448.7.7 0 0 0-.647-.433h-3.079a.7.7 0 0 0-.508.218.712.712 0 0 0-.192.52 9.223 9.223 0 0 0 1.026 4.219c1.474 2.457 4.242 3.7 8.224 3.7a12.812 12.812 0 0 0 6.342-1.409 6.35 6.35 0 0 0 3.383-5.907 5.409 5.409 0 0 0-2.425-4.844z"/><path data-name="パス 17" d="M334.129 158.539c2.587-.678 5.218-2.368 5.218-6.432a6.071 6.071 0 0 0-3.1-5.624 10.129 10.129 0 0 0-5.087-1.16h-9.528a.7.7 0 0 0-.7.7v21.808a.7.7 0 0 0 .7.7h2.944a.7.7 0 0 0 .7-.7v-8.746h4.248l6.043 9.132a.7.7 0 0 0 .584.315h3.869a.7.7 0 0 0 .566-1.113zm.649-6.32c0 1.229-.415 2.859-4.007 2.859h-5.495v-5.548h6c3.106 0 3.502 1.438 3.502 2.689z"/><path data-name="パス 18" d="M369.536 145.324h-17.738a.7.7 0 0 0-.7.7v2.8a.7.7 0 0 0 .7.7h6.782v18.22a.7.7 0 0 0 .7.7h2.941a.7.7 0 0 0 .7-.7V149.67h6.614a.7.7 0 0 0 .7-.7v-2.941a.7.7 0 0 0-.699-.705z"/><path data-name="パス 19" d="M20.242 159.959h-3.14a.7.7 0 0 0-.689.578c-.562 3.162-2.284 4.636-5.421 4.636-4.32 0-6.418-2.558-6.418-7.821 0-2.687.611-4.739 1.813-6.095a5.7 5.7 0 0 1 4.523-1.951c2.832 0 4.393 1.34 4.915 4.219a.7.7 0 0 0 .689.575h3.328a.7.7 0 0 0 .689-.834c-1.021-5.305-4.262-8-9.629-8a10.7 10.7 0 0 0-7.335 2.56c-2.368 2.112-3.57 5.343-3.57 9.607 0 3.635.928 6.527 2.752 8.59 1.851 2.112 4.585 3.182 8.124 3.182 5.932 0 9.315-2.846 10.057-8.459a.7.7 0 0 0-.7-.792z"/><path data-name="パス 20" d="M99.117 145.607h-4.262a.7.7 0 0 0-.656.457l-6.117 16.456-5.939-16.449a.7.7 0 0 0-.658-.464h-4.373a.7.7 0 0 0-.7.7v21.808a.7.7 0 0 0 .7.7h2.944a.7.7 0 0 0 .7-.7v-13.889l5.116 14.127a.7.7 0 0 0 .658.464h2.944a.7.7 0 0 0 .656-.457l5.343-14.326v14.081a.7.7 0 0 0 .7.7h2.944a.7.7 0 0 0 .7-.7v-21.808a.7.7 0 0 0-.7-.7z"/><path data-name="パス 21" d="M124.736 145.607h-9.25a.7.7 0 0 0-.7.7v21.808a.7.7 0 0 0 .7.7h2.776a.7.7 0 0 0 .7-.7v-7.9h5.633a8.629 8.629 0 0 0 5.959-1.942 6.778 6.778 0 0 0 2.226-5.319 7.1 7.1 0 0 0-1.775-4.924 8.021 8.021 0 0 0-6.269-2.423zm-5.774 4.206h5.381c1.8 0 3.869.346 3.869 3.055 0 1.347-.462 3.138-4.458 3.138h-4.792z"/><path data-name="パス 22" d="M417.522 145.393h-2.944a.7.7 0 0 0-.7.7v15.118l-9.75-15.49a.7.7 0 0 0-.593-.328h-3.923a.7.7 0 0 0-.7.7v21.808a.7.7 0 0 0 .7.7h2.942a.7.7 0 0 0 .7-.7v-15.758l10.256 16.132a.7.7 0 0 0 .591.323h3.421a.7.7 0 0 0 .7-.7v-21.805a.7.7 0 0 0-.7-.7z"/><path data-name="パス 23" d="M489.096 156.828a14.943 14.943 0 0 0-5.918-1.759c-3.472-.471-4.821-.939-5.339-1.251a1.594 1.594 0 0 1-.727-1.559 2.571 2.571 0 0 1 1.5-2.391 6.547 6.547 0 0 1 3.3-.776c3.717 0 4.148 1.84 4.148 3.225v.364a.7.7 0 0 0 .7.7h3.14a.7.7 0 0 0 .7-.723c-.2-6.284-4.884-7.6-8.773-7.6a11.608 11.608 0 0 0-5.783 1.407 6.378 6.378 0 0 0-3.5 5.881 5.2 5.2 0 0 0 2.364 4.679 16.919 16.919 0 0 0 6.706 1.987 14.047 14.047 0 0 1 4.721 1.22 1.741 1.741 0 0 1 .814 1.646c0 .727 0 2.941-5.044 2.941-4.574 0-5.1-1.918-5.1-3.363v-.239a.713.713 0 0 0-.029-.45.705.705 0 0 0-.649-.433h-3.082a.7.7 0 0 0-.7.74 9.241 9.241 0 0 0 1.024 4.217c1.474 2.457 4.241 3.7 8.224 3.7a12.822 12.822 0 0 0 6.344-1.407 6.358 6.358 0 0 0 3.383-5.907 5.412 5.412 0 0 0-2.424-4.849z"/><path data-name="パス 24" d="M522.074 145.393h-2.944a.7.7 0 0 0-.7.7v13.2c0 2-.364 3.43-1.088 4.25-.736.843-2.17 1.271-4.264 1.271-2.181 0-3.586-.6-4.3-1.844a9.479 9.479 0 0 1-.854-4.63v-12.247a.7.7 0 0 0-.7-.7h-2.951a.7.7 0 0 0-.7.7v12.923c0 3.263.727 5.747 2.165 7.386 1.514 1.719 3.974 2.591 7.308 2.591 6.362 0 9.728-3.14 9.728-9.081v-13.819a.7.7 0 0 0-.7-.7z"/><path data-name="パス 25" d="M455.783 136.593a2.676 2.676 0 0 0-5.151.065l-6.22 16.969-3.936-10.151a2.676 2.676 0 0 0-5.151.063l-6.942 18.942a3.869 3.869 0 0 0 .408 3.461 2.657 2.657 0 0 0 2.178 1.189h5.332a.859.859 0 0 1 .024.21v7.961a1.557 1.557 0 1 0 3.113 0v-7.961a3.064 3.064 0 0 0-2.821-3.316h-5.328a.807.807 0 0 1 .018-.473l6.612-18.063 7 18.055a.829.829 0 0 1 .027.477h-2.736a1.557 1.557 0 0 0 0 3.113h3.048a2.656 2.656 0 0 0 2.2-1.217 3.872 3.872 0 0 0 .368-3.5l-.841-2.165h4.625a.858.858 0 0 1 .025.21v7.961a1.557 1.557 0 0 0 3.113 0v-7.961a3.111 3.111 0 0 0-2.538-3.285l6.775-3.72 1.244 3.211a.83.83 0 0 1 .027.477h-2.736a1.557 1.557 0 0 0 0 3.113h3.049a2.662 2.662 0 0 0 2.2-1.218 3.879 3.879 0 0 0 .368-3.5zm-2.56 2.014l1.191 3.069-2.895 1.59zm-3.2 8.737l5.43-2.984.7 1.809-7.134 3.921zm-3.425 9.649a.662.662 0 0 1 .013-.321l.917-2.507 9.667-5.312.74 1.911z"/><path data-name="パス 26" d="M295.324 153.503a10.886 10.886 0 0 0-3.062.444c-3.684-5.727-9.511-9.123-15.72-9.123-10.564 0-19.165 9.56-19.582 21.763a2.107 2.107 0 0 0 2.1 2.183h47.237a2.105 2.105 0 0 0 2.067-2.507c-1.46-7.512-6.823-12.76-13.04-12.76zm-33.977 11.057c1.177-8.918 7.573-15.526 15.2-15.526 5.254 0 10.1 3.182 12.954 8.51a2.1 2.1 0 0 0 2.774.9c4.382-2.123 9.232.747 11.253 6.115z"/></g><g data-name="グループ 16"><g data-name="グループ 3"><path data-name="パス 27" d="M67.116 219.67a9.657 9.657 0 0 0 1.356.085 64.163 64.163 0 0 0 8.9-1.247 7.483 7.483 0 0 1 .883-.5c.5 0 2.538 2.065 2.538 2.8 0 .149 0 .386-.752.56-.754.149-4.045 1.354-4.5 1.958a12.08 12.08 0 0 0-1.1 2.754 11.735 11.735 0 0 1-5.421 6.646 5.587 5.587 0 0 1-1.483.624c-.087 0-.129-.042-.129-.107s.042-.107.43-.408a14.693 14.693 0 0 0 3.851-4 9.836 9.836 0 0 0 1.612-4.714 2.774 2.774 0 0 0-.279-1.269c-.174-.344-.194-.386-.194-.473 0-.172.323-.194.453-.194a3.249 3.249 0 0 1 1.16.194 6.511 6.511 0 0 0 .841.279c.6 0 2.667-2.065 2.667-2.623 0-.152-.129-.323-.408-.323a37.637 37.637 0 0 0-7.68 1.333 16.13 16.13 0 0 1-1.809.625c-.515 0-2.194-1.378-2.194-2.13 0-.045.042-.087.152-.087.073.001.934.195 1.106.217z"/><path data-name="パス 28" d="M67.545 233.583a.339.339 0 0 1-.361-.339c0-.187.1-.265.52-.591a14.393 14.393 0 0 0 3.8-3.943 9.552 9.552 0 0 0 1.577-4.589 2.512 2.512 0 0 0-.254-1.164c-.185-.368-.219-.435-.219-.578 0-.127.067-.426.685-.426a3.468 3.468 0 0 1 1.231.205l.176.065a5.293 5.293 0 0 0 .6.2 6.3 6.3 0 0 0 2.428-2.391c0-.038-.047-.091-.176-.091a37.853 37.853 0 0 0-7.613 1.325c-.1.029-.314.112-.558.207a5.623 5.623 0 0 1-1.318.426c-.636 0-2.426-1.492-2.426-2.362a.338.338 0 0 1 .384-.319 4.252 4.252 0 0 1 .544.1c.241.049.5.1.582.114a9.084 9.084 0 0 0 1.322.083 64.77 64.77 0 0 0 8.82-1.231 2.747 2.747 0 0 0 .274-.167c.417-.263.566-.343.694-.343.624 0 2.77 2.185 2.77 3.028 0 .3-.112.6-.932.785-.787.156-3.983 1.363-4.362 1.871a10.631 10.631 0 0 0-.981 2.458l-.085.234a11.9 11.9 0 0 1-5.526 6.773 5.658 5.658 0 0 1-1.596.66zm5.542-11.144c.022.049.065.138.152.31a2.96 2.96 0 0 1 .3 1.372 10.062 10.062 0 0 1-1.648 4.837 14.666 14.666 0 0 1-3.753 3.947c.221-.1.491-.223.776-.381a11.451 11.451 0 0 0 5.314-6.518l.085-.239a10.551 10.551 0 0 1 1.041-2.573c.524-.7 3.969-1.918 4.641-2.052.566-.129.566-.261.566-.332 0-.613-1.936-2.529-2.308-2.565-.04.016-.3.183-.444.272a3.512 3.512 0 0 1-.343.2 63.028 63.028 0 0 1-9 1.267 9.352 9.352 0 0 1-1.389-.089 11.514 11.514 0 0 1-.613-.12l-.337-.069a3.838 3.838 0 0 0 1.929 1.731 7.881 7.881 0 0 0 1.148-.395c.261-.1.486-.19.6-.221a37.645 37.645 0 0 1 7.745-1.343.587.587 0 0 1 .64.555c0 .693-2.194 2.854-2.9 2.854a2.97 2.97 0 0 1-.758-.232c-.069-.027-.125-.049-.156-.058a2.98 2.98 0 0 0-1.086-.183.87.87 0 0 0-.201.026z"/></g><g data-name="グループ 4"><path data-name="パス 29" d="M102.509 218.615a.9.9 0 0 1 .366.56c0 .194-.343 1.033-.366 1.227-.087.752-.129 2.667-.129 3.57a.36.36 0 0 0 .408.388c.43 0 5.12-2.281 5.12-3.443 0-.129-.149-.731-.149-.8 0-.085.149-.085.3-.085a2.216 2.216 0 0 1 2.217 1.806c0 .495-.323.56-.948.689-.495.107-2.431 1.075-2.839 1.246-.6.259-3.787 1.4-3.894 1.463-.259.172-.259.281-.259 1.1 0 2.819.408 3.4 3.227 3.4a13.68 13.68 0 0 0 3.14-.386 12.584 12.584 0 0 1 1.485-.259.833.833 0 0 1 .861.754c0 1.612-4.132 1.612-5.466 1.612-4.451 0-4.56-1.913-4.56-4.969 0-.774.065-4.152.065-4.864a6.109 6.109 0 0 0-.56-3.011 4.157 4.157 0 0 1-.366-.711c0-.127.3-.192.5-.192.62.002.922.152 1.847.905zm10.865 1.269c0 .259-.239.818-.647.818-.321 0-.515-.194-1.1-1.012a6.209 6.209 0 0 0-1.421-1.4c-.085-.065-.3-.236-.3-.321 0-.109.194-.174.386-.174 1.661.002 3.082 1.186 3.082 2.089zm1.806-2.172a.6.6 0 0 1-.537.644c-.453 0-.709-.279-1.14-.774a5.469 5.469 0 0 0-1.916-1.14c-.214-.065-.279-.172-.279-.239 0-.172.537-.279.794-.279 2.648.002 3.078 1.4 3.078 1.788z"/><path data-name="パス 30" d="M105.584 231.69c-4.56 0-4.792-1.976-4.792-5.2 0-.4.018-1.474.033-2.527.016-1.006.031-1.989.031-2.337a5.937 5.937 0 0 0-.533-2.9l-.19-.355c-.187-.343-.2-.372-.2-.464 0-.334.457-.424.727-.424.718 0 1.073.2 1.992.95a1.093 1.093 0 0 1 .457.745 3.129 3.129 0 0 1-.214.765c-.06.178-.147.426-.154.488-.085.745-.127 2.674-.127 3.544 0 .12.042.156.176.156.457-.045 4.888-2.279 4.888-3.211 0-.058-.058-.321-.089-.462a2.007 2.007 0 0 1-.06-.335c0-.317.359-.317.533-.317a2.425 2.425 0 0 1 2.449 2.038c0 .68-.5.783-1.122.914a18.885 18.885 0 0 0-2.128.921c-.308.145-.56.263-.68.314-.334.143-1.429.546-2.4.9-.689.252-1.4.515-1.481.553-.125.087-.134.091-.134.892 0 2.783.363 3.167 2.995 3.167a13.4 13.4 0 0 0 3.091-.381 12.907 12.907 0 0 1 1.534-.263 1.058 1.058 0 0 1 1.093.986c.003 1.654-3.248 1.843-5.695 1.843zm-5.14-13.719c.022.04.053.1.1.176l.192.359a6.382 6.382 0 0 1 .586 3.12c0 .348-.016 1.336-.031 2.344-.016 1.05-.033 2.125-.033 2.52 0 2.953 0 4.737 4.329 4.737s5.234-.749 5.234-1.38a.608.608 0 0 0-.629-.522 12.52 12.52 0 0 0-1.432.252 14.021 14.021 0 0 1-3.193.393c-3.028 0-3.459-.772-3.459-3.63 0-.847 0-1.048.361-1.289.067-.042.3-.129 1.557-.591.912-.337 2.049-.754 2.375-.892.118-.051.361-.167.662-.308a17.508 17.508 0 0 1 2.217-.954c.689-.143.767-.19.767-.462a2.006 2.006 0 0 0-1.985-1.575h-.038l.02.089a3.835 3.835 0 0 1 .1.56c0 1.365-4.824 3.675-5.352 3.675a.591.591 0 0 1-.64-.62c0-.827.04-2.8.132-3.6a3.482 3.482 0 0 1 .176-.586 5.319 5.319 0 0 0 .187-.615.732.732 0 0 0-.27-.37l-.009-.007c-.892-.725-1.146-.852-1.706-.852a.875.875 0 0 0-.218.028zm12.283 2.964c-.455 0-.714-.305-1.287-1.11a6.135 6.135 0 0 0-1.376-1.352c-.386-.29-.386-.433-.386-.5 0-.243.248-.406.618-.406 1.782 0 3.309 1.276 3.309 2.319.001.355-.309 1.049-.878 1.049zm-2.473-2.9c.029.025.06.049.1.076a6.517 6.517 0 0 1 1.438 1.407c.6.836.74.957.939.957.234 0 .415-.417.415-.586 0-.731-1.276-1.855-2.846-1.855zm4.389.557c-.573 0-.9-.377-1.316-.854a5.281 5.281 0 0 0-1.811-1.071c-.408-.125-.439-.383-.439-.459 0-.488 1.017-.511 1.026-.511 2.714 0 3.309 1.456 3.309 2.018a.823.823 0 0 1-.769.874zm-2.975-2.364a5.7 5.7 0 0 1 2.007 1.2c.442.508.638.7.968.7.232 0 .306-.279.306-.413 0-.016-.078-1.554-2.846-1.554a1.8 1.8 0 0 0-.435.059z"/></g><g data-name="グループ 5"><path data-name="パス 31" d="M134.051 225.888c-1.291 2.8-3.55 4.085-3.981 4.085a.1.1 0 0 1-.107-.1 6.025 6.025 0 0 1 .861-1.142c2.366-3.249 2.6-5.593 2.6-6.3a4.68 4.68 0 0 0-.366-1.849 1.659 1.659 0 0 1-.087-.388c0-.065.022-.107.109-.107.149 0 2.431.731 2.431 1.829.003.056-1.095 3.153-1.46 3.972zm3.486 2c0-.107.107-.667.127-.774.065-.41.087-2.109.087-2.647a13.246 13.246 0 0 0-.408-4.045 5.4 5.4 0 0 1-.281-.774c0-.087.087-.107.129-.107.107 0 2.366.386 2.366 1.505 0 .259-.3 1.376-.343 1.612-.087.582-.172 3.184-.172 3.9 0 .279.022.709.408.709.647 0 2.625-1.421 4.69-3.508.366-.364 2.194-2.3 2.281-2.3a.093.093 0 0 1 .085.087c0 .172-1.247 2.839-5.011 6.153a11.916 11.916 0 0 0-1.485 1.378c-.366.408-.56.557-.709.58-.625.102-1.765-1.167-1.765-1.769z"/><path data-name="パス 32" d="M130.07 230.205a.33.33 0 0 1-.339-.337c0-.176.152-.4.738-1.082.074-.087.136-.158.174-.205 2.366-3.251 2.551-5.535 2.551-6.159a4.491 4.491 0 0 0-.355-1.777l-.02-.074a1.381 1.381 0 0 1-.078-.386.322.322 0 0 1 .341-.339c.232 0 2.663.789 2.663 2.061 0 .178-1.222 3.49-1.483 4.074-1.342 2.908-3.67 4.224-4.192 4.224zm3.169-9.85l.025.087.02.067a4.856 4.856 0 0 1 .375 1.913c0 .66-.192 3.068-2.647 6.443l-.19.223c-.1.118-.3.355-.453.549a8.2 8.2 0 0 0 3.47-3.845c.35-.785 1.4-3.724 1.447-3.932-.004-.702-1.499-1.329-2.047-1.505zm5.979 9.536a1.608 1.608 0 0 1-.93-.437 2.632 2.632 0 0 1-.983-1.565c0-.154.132-.814.134-.821.056-.366.08-1.989.08-2.6a13.136 13.136 0 0 0-.393-3.958l-.022-.058a2.782 2.782 0 0 1-.274-.8.343.343 0 0 1 .361-.339c.027 0 2.6.348 2.6 1.737a8.111 8.111 0 0 1-.247 1.227c-.047.194-.085.355-.1.428-.083.555-.167 3.153-.167 3.854 0 .477.109.477.176.477.471 0 2.306-1.2 4.525-3.439.107-.1.328-.337.6-.615 1.69-1.755 1.708-1.755 1.851-1.755a.323.323 0 0 1 .317.319c0 .312-1.387 3.066-5.091 6.327a12.572 12.572 0 0 0-1.454 1.345c-.415.464-.636.636-.859.669a.664.664 0 0 1-.124.004zm-1.45-2a2.276 2.276 0 0 0 .818 1.211 1.085 1.085 0 0 0 .674.326c.067-.011.216-.107.578-.508a11.619 11.619 0 0 1 1.505-1.4 22.437 22.437 0 0 0 4.552-5.241c-.332.339-.72.745-.99 1.024s-.5.515-.6.62c-2.049 2.072-4.092 3.575-4.855 3.575-.424 0-.64-.317-.64-.941 0-.729.087-3.336.174-3.929.016-.085.056-.256.107-.462a10.321 10.321 0 0 0 .234-1.117c0-.751-1.458-1.146-1.98-1.249.036.1.094.245.187.477l.025.06a13.433 13.433 0 0 1 .426 4.132c0 .542-.022 2.257-.089 2.683-.041.205-.124.656-.126.736z"/></g><g data-name="グループ 6"><path data-name="パス 33" d="M173.079 232.448c0 .408-.149.818-.473.818-.946 0-1.291-1.873-1.463-2.776-.107-.537-.58-2.881-.667-3.376-.087-.388-.194-.669-.582-.669-.085 0-2.645.6-3.7.948a11.4 11.4 0 0 1-1.311.56c-.323 0-2.475-.948-2.475-1.592 0-.172.152-.214.259-.214.194 0 1.1.085 1.291.085a24.52 24.52 0 0 0 5.227-.731c.56-.107.709-.194.709-.56a12.911 12.911 0 0 0-.473-2.15c-.129-.54-.236-.754-.56-.754a26.037 26.037 0 0 0-2.968.816c-.515 0-1.958-.774-1.958-1.162 0-.149.236-.149.43-.149a19.914 19.914 0 0 0 3.314-.366c.752-.172 1.1-.3 1.1-.709a5.5 5.5 0 0 0-1.226-2.948 8.961 8.961 0 0 1-.99-.774c0-.129.645-.366 1.12-.366.43 0 1.936.473 2 .9.042.3.087 1.548.129 1.806.194 1.4.43 1.4.731 1.4a13.077 13.077 0 0 0 1.871-.58c.925-.41 1.032-.453 1.333-.453.689 0 1.291.453 1.291.8 0 .43-.43.517-2 .818a17.3 17.3 0 0 0-2.172.473.475.475 0 0 0-.41.537 14.18 14.18 0 0 0 .388 1.938c.194.729.279.923.667.923a14.343 14.343 0 0 0 2.754-.818 4.406 4.406 0 0 1 2.13-.538c1.139 0 1.612.582 1.612.948 0 .644-.881.667-1.657.667a22.951 22.951 0 0 0-3.871.622c-.9.194-.948.326-.948.734-.002.557 1.548 4.941 1.548 5.892z"/><path data-name="パス 34" d="M172.606 233.498c-1.126 0-1.49-1.907-1.684-2.93l-.067-.337c-.167-.827-.533-2.649-.609-3.077-.094-.43-.181-.477-.352-.477-.165.024-2.609.6-3.628.936a4.589 4.589 0 0 0-.43.2 3.147 3.147 0 0 1-.952.372c-.384 0-2.707-.992-2.707-1.824a.449.449 0 0 1 .491-.446c.1 0 .381.02.665.042.265.02.531.042.627.042a24.12 24.12 0 0 0 5.18-.727c.524-.1.524-.145.524-.332a9.667 9.667 0 0 0-.359-1.677l-.1-.417c-.141-.578-.219-.578-.337-.578a19.555 19.555 0 0 0-2.551.7 1.679 1.679 0 0 1-.417.116c-.571 0-2.19-.8-2.19-1.394 0-.381.448-.381.662-.381a19.832 19.832 0 0 0 3.265-.361c.781-.178.914-.277.914-.482a5.277 5.277 0 0 0-1.146-2.772c-.049-.042-.169-.127-.308-.227-.685-.491-.763-.564-.763-.723 0-.419 1.026-.6 1.351-.6.355 0 2.13.442 2.23 1.1.022.154.042.535.065.917.02.359.045.769.062.888.167 1.2.323 1.2.5 1.2a14.293 14.293 0 0 0 1.78-.562c.9-.4 1.066-.471 1.425-.471.769 0 1.523.508 1.523 1.028 0 .624-.551.732-2.19 1.046a18.152 18.152 0 0 0-2.136.464c-.248.071-.257.145-.257.319a11.175 11.175 0 0 0 .381 1.88c.2.749.25.749.442.749a14.736 14.736 0 0 0 2.656-.8 4.639 4.639 0 0 1 2.228-.56c1.273 0 1.844.689 1.844 1.18 0 .9-1.135.9-1.889.9a23.06 23.06 0 0 0-3.818.618c-.769.165-.769.216-.769.506a21.074 21.074 0 0 0 .613 2.234 21.569 21.569 0 0 1 .936 3.66c0 .637-.284 1.058-.705 1.058zm-2.712-7.286c.622 0 .743.553.807.85.078.439.442 2.252.609 3.077l.06.306c.152.8.493 2.589 1.236 2.589.134 0 .241-.263.241-.587a23.149 23.149 0 0 0-.917-3.526 15.487 15.487 0 0 1-.631-2.368c0-.589.2-.76 1.128-.959a23.617 23.617 0 0 1 3.916-.629c.908 0 1.429-.071 1.429-.435 0-.25-.4-.716-1.38-.716a4.176 4.176 0 0 0-2.034.517 14.228 14.228 0 0 1-2.85.839c-.6 0-.716-.437-.892-1.1a11.6 11.6 0 0 1-.395-2 .7.7 0 0 1 .575-.76 17.4 17.4 0 0 1 2.194-.477c1.378-.265 1.813-.359 1.813-.591 0-.169-.446-.564-1.059-.564-.245 0-.317.025-1.24.433a12.517 12.517 0 0 1-1.965.6c-.522 0-.772-.223-.961-1.6-.025-.138-.045-.522-.069-.932-.02-.363-.04-.729-.06-.872a3.353 3.353 0 0 0-1.771-.707 2.215 2.215 0 0 0-.758.158c.134.1.319.236.439.323.154.111.288.207.341.252a5.709 5.709 0 0 1 1.307 3.124c0 .642-.651.792-1.278.934a20.047 20.047 0 0 1-3.365.372h-.147a3.6 3.6 0 0 0 1.675.845 1.824 1.824 0 0 1 .276-.1 16.148 16.148 0 0 1 2.692-.72c.562 0 .687.515.785.93l.107.413a9.378 9.378 0 0 1 .372 1.793c0 .573-.355.685-.9.787a24.68 24.68 0 0 1-5.272.736c-.1 0-.381-.022-.665-.042-.265-.022-.533-.045-.627-.045-.027.39 1.846 1.325 2.219 1.345a5.551 5.551 0 0 0 .745-.326 4.517 4.517 0 0 1 .5-.225c.971-.299 3.619-.942 3.771-.942z"/></g><g data-name="グループ 7"><path data-name="パス 35" d="M209.403 224.166c0 .344-.3.45-.689.58a4.834 4.834 0 0 0-1.528.948 9.686 9.686 0 0 1-1.958 1.162.113.113 0 0 1-.107-.107c0-.239 1.871-2.239 1.871-2.776 0-.149-.149-.172-.236-.172-.107 0-2.69.624-2.991.689-.774.194-.861.214-.861.56a49.765 49.765 0 0 0 1.851 5.742 5.778 5.778 0 0 1 .6 1.98c0 .45-.214.9-.45.9a2.24 2.24 0 0 1-1.293-1.2c-.107-.346-1.269-5.357-1.57-6.347-.256-.861-.3-.968-.6-.968a12.935 12.935 0 0 0-2.431.687c-.883.366-.968.41-1.1.41-.216 0-.324-.065-1.269-.711a.86.86 0 0 1-.43-.774c0-.129.02-.537.194-.537.065 0 .388.129.473.149a3.416 3.416 0 0 0 1.14.172 16.2 16.2 0 0 0 3.013-.386.391.391 0 0 0 .3-.343 4.168 4.168 0 0 0-1.055-2.411c-.085-.065-.43-.279-.5-.321a.181.181 0 0 1-.042-.109c0-.343.881-.343 1.075-.343.883 0 1.592.172 1.592.861 0 1.053 0 2.214.5 2.214a21.037 21.037 0 0 0 3.184-.667 10.845 10.845 0 0 1 1.269-.56c.627-.001 2.048 1.118 2.048 1.678z"/><path data-name="パス 36" d="M204.907 233.907a2.368 2.368 0 0 1-1.514-1.369c-.04-.132-.2-.8-.484-1.974-.381-1.59-.9-3.769-1.086-4.373-.241-.8-.261-.8-.381-.8a13.216 13.216 0 0 0-2.339.669l-.3.123c-.647.27-.731.306-.89.306-.3 0-.446-.1-1.4-.752a1.087 1.087 0 0 1-.533-.966c0-.488.154-.769.426-.769a1.26 1.26 0 0 1 .37.1c.067.024.127.047.156.053a3.263 3.263 0 0 0 1.086.165 15.888 15.888 0 0 0 2.95-.377s.132-.047.132-.12a4.008 4.008 0 0 0-.97-2.23 6.993 6.993 0 0 0-.361-.236l-.114-.074a.4.4 0 0 1-.147-.3c0-.575.983-.575 1.307-.575.453 0 1.824 0 1.824 1.093 0 .593 0 1.982.263 1.982a20.846 20.846 0 0 0 3.1-.651 4.38 4.38 0 0 0 .4-.19 3.043 3.043 0 0 1 .95-.386c.725 0 2.277 1.2 2.277 1.911 0 .517-.45.667-.847.8a4.179 4.179 0 0 0-1.352.832l-.114.08a7.556 7.556 0 0 1-2.094 1.209.34.34 0 0 1-.339-.339c0-.161.125-.332.707-1.066a10.382 10.382 0 0 0 1.151-1.637c-.29.047-1.354.3-2.012.453-.448.107-.818.194-.921.216a2.472 2.472 0 0 0-.667.21.348.348 0 0 0-.011.125 52.647 52.647 0 0 0 1.833 5.658 5.873 5.873 0 0 1 .62 2.065c.006.546-.268 1.134-.676 1.134zm-3.465-8.983c.486 0 .571.285.825 1.133.187.618.689 2.714 1.095 4.4.234.977.435 1.82.473 1.945a2.144 2.144 0 0 0 1.082 1.041 1.034 1.034 0 0 0 .21-.671 5.687 5.687 0 0 0-.586-1.9 47.819 47.819 0 0 1-1.867-5.827c0-.526.261-.591 1.037-.785l.919-.216c1.751-.413 2.052-.479 2.128-.479a.414.414 0 0 1 .468.4c0 .377-.5 1.035-1.264 2-.127.161-.27.339-.386.493.348-.2.9-.553 1.479-.959l.109-.08a4.6 4.6 0 0 1 1.479-.9c.435-.147.531-.21.531-.361 0-.406-1.3-1.447-1.813-1.447a6.043 6.043 0 0 0-.743.337c-.2.1-.377.187-.453.212a20.56 20.56 0 0 1-3.258.678c-.727 0-.727-1.189-.727-2.446 0-.292-.154-.629-1.36-.629a2.038 2.038 0 0 0-.789.1c.134.085.33.21.393.257a4.363 4.363 0 0 1 1.146 2.6.613.613 0 0 1-.459.564 16.146 16.146 0 0 1-3.086.4 3.64 3.64 0 0 1-1.213-.183c-.018 0-.1-.031-.185-.062l-.147-.051a1.321 1.321 0 0 0-.029.281.632.632 0 0 0 .33.584c.89.607 1 .669 1.137.669a3.308 3.308 0 0 0 .711-.268l.3-.125a12.77 12.77 0 0 1 2.513-.705z"/></g><g data-name="グループ 8"><path data-name="パス 37" d="M233.251 229.027a15.061 15.061 0 0 0-2.11 1.764c-.408.5-.453.537-.774.537-1.164 0-2.754-1.376-2.754-2.237 0-.152.022-1.14.214-1.14a5.445 5.445 0 0 1 .647.408 3.563 3.563 0 0 0 1.463.5c1.055 0 6.755-3.807 10.325-7.337.346-.343.948-.946.99-.946a.139.139 0 0 1 .107.107c0 .191-2.518 4.218-8.108 8.344zm-1.766-7.078c-.58 0-.8-.343-1.505-1.418a4.868 4.868 0 0 0-1.958-1.766c-.087-.042-.194-.107-.194-.192s.172-.194.475-.194c2.3 0 4.108 1.227 4.108 2.5a.95.95 0 0 1-.922 1.07z"/><path data-name="パス 38" d="M230.367 231.561c-1.256 0-2.986-1.432-2.986-2.469 0-1.371.312-1.371.446-1.371.114 0 .225.067.58.317.076.054.141.1.172.116a3.4 3.4 0 0 0 1.358.471c.883 0 6.5-3.651 10.162-7.27 1.012-1.012 1.026-1.012 1.153-1.012a.361.361 0 0 1 .339.339c0 .3-2.522 4.337-8.2 8.534a13.445 13.445 0 0 0-2.067 1.726c-.408.487-.518.619-.957.619zm-2.455-3.3a5 5 0 0 0-.067.832c0 .709 1.483 2 2.522 2 .221 0 .221 0 .6-.453a13.84 13.84 0 0 1 2.15-1.8 34.534 34.534 0 0 0 7.415-7.257l-.1.1c-3.474 3.432-9.306 7.4-10.49 7.4a3.78 3.78 0 0 1-1.586-.528 2.926 2.926 0 0 1-.212-.145c-.061-.037-.152-.098-.232-.15zm3.573-6.079c-.694 0-.957-.4-1.659-1.463l-.04-.06a4.565 4.565 0 0 0-1.8-1.646l-.083-.047c-.067-.031-.31-.152-.31-.392s.29-.426.707-.426c2.353 0 4.34 1.249 4.34 2.727a1.171 1.171 0 0 1-1.156 1.306zm-3.26-3.568a5 5 0 0 1 1.949 1.789l.04.06c.682 1.037.843 1.255 1.271 1.255s.693-.323.693-.843c0-1.07-1.592-2.263-3.876-2.263z"/></g><g data-name="グループ 9"><path data-name="パス 39" d="M256.546 219.626a5.07 5.07 0 0 0 1.786.453c.881 0 7.185-.6 8.111-1.012.667-.3.752-.343.9-.343.473 0 .818.3 1.485.883.968.861 1.095 1.1 1.095 1.4 0 .279-.107.386-.493.774a3.543 3.543 0 0 0-.838 1.356c-3.379 7.014-10.887 10.024-11.1 10.024a.142.142 0 0 1-.152-.127c0-.087.065-.129.281-.281 3.742-2.625 6.775-5.464 8.5-8.519a12.132 12.132 0 0 0 1.463-3.637c0-.364-.366-.386-.473-.386a70.72 70.72 0 0 0-7.745 1.548 7.784 7.784 0 0 1-1.075.475c-.5 0-2.217-1.077-2.217-2.261 0-.408.065-.473.194-.473.041-.004.235.126.278.126zm17.319-1.441a2.076 2.076 0 1 1-4.152 0 2.045 2.045 0 0 1 2.107-2.045 2 2 0 0 1 2.044 2.045zm-3.441.065a1.367 1.367 0 0 0 2.732-.022 1.441 1.441 0 0 0-1.378-1.356 1.385 1.385 0 0 0-1.355 1.378z"/><path data-name="パス 40" d="M257.493 233.389a.373.373 0 0 1-.384-.359c0-.207.132-.3.368-.464 4.039-2.832 6.875-5.673 8.441-8.45a12.28 12.28 0 0 0 1.432-3.523c0-.049 0-.154-.241-.154a72.581 72.581 0 0 0-7.66 1.532 4.076 4.076 0 0 0-.3.145 2.641 2.641 0 0 1-.861.346c-.582 0-2.449-1.151-2.449-2.493 0-.245 0-.7.426-.7a.536.536 0 0 1 .25.094l.067.036.065.025a4.887 4.887 0 0 0 1.684.428 57.5 57.5 0 0 0 8.017-.992l.094-.042c.615-.279.709-.321.9-.321.558 0 .939.33 1.628.932.954.847 1.184 1.155 1.184 1.581 0 .377-.165.54-.562.939a3.378 3.378 0 0 0-.794 1.291 21.756 21.756 0 0 1-11.305 10.149zm9.616-13.414a.624.624 0 0 1 .7.618 12.044 12.044 0 0 1-1.494 3.751c-1.561 2.774-4.219 5.486-8.12 8.28 1.945-.892 7.4-3.822 10.185-9.591a3.745 3.745 0 0 1 .89-1.425c.388-.388.419-.435.419-.6 0-.194-.069-.381-1.019-1.227-.673-.586-.959-.823-1.329-.823-.089 0-.163.031-.711.281l-.1.042c-.981.433-7.324 1.033-8.207 1.033a5.285 5.285 0 0 1-1.862-.464.785.785 0 0 1-.158-.071c0 .045-.007.107-.007.194 0 1.041 1.63 2.029 1.985 2.029a5.743 5.743 0 0 0 .651-.3 7.19 7.19 0 0 1 .341-.163 68.172 68.172 0 0 1 7.836-1.563zm4.69.529a2.353 2.353 0 0 1-2.319-2.319 2.285 2.285 0 0 1 2.339-2.277 2.239 2.239 0 0 1 2.277 2.277 2.338 2.338 0 0 1-2.297 2.319zm.02-4.132a1.805 1.805 0 0 0-1.875 1.813 1.844 1.844 0 1 0 3.688 0 1.775 1.775 0 0 0-1.813-1.813zm0 3.4a1.573 1.573 0 0 1-1.628-1.523 1.6 1.6 0 0 1 1.586-1.61 1.668 1.668 0 0 1 1.61 1.588 1.565 1.565 0 0 1-1.568 1.546zm-.042-2.669a1.158 1.158 0 0 0-1.122 1.146 1.136 1.136 0 0 0 2.268-.022 1.217 1.217 0 0 0-1.146-1.124z"/></g><g data-name="グループ 10"><path data-name="パス 41" d="M291.854 217.69c.515 0 1.7.754 1.7 1.12 0 .107-.045.6-.045.709 0 2.5.045 4.431.067 4.949.02.259.127 1.334.127 1.548 0 .56-.5 1.1-.816 1.1-.475 0-.968-1.142-.968-1.7 0-.172.107-.9.107-1.075.042-.968.042-1.806.042-2.194 0-2.411-.107-2.9-.774-3.68-.172-.194-.281-.321-.281-.493 0-.155.346-.284.841-.284zm5.916-.6c-.259-.343-.281-.388-.281-.43 0-.065 0-.129.625-.129 1.291 0 2.366.538 2.366 1.1a8.49 8.49 0 0 1-.214.861c-.087.58-.109 3.809-.172 4.56a13.629 13.629 0 0 1-5.379 9.984 8.662 8.662 0 0 1-1.936 1.269c-.087 0-.132-.045-.132-.109 0-.085 1.4-1.463 1.657-1.742 4.152-4.431 4.3-8.175 4.3-12.479a4.116 4.116 0 0 0-.834-2.887z"/><path data-name="パス 42" d="M292.779 234.531a.343.343 0 0 1-.364-.341c0-.129 0-.154 1.227-1.4.223-.225.413-.417.493-.5 4.242-4.527 4.242-8.49 4.242-12.323a3.913 3.913 0 0 0-.794-2.745c-.281-.372-.326-.442-.326-.566 0-.361.417-.361.856-.361 1.409 0 2.6.609 2.6 1.329a2.288 2.288 0 0 1-.127.564 3.15 3.15 0 0 0-.091.337c-.044.3-.074 1.474-.1 2.506-.022.872-.042 1.693-.071 2.034a13.788 13.788 0 0 1-5.466 10.144 8.1 8.1 0 0 1-2.079 1.322zm5.038-17.765c.051.065.107.141.138.181v.007a4.343 4.343 0 0 1 .881 3.015c0 3.923 0 7.979-4.367 12.638-.08.087-.272.283-.5.513-.158.163-.377.384-.58.591.341-.227.774-.542 1.177-.863a13.355 13.355 0 0 0 5.292-9.821c.029-.326.049-1.142.069-2 .027-1.1.056-2.232.1-2.569a3.964 3.964 0 0 1 .1-.4 2.387 2.387 0 0 0 .107-.43c0-.348-.9-.865-2.134-.865a3.036 3.036 0 0 0-.283.004zm-4.931 10.579c-.694 0-1.2-1.356-1.2-1.934 0-.089.027-.328.054-.564.027-.214.054-.428.054-.511.042-.975.042-1.8.042-2.194 0-2.462-.127-2.839-.718-3.528a.981.981 0 0 1-.337-.644c0-.379.553-.513 1.073-.513.575 0 1.931.8 1.931 1.351 0 .056-.011.214-.022.37s-.022.288-.022.339c0 2.54.044 4.453.067 4.938l.033.368c.051.562.094 1.039.094 1.191a1.355 1.355 0 0 1-1.049 1.332zm-1.632-9.326a1.011 1.011 0 0 0 .212.29c.718.834.834 1.369.834 3.833 0 .4 0 1.231-.042 2.206 0 .08-.027.317-.056.555a6.108 6.108 0 0 0-.051.508c0 .522.473 1.47.736 1.47a.956.956 0 0 0 .584-.867c0-.143-.058-.772-.094-1.148l-.033-.381c-.02-.5-.067-2.42-.067-4.966 0-.056.011-.214.022-.37s.022-.288.022-.339a2.552 2.552 0 0 0-1.467-.888 1.469 1.469 0 0 0-.6.098z"/></g><g data-name="グループ 11"><path data-name="パス 43" d="M325.394 223.327c0 1.033-.752 1.162-.881 1.162-.473 0-.56-.129-1.505-1.766a9.766 9.766 0 0 0-1.722-2.085c-.042-.045-.129-.129-.129-.194 0-.087.129-.065.172-.065.903.194 4.065.796 4.065 2.948zm8.048-1.291c-.259.408-1.206 2.409-1.42 2.8a19.172 19.172 0 0 1-6.411 7.143 11.736 11.736 0 0 1-2.388 1.182.114.114 0 0 1-.107-.107c0-.085 1.936-1.7 2.279-2.023a20.884 20.884 0 0 0 6.476-10.412 1.619 1.619 0 0 0-.6-1.1c-.022-.022-.107-.107-.107-.172 0-.194.473-.194.56-.194a1.936 1.936 0 0 1 1.57.6c.216.194.9.8.9 1.269 0 .195-.645.862-.752 1.014zm3.506-2.948c0 .473-.279.861-.622.861-.261 0-.41-.085-1.142-.861a6.369 6.369 0 0 0-1.635-1.139c-.107-.065-.344-.216-.344-.3s.172-.194.366-.216c2.066-.259 3.377.988 3.377 1.655zm-1.055-3.506c1.766 0 2.411 1.01 2.411 1.483a.572.572 0 0 1-.56.624c-.408 0-.56-.129-1.119-.6a5.5 5.5 0 0 0-2.065-.839c-.214-.044-.321-.129-.321-.194 0-.129.344-.323.732-.388a5.055 5.055 0 0 1 .922-.086z"/><path data-name="パス 44" d="M323.222 233.389a.344.344 0 0 1-.339-.339c0-.149 0-.161 1.536-1.479.366-.317.694-.6.816-.714a20.875 20.875 0 0 0 6.4-10.247 1.4 1.4 0 0 0-.522-.917.508.508 0 0 1-.187-.348c0-.283.268-.426.792-.426a2.179 2.179 0 0 1 1.719.656c.475.428.986.952.986 1.447 0 .2-.185.442-.627.948a3.887 3.887 0 0 0-.165.194c-.154.245-.564 1.082-.9 1.755-.228.462-.428.87-.513 1.024a19.3 19.3 0 0 1-6.492 7.228 10.893 10.893 0 0 1-2.504 1.218zm8.26-13.989a1.778 1.778 0 0 1 .62 1.215 21.2 21.2 0 0 1-6.55 10.584c-.125.116-.457.4-.832.725-.254.216-.569.488-.839.723a15.634 15.634 0 0 0 1.606-.867 18.856 18.856 0 0 0 6.331-7.058c.085-.152.281-.551.5-1.006.355-.723.76-1.545.923-1.8l.007-.011c.031-.045.1-.129.2-.234a4.049 4.049 0 0 0 .515-.667c0-.21-.272-.571-.8-1.05a1.739 1.739 0 0 0-1.441-.564 1.55 1.55 0 0 0-.24.01zm-6.969 5.321c-.618 0-.763-.252-1.706-1.882a9.5 9.5 0 0 0-1.686-2.038.539.539 0 0 1-.2-.357v-.1l.089-.112a.4.4 0 0 1 .305-.085l.149.025c1.028.219 4.157.883 4.157 3.156a1.237 1.237 0 0 1-1.108 1.393zm-2.854-4.034a8.933 8.933 0 0 1 1.548 1.918c.957 1.652.99 1.652 1.307 1.652.007 0 .649-.036.649-.93-.005-1.731-2.376-2.386-3.505-2.641zm14.667-.506c-.361 0-.569-.147-1.309-.932a6.2 6.2 0 0 0-1.583-1.1c-.381-.227-.459-.366-.459-.5 0-.247.294-.415.571-.446a3.754 3.754 0 0 1 3.022.819 1.555 1.555 0 0 1 .613 1.068 1 1 0 0 1-.855 1.09zm-2.779-2.509c.033.022.074.049.12.076a6.506 6.506 0 0 1 1.681 1.177c.716.758.823.792.977.792.208 0 .39-.292.39-.629a1.146 1.146 0 0 0-.457-.72 3.429 3.429 0 0 0-2.658-.707zm-.132-.107zm4.329.357c-.491 0-.7-.176-1.256-.647a5.276 5.276 0 0 0-1.969-.8c-.323-.065-.513-.223-.513-.422 0-.339.553-.553.923-.615a5.161 5.161 0 0 1 .963-.089c1.978 0 2.643 1.177 2.643 1.715a.8.8 0 0 1-.791.857zm-3.135-1.9a5.76 5.76 0 0 1 2.161.883c.582.493.667.553.975.553s.328-.352.328-.392c0-.321-.537-1.251-2.179-1.251a4.8 4.8 0 0 0-.876.08 1.578 1.578 0 0 0-.409.126z"/></g><g data-name="グループ 12"><path data-name="パス 45" d="M367.005 223.8c.129 0 .368-.022.473-.022 1.313 0 1.508.8 1.508.948 0 .6-.883.667-1.786.667-.495 0-2.647-.045-3.075-.045-2.97 0-7.9.281-8.412.388-.259.042-1.421.388-1.679.388-.926 0-1.913-1.336-1.913-2.065 0-.129.063-.259.172-.259s.624.236.731.259a11.74 11.74 0 0 0 2.625.194c.707 0 8.215-.281 11.356-.453z"/><path data-name="パス 46" d="M354.036 226.351a2.66 2.66 0 0 1-2.145-2.3.444.444 0 0 1 .4-.491 1.783 1.783 0 0 1 .533.169c.107.042.2.082.245.094a10.479 10.479 0 0 0 2.578.19c.7 0 8.213-.281 11.346-.453h.011c.065 0 .156-.007.243-.011s.176-.011.23-.011c1.421 0 1.74.872 1.74 1.18 0 .9-1.313.9-2.018.9-.256 0-.959-.011-1.635-.022-.629-.011-1.233-.022-1.441-.022-2.9 0-7.861.279-8.365.384-.1.018-.321.076-.571.141a6.974 6.974 0 0 1-1.151.252zm-1.682-2.3c0 .62.908 1.833 1.682 1.833a9.262 9.262 0 0 0 1.039-.239c.265-.069.5-.129.6-.145.52-.109 5.453-.393 8.45-.393.208 0 .816.011 1.447.022.674.011 1.374.022 1.628.022.769 0 1.555-.051 1.555-.435 0-.007-.078-.716-1.276-.716-.047 0-.122 0-.2.011-.094 0-.194.011-.263.011-3.142.172-10.66.453-11.367.453a12.207 12.207 0 0 1-2.692-.2 4.236 4.236 0 0 1-.3-.112c-.085-.026-.221-.08-.306-.112z"/></g><g data-name="グループ 13"><path data-name="パス 47" d="M386.812 216.68c.774 0 2.324.687 2.324 1.376a6.012 6.012 0 0 1-.259.9 28.019 28.019 0 0 0-.192 2.99c0 .473.085.538.709.689 1.311.3 4.645 1.871 4.645 3.486a.735.735 0 0 1-.774.752c-.537 0-.6-.085-2.043-1.956-.6-.8-1.615-1.809-2.281-1.809-.214 0-.3 0-.3 1.592 0 2.281.022 3.421.107 5.357.022.236.042.774.042 1.1 0 .537 0 1.958-.622 1.958-.647 0-1.2-1.463-1.2-2.023 0-.085.085-.537.085-.624a44.2 44.2 0 0 0 .194-4.991c0-6.153 0-6.839-.259-7.529a2.372 2.372 0 0 0-.732-.99l-.042-.087c.018-.191.578-.191.598-.191z"/><path data-name="パス 48" d="M388.168 233.347c-.872 0-1.436-1.675-1.436-2.255 0-.047.022-.2.045-.346.018-.118.038-.236.04-.281a44 44 0 0 0 .194-4.989c0-6.023 0-6.8-.243-7.448a2.173 2.173 0 0 0-.673-.9l-.049-.065-.074-.149.009-.067c.036-.33.473-.4.832-.4.863 0 2.556.727 2.556 1.608a3.735 3.735 0 0 1-.263.952 27.646 27.646 0 0 0-.19 2.941c0 .335 0 .335.533.464 1.327.3 4.824 1.907 4.824 3.711a.961.961 0 0 1-1.006.983c-.651 0-.738-.114-2.212-2.027-.66-.874-1.588-1.737-2.112-1.737a8.8 8.8 0 0 0-.067 1.36c0 2.3.025 3.448.107 5.348.022.241.042.785.042 1.106-.003.657-.003 2.191-.857 2.191zm-1.608-16.418a2.363 2.363 0 0 1 .64.937c.274.729.274 1.38.274 7.611a44.972 44.972 0 0 1-.194 5.011 5.2 5.2 0 0 1-.045.33c-.02.116-.038.232-.04.276 0 .56.555 1.789.972 1.789.118 0 .39-.167.39-1.726 0-.3-.02-.839-.04-1.077a103.558 103.558 0 0 1-.109-5.377c0-1.5.047-1.824.533-1.824 1 0 2.319 1.706 2.466 1.9 1.436 1.864 1.452 1.864 1.858 1.864a.5.5 0 0 0 .542-.52c0-1.392-3.1-2.946-4.467-3.258-.658-.16-.888-.274-.888-.917a27.9 27.9 0 0 1 .2-3.035 5.219 5.219 0 0 0 .254-.861c0-.468-1.354-1.142-2.092-1.142a1.684 1.684 0 0 0-.254.02z"/></g><g data-name="グループ 14"><path data-name="パス 49" d="M416.443 216.378a1.1 1.1 0 0 0 1.055-.5c.281-.323.43-.388.56-.388.493 0 1.764 1.12 1.764 1.505 0 .194-.065.236-.5.647-.259.214-.366.58-.366 1.4 0 .236.042 1.441.042 1.721 0 1.978 0 8.755-1.376 11.574-.194.386-.968 2-2.324 2-.107 0-.236 0-.259-.107-.236-.905-.259-1.055-1.356-1.592-.214-.109-.816-.388-.816-.517 0-.085.129-.085.194-.085a1.422 1.422 0 0 1 .279.042 11.839 11.839 0 0 0 1.356.172 1.947 1.947 0 0 0 2.065-1.592 20.255 20.255 0 0 0 .647-3.936c0-.537-.41-.537-.647-.537h-2.107c-.453 0-.667.107-.754.537a14.332 14.332 0 0 1-.6 2.56 9.209 9.209 0 0 1-3.744 4.777c-.022 0-.042-.022-.042-.065 0-.129.065-.216.451-.669 1.873-2.085 2.712-6.3 2.712-6.668a.4.4 0 0 0-.453-.453c-.236 0-1.505.087-1.655.087-.087 0-.109-.042-.194-.129l-.41-.5c-.107-.107-.107-.107-.107-.149s.065-.045.087-.045c.323 0 1.98.129 2.344.129a.5.5 0 0 0 .56-.473c.042-.3.152-2.023.152-2.926 0-.473-.087-.731-.6-.731-.087 0-1.184.022-1.615.065-.065 0-.388.042-.453.042-.085 0-.107-.042-.192-.129l-.41-.5c-.107-.107-.107-.107-.107-.149s.065-.042.087-.042c.386 0 2.3.129 2.732.129.689 0 .689-.174.689-2.712 0-.9 0-1.227-.517-1.227-.259 0-1.528.107-1.677.107-.087 0-.129-.065-.194-.149l-.43-.5c-.087-.107-.087-.107-.087-.129 0-.042.045-.065.087-.065.129 0 .8.065.925.087.622.02 1.742.065 2.968.065zm.388 9.25c.323 0 .667 0 .709-.56 0-.087.022-.517.022-2.8 0-.647-.129-.8-.731-.8h-1.722c-.323 0-.644.042-.732.43-.042.149-.236 3.12-.236 3.227 0 .5.3.5.689.5zm-1.635-8.67c-.194 0-.537 0-.647.279-.085.194-.129 2.712-.129 2.993 0 .493.045.687.689.687h1.742c.41 0 .711-.065.711-.624 0-.428 0-2.451-.022-2.8-.022-.537-.43-.537-.709-.537zm10.95-.58a.541.541 0 0 0 .366-.087c.065-.042.323-.5.408-.5s1.766.925 1.766 1.227c0 .107-.323.3-.5.408-.321.194-2.386 3.466-2.881 4.068-.343.45-.388.473-.388.6a.378.378 0 0 0 .152.259c.085.085.624.451.731.535.56.475 2.839 2.562 2.839 5.252 0 2.431-2.214 4.195-3.118 4.195-.281 0-.323-.087-.453-.475a2.566 2.566 0 0 0-1.012-1.331c-.065-.045-.473-.281-.473-.388 0-.065.087-.065.172-.065.236 0 1.378.194 1.635.194a1.915 1.915 0 0 0 .8-.129c.665-.41.881-1.829.881-2.647a6.141 6.141 0 0 0-1.657-4.195c-.152-.149-1.01-.861-1.01-1.1a8.285 8.285 0 0 1 .731-1.441 14.563 14.563 0 0 0 1.247-3.508c0-.3-.236-.3-.408-.3h-2.281c-.323 0-.6.042-.667.408-.042.174-.192 10.133-.192 10.952 0 1.032 0 2.388.085 4.13 0 .129.042.818.042.99a.974.974 0 0 1-1.117.988c-.174 0-.54 0-.54-.622 0-.194.109-1.162.109-1.378.085-2.431.236-10.218.236-12.992 0-.54-.042-2.239-.085-2.712 0-.107-.152-.645-.152-.774a.21.21 0 0 1 .236-.237 4.877 4.877 0 0 1 1.311.473 1.9 1.9 0 0 0 .925.194z"/><path data-name="パス 50" d="M421.844 234.658c-.638 0-.772-.464-.772-.854 0-.1.027-.386.053-.68s.056-.591.056-.7c.087-2.484.236-10.269.236-12.992 0-.537-.045-2.234-.085-2.692a2.9 2.9 0 0 0-.065-.323 2.744 2.744 0 0 1-.087-.471.438.438 0 0 1 .468-.468 3.429 3.429 0 0 1 1.135.372l.268.118a1.682 1.682 0 0 0 .834.176h2.259a.375.375 0 0 0 .221-.036c.016-.018.053-.076.1-.136.176-.256.283-.41.457-.41.129 0 2 .957 2 1.458 0 .214-.225.368-.566.58a22.738 22.738 0 0 0-1.693 2.355c-.517.769-.966 1.434-1.173 1.688l-.176.23a1.7 1.7 0 0 0-.158.216c0 .027.047.067.062.083.065.065.314.239.462.346.122.085.23.161.272.194.689.584 2.926 2.692 2.926 5.432 0 2.556-2.35 4.427-3.349 4.427-.464 0-.551-.265-.674-.633-.156-.528-.354-.707-.945-1.233-.379-.232-.551-.372-.551-.56 0-.136.069-.3.4-.3.125 0 .393.036.821.1.31.042.7.1.814.1a1.4 1.4 0 0 0 .669-.091c.508-.312.778-1.494.778-2.453a5.908 5.908 0 0 0-1.594-4.036c-.022-.022-.078-.071-.149-.136-.709-.633-.923-.894-.923-1.12a3.939 3.939 0 0 1 .635-1.336c.054-.094.1-.169.123-.216a14.757 14.757 0 0 0 1.222-3.41c-.031-.056-.132-.056-.178-.056h-2.282c-.361 0-.41.067-.439.219-.038.337-.187 9.975-.187 10.909a79.515 79.515 0 0 0 .105 4.552c.011.227.022.475.022.569a1.183 1.183 0 0 1-1.352 1.218zm-.194-18.715a2.514 2.514 0 0 0 .069.37 2.082 2.082 0 0 1 .076.408c.042.457.087 2.152.087 2.712 0 2.727-.149 10.521-.236 13 0 .1-.029.422-.058.732-.025.276-.051.546-.051.638 0 .39.143.39.308.39.885 0 .885-.569.885-.756 0-.091-.011-.326-.022-.544-.011-.2-.02-.384-.02-.446-.085-1.737-.085-3.12-.085-4.13 0-.1.14-10.769.2-11.005a.77.77 0 0 1 .892-.586h2.281c.426 0 .64.181.64.533a14.342 14.342 0 0 1-1.273 3.613c-.029.053-.076.134-.132.232-.069.118-.187.323-.3.529l.033-.04.178-.234c.2-.243.662-.93 1.151-1.659a15.493 15.493 0 0 1 1.8-2.466 4.208 4.208 0 0 0 .359-.241 8.693 8.693 0 0 0-1.463-.925l-.123.172a.818.818 0 0 1-.205.245.748.748 0 0 1-.493.125h-2.259a2.114 2.114 0 0 1-1.024-.216l-.265-.116a3.613 3.613 0 0 0-.95-.335zm2.565 14.419a2.768 2.768 0 0 1 1.077 1.438 1.326 1.326 0 0 0 .125.3.276.276 0 0 0 .107.011c.72 0 2.886-1.6 2.886-3.963 0-2.542-2.11-4.527-2.756-5.073a5.035 5.035 0 0 0-.245-.176 5.973 5.973 0 0 1-.493-.368c.176.174.39.364.491.453.078.071.141.127.172.158a6.372 6.372 0 0 1 1.726 4.36c0 .83-.21 2.364-.992 2.843a1.772 1.772 0 0 1-.919.165c-.136 0-.437-.042-.879-.1zm.691-7.841zm-.219-.457a.741.741 0 0 0-.054.152 1.335 1.335 0 0 0 .228.261.538.538 0 0 1-.174-.377zm-9.384 12.508c-.118 0-.426 0-.486-.292-.225-.863-.248-.95-1.229-1.432l-.091-.045c-.633-.31-.856-.459-.856-.68 0-.1.04-.317.426-.317a1.7 1.7 0 0 1 .337.049l.341.051a7.411 7.411 0 0 0 .957.114 1.717 1.717 0 0 0 1.844-1.43 20.1 20.1 0 0 0 .636-3.869c0-.265-.094-.3-.415-.3h-2.107c-.4 0-.473.078-.526.352l-.054.288a12.85 12.85 0 0 1-.557 2.3 8.9 8.9 0 0 1-3.963 4.931.284.284 0 0 1-.274-.3c0-.227.118-.363.506-.818 1.88-2.1 2.656-6.287 2.656-6.518 0-.174-.047-.221-.221-.221-.129 0-.573.027-.966.051-.328.018-.622.036-.689.036a.413.413 0 0 1-.326-.163l-.047-.051-.41-.5c-.1-.1-.161-.158-.161-.3a.286.286 0 0 1 .319-.276c.158 0 .636.031 1.126.062.511.033 1.037.067 1.218.067.216 0 .3-.069.332-.276.038-.265.147-1.983.147-2.89 0-.453-.071-.5-.37-.5-.091 0-1.18.022-1.592.062-.054 0-.138.013-.223.022-.107.011-.214.022-.252.022a.414.414 0 0 1-.319-.158l-.051-.056-.41-.493c-.1-.1-.161-.161-.161-.3a.285.285 0 0 1 .319-.274c.19 0 .745.029 1.316.062.591.031 1.2.067 1.416.067.439 0 .457 0 .457-2.48 0-.995-.038-.995-.285-.995-.145 0-.609.036-1.01.065-.319.022-.6.042-.667.042a.461.461 0 0 1-.372-.23l-.428-.5c-.107-.136-.143-.178-.143-.281a.306.306 0 0 1 .319-.3c.152 0 .834.069.964.089h.1c.631.022 1.688.06 2.828.06h2.237a.875.875 0 0 0 .872-.406c.3-.341.508-.477.742-.477.615 0 2 1.2 2 1.737 0 .277-.107.377-.459.711l-.107.1c-.183.152-.294.412-.294 1.231 0 .111.011.444.02.792.011.381.022.783.022.93 0 5.845-.471 9.774-1.4 11.674-.712 1.455-1.559 2.162-2.536 2.162zm-.034-.395v.009zm-.018-.069h.051c.785 0 1.494-.62 2.1-1.846.91-1.862 1.365-5.722 1.365-11.5 0-.145-.011-.54-.022-.919-.009-.352-.02-.689-.02-.8 0-.876.123-1.3.45-1.577l.1-.091c.314-.3.314-.305.314-.377a3.2 3.2 0 0 0-1.532-1.273c-.078 0-.207.1-.386.308a1.308 1.308 0 0 1-1.229.573h-2.237c-1.148 0-2.21-.036-2.843-.058h-.134c-.085-.013-.335-.04-.553-.06l.241.279c.038.047.06.078.069.087a3.79 3.79 0 0 1 .584-.058c.415-.031.894-.067 1.044-.067.749 0 .749.549.749 1.458 0 2.607 0 2.944-.921 2.944-.227 0-.845-.036-1.443-.069-.339-.018-.673-.038-.925-.049l.276.328a.528.528 0 0 0 .183-.007c.109-.011.216-.022.252-.022.408-.042 1.51-.065 1.615-.065.834 0 .834.651.834.963 0 .9-.107 2.636-.154 2.957a.733.733 0 0 1-.789.674c-.194 0-.731-.034-1.247-.067-.265-.018-.526-.036-.732-.047l.306.357a4.241 4.241 0 0 1 .613-.054c.406-.025.863-.051.995-.051a.629.629 0 0 1 .685.685 15.908 15.908 0 0 1-2.462 6.452 9.341 9.341 0 0 0 2.636-3.9 12.046 12.046 0 0 0 .537-2.232l.053-.292a.843.843 0 0 1 .984-.727h2.107a.744.744 0 0 1 .876.769 20.268 20.268 0 0 1-.656 4.005 2.164 2.164 0 0 1-2.286 1.755 7.616 7.616 0 0 1-1.028-.118h-.022l.051.024.091.047c1.126.535 1.222.755 1.461 1.662zm1.579-8.249h-2c-.368 0-.921 0-.921-.727 0-.025.19-3.089.245-3.292a.851.851 0 0 1 .955-.6h1.722c.729 0 .963.25.963 1.028 0 1.913-.016 2.527-.02 2.727v.069c-.063.796-.636.796-.944.796zm-1.722-4.152c-.381 0-.468.08-.5.248-.042.207-.23 3.015-.232 3.18 0 .234.016.261.457.261h2c.35 0 .453-.016.479-.346v-.068c0-.2.02-.809.02-2.714 0-.546-.049-.564-.5-.564zm1.742-.56h-1.742c-.852 0-.921-.4-.921-.919a29.3 29.3 0 0 1 .149-3.086c.161-.417.651-.417.859-.417h1.635c.272 0 .91 0 .941.76.018.285.022 1.684.022 2.805.002.858-.659.858-.943.858zm-1.655-3.958c-.192 0-.384.011-.43.132-.065.239-.114 2.493-.114 2.908 0 .43 0 .455.457.455h1.742c.384 0 .48-.045.48-.392 0-1.577-.007-2.565-.02-2.781-.013-.279-.12-.321-.479-.321z"/></g><g data-name="グループ 15"><path data-name="パス 51" d="M447.404 226.596a5.007 5.007 0 0 1 1.784 1.764c0 .172-.065.194-.644.388-.087.042-6.068 4.366-6.755 4.366-.065 0-.129-.022-.129-.085 0-.129.56-.582.8-.754 2.5-1.958 4.755-4.668 4.755-5.379-.004-.128.016-.3.189-.3zm-1.378-10.8c.087 0 1.7.9 1.7.9a.272.272 0 0 1 .129.239c0 .172-.107.236-.451.408a26.917 26.917 0 0 0-2.152 2.023 10.008 10.008 0 0 1-2.99 2.065c-.042 0-.087 0-.087-.065 0-.022.926-1.013 1.035-1.12a14.841 14.841 0 0 0 2.516-3.807 4.852 4.852 0 0 1 .129-.582.25.25 0 0 1 .171-.061zm.861 5.421c.129.087 1.657 1.142 1.722 1.249 0 .042.022.107.022.172 0 .236-.067.256-.711.473-.279.087-2.237 1.7-2.667 2-.883.624-2.667 1.809-2.754 1.809a.079.079 0 0 1-.085-.087 6.417 6.417 0 0 1 .839-.926 21.872 21.872 0 0 0 3.12-4.023 3.212 3.212 0 0 1 .3-.6.294.294 0 0 1 .214-.066zm7.014 9.9c.43.343.453.43.453.537 0 .281-.3.281-.709.323-.174 0-1.508.625-1.786.732a25.058 25.058 0 0 1-5.078 1.4c-.065 0-.236-.022-.236-.129 0-.042.042-.065.43-.216 2.968-1.182 4.3-2.02 5.25-2.946a6.41 6.41 0 0 0 .343-.56c.106-.091.236.018 1.333.857zm-1.592-1.421c-.15 0-.537 0-.645.279a1.046 1.046 0 0 1-1.012.754c-.58 0-.6-.408-.6-.58 0-.107.107-1.485.129-1.744.129-2.065.152-4.043.152-4.839a24.169 24.169 0 0 0-.174-3.722c0-.129-.127-.711-.127-.818s.107-.149.192-.149a7.692 7.692 0 0 1 1.336.667 1.549 1.549 0 0 0 .558.085h.366c.323 0 .453-.065.647-.689a5.307 5.307 0 0 0 .236-1.441c0-.386-.172-.453-.5-.453h-.709c-.754 0-1.657.022-2.087.067-.065 0-.388.042-.453.042-.085 0-.127-.042-.194-.129l-.408-.5c-.087-.107-.107-.107-.107-.149s.042-.045.087-.045c.149 0 .816.065.945.065.99.045 1.958.087 2.948.087h4.043c.906 0 .99 0 1.162-.172.194-.174.861-1.142 1.077-1.142.129 0 1.742 1.226 1.742 1.55s-.279.321-.883.321h-4.215c-.473 0-.54.109-1.206 1.077-.149.216-1.01 1.291-1.01 1.4s.129.107.216.107h3.548c.3 0 .388 0 .667-.343.129-.172.343-.453.475-.453.149 0 1.548.8 1.548 1.14 0 .132-.085.216-.366.517a.513.513 0 0 0-.172.453v4.9c0 .582.085 3.207.085 3.744 0 .754-.794.9-1.117.9-.259 0-.3-.172-.366-.43-.087-.366-.388-.366-.582-.366zm-.042-6.3c-.667 0-.667.386-.667.687 0 1.893 0 1.958.687 1.958h5.229c.667 0 .667-.172.667-1.677 0-.647 0-.968-.647-.968zm5.249-.56c.667 0 .667-.216.667-1.4 0-.99 0-1.227-.667-1.227h-5.249a.668.668 0 0 0-.515.149c-.132.152-.132.281-.132 1.505 0 .689 0 .97.647.97zm-.042 6.3c.687 0 .687-.214.687-1.483 0-.776 0-1.032-.687-1.032h-5.142c-.647 0-.689.256-.689.816 0 1.528 0 1.7.709 1.7zm-1.55 1.033c.537 0 4.991 1.184 4.991 3.077a1.018 1.018 0 0 1-.839.968c-.366 0-.453-.107-1.313-1.247a8.2 8.2 0 0 0-2.386-2.411 3.611 3.611 0 0 1-.517-.279c-.044-.045-.024-.11.063-.11z"/><path data-name="パス 52" d="M460.076 234.444c-.486 0-.62-.178-1.5-1.34a8.045 8.045 0 0 0-2.321-2.35 2.237 2.237 0 0 0-.154-.076c-.279-.134-.41-.2-.457-.3a.292.292 0 0 1-.018-.254.31.31 0 0 1 .3-.185 9.547 9.547 0 0 1 2.123.578 1.181 1.181 0 0 1-.154-.395c-.038-.165-.118-.192-.357-.192h-5.227c-.094 0-.379 0-.428.132a1.292 1.292 0 0 1-1.229.9.749.749 0 0 1-.834-.812c0-.125.114-1.57.132-1.762.14-2.288.149-4.418.149-4.821v-.363a21.181 21.181 0 0 0-.169-3.327 3.911 3.911 0 0 0-.069-.435 3.957 3.957 0 0 1-.062-.419.4.4 0 0 1 .424-.381 3.1 3.1 0 0 1 1.122.515c.14.08.254.147.308.172a1.319 1.319 0 0 0 .464.065h.366c.207 0 .261 0 .426-.524a5.129 5.129 0 0 0 .225-1.374c0-.205-.007-.221-.263-.221h-.709c-.714 0-1.626.02-2.065.065-.054 0-.138.013-.221.022a4.51 4.51 0 0 1-.254.022.457.457 0 0 1-.379-.221l-.464-.56a.314.314 0 0 1-.1-.225.279.279 0 0 1 .319-.276c.08 0 .306.018.522.036.185.016.364.029.424.029 1.017.045 1.965.087 2.948.087h4.043c.894 0 .9-.009 1-.1a4.032 4.032 0 0 0 .306-.361c.473-.589.7-.847.934-.847.283 0 1.974 1.32 1.974 1.782 0 .553-.515.553-1.115.553h-4.215c-.33 0-.343 0-.979.923l-.036.053c-.047.067-.158.212-.29.386-.149.192-.413.535-.569.756h3.421c.268 0 .277 0 .486-.259.261-.346.444-.537.656-.537s1.78.841 1.78 1.371c0 .216-.114.339-.39.636l-.042.047c-.1.1-.1.132-.1.288v4.9c0 .3.022 1.12.045 1.929.02.783.04 1.55.04 1.815a1.2 1.2 0 0 1-1.273 1.133c1.3.562 2.587 1.414 2.587 2.524a1.236 1.236 0 0 1-1.081 1.198zm-3.207-3.845a9.225 9.225 0 0 1 2.081 2.228c.85 1.126.888 1.153 1.126 1.153a.8.8 0 0 0 .607-.736c-.001-1.253-2.4-2.24-3.814-2.64zm-6.6-11.48c.011.065.029.152.045.239a3.6 3.6 0 0 1 .071.484 21.117 21.117 0 0 1 .174 3.367v.355c0 .406-.009 2.549-.152 4.855-.027.315-.127 1.626-.129 1.728 0 .225.06.348.37.348a.829.829 0 0 0 .8-.607c.163-.426.689-.426.861-.426h5.227a.725.725 0 0 1 .807.544c.062.252.071.252.141.252.036 0 .885-.007.885-.671 0-.263-.02-1.026-.04-1.8-.022-.814-.045-1.646-.045-1.942v-4.9a.74.74 0 0 1 .241-.618 1.8 1.8 0 0 0 .3-.352 4.378 4.378 0 0 0-1.3-.894 1.975 1.975 0 0 0-.3.346.863.863 0 0 1-.852.437h-3.548c-.39 0-.448-.212-.448-.339s.033-.2.776-1.164c.127-.165.232-.3.276-.366l.036-.054c.64-.93.774-1.124 1.36-1.124h4.215a2.038 2.038 0 0 0 .649-.049 6.433 6.433 0 0 0-1.525-1.345c-.094.087-.4.471-.555.662a3.752 3.752 0 0 1-.35.406c-.23.232-.375.232-1.316.232H452.9c-.995 0-1.947-.042-2.955-.087-.058 0-.252-.016-.453-.031l-.114-.009.236.285a.246.246 0 0 0 .047.056c0-.013.085-.022.169-.031.107-.011.214-.022.25-.022.43-.045 1.363-.067 2.087-.067h.709c.339 0 .727.078.727.685a5.529 5.529 0 0 1-.247 1.514c-.207.664-.395.847-.867.847h-.366a1.786 1.786 0 0 1-.638-.1 5.967 5.967 0 0 1-.366-.2 7.616 7.616 0 0 0-.847-.444zm-3.492 15.218c-.276 0-.468-.15-.468-.361s.123-.254.578-.433c3.093-1.233 4.306-2.049 5.172-2.9.047-.056.268-.437.3-.5l.062-.074c.241-.2.335-.125 1.454.731l.17.129c.428.341.54.488.54.718 0 .464-.448.508-.807.542l-.111.011a12.93 12.93 0 0 0-1.2.491c-.236.1-.437.192-.529.228a25.68 25.68 0 0 1-5.158 1.418zm5.912-3.834a3.248 3.248 0 0 1-.305.473 13.907 13.907 0 0 1-4.8 2.788 36.245 36.245 0 0 0 4.193-1.276c.087-.033.279-.118.5-.216a5.691 5.691 0 0 1 1.365-.528l.089-.011a1.278 1.278 0 0 0 .392-.069c-.011-.042-.058-.118-.368-.366l-.163-.125c-.445-.344-.751-.576-.9-.669zm-10.9 2.843a.33.33 0 0 1-.361-.317c0-.2.3-.511.892-.941 2.478-1.947 4.659-4.614 4.659-5.192 0-.5.326-.533.426-.533a4.522 4.522 0 0 1 2.016 2c0 .339-.185.4-.8.607a4.512 4.512 0 0 1-.381.281c-5.115 3.61-6.13 4.096-6.451 4.096zm5.653-6.492v.042c0 .872-2.444 3.68-4.844 5.562l-.158.118c.765-.435 2.333-1.449 5.526-3.709.444-.314.448-.314.473-.328a4.188 4.188 0 0 0 .542-.2 7.507 7.507 0 0 0-1.539-1.484zm-.04-.027v-.232zm10.071 2.538h-5.122c-.941 0-.941-.408-.941-1.931 0-.6.069-1.048.921-1.048h5.142c.919 0 .919.5.919 1.264 0 1.254 0 1.716-.919 1.716zm-5.142-2.515c-.442 0-.457.058-.457.584 0 1.467 0 1.467.477 1.467h5.122c.455 0 .455 0 .455-1.251 0-.8-.007-.8-.455-.8zm-9.832.3a.311.311 0 0 1-.317-.319c0-.127.038-.23.847-1.03l.058-.058a21.821 21.821 0 0 0 3.08-3.97l.044-.107a1.5 1.5 0 0 1 .321-.571.5.5 0 0 1 .355-.112h.071l.058.04a19.231 19.231 0 0 1 1.791 1.322l.033.053v.065a.927.927 0 0 1 .022.172c0 .4-.2.471-.861.691a20.528 20.528 0 0 0-1.746 1.3c-.386.3-.72.566-.87.674a30.214 30.214 0 0 1-2.887 1.852zm4.326-5.7a4.242 4.242 0 0 0-.183.393 7.959 7.959 0 0 1-.06.141 22.07 22.07 0 0 1-3.153 4.072l-.029.029c.564-.37 1.251-.834 1.722-1.166.147-.1.473-.363.85-.658a12.416 12.416 0 0 1 1.884-1.376 2.923 2.923 0 0 0 .551-.212.793.793 0 0 0-.013-.1v-.011a62.435 62.435 0 0 0-1.569-1.106zm10.691 4.813h-5.229c-.919 0-.919-.292-.919-2.19a.791.791 0 0 1 .9-.919h5.27c.879 0 .879.582.879 1.2-.003 1.511-.003 1.915-.901 1.915zm-5.25-2.645c-.435 0-.435.152-.435.455 0 1.726 0 1.726.455 1.726h5.229c.435 0 .435 0 .435-1.445 0-.7-.024-.736-.415-.736zm5.25-.56h-5.25c-.879 0-.879-.531-.879-1.2 0-1.3 0-1.441.187-1.657a.885.885 0 0 1 .691-.23h5.25c.9 0 .9.486.9 1.458-.001 1.191-.001 1.635-.899 1.635zm-5.25-2.625c-.167 0-.274 0-.352.082-.06.069-.062.274-.062 1.34 0 .716.013.738.415.738h5.25c.435 0 .435 0 .435-1.166 0-.995 0-.995-.435-.995zm-10 1.226a.291.291 0 0 1-.317-.3 5.81 5.81 0 0 1 1.1-1.285 14.644 14.644 0 0 0 2.458-3.706l.022-.12a1.57 1.57 0 0 1 .138-.526.491.491 0 0 1 .363-.167c.074 0 .147 0 1.813.934a.493.493 0 0 1 .247.439c0 .326-.243.446-.58.616a13.971 13.971 0 0 0-1.5 1.4c-.268.272-.493.5-.6.591a9.545 9.545 0 0 1-3.148 2.131zm3.776-5.615c-.02.089-.042.221-.056.29s-.024.129-.029.156a15.114 15.114 0 0 1-2.575 3.914c-.047.045-.2.212-.381.4a13.633 13.633 0 0 0 2.094-1.61c.109-.094.323-.312.582-.573a11.342 11.342 0 0 1 1.619-1.485 1.612 1.612 0 0 0 .33-.192 24.844 24.844 0 0 0-1.588-.893z"/></g></g></g></svg>