<svg xmlns="http://www.w3.org/2000/svg" width="679.829" height="127.82"><path data-name="パス 798" d="M90.223 19.37Q83.083.5 48.233.5q-19.89 0-30.43 8.16T7.263 32.8v.68q0 20.23 23.63 29.07 44.71 12.07 44.71 31.28 0 19.55-30.26 19.55-21.42 0-30.94-14.62l-13.77 3.91q7.82 24.48 44.88 24.48 47.09 0 47.09-34.51 0-24.82-41.31-40.12-27.88-7.82-27.88-21.25a14.21 14.21 0 0 1 6.97-12.75q6.97-4.42 19.55-4.42 23.8 0 26.69 10.71zm115.6 73.44l11.56 32.47h18.87L189.163 1.52h-15.3l-48.96 123.76h18.36l11.56-32.47zm-23.8-74.29l19.21 59.33h-42.33zm187.34 90.78a35.142 35.142 0 0 0 5.44-18.36V.67h-16.15v89.59q0 7.99-3.23 12.75-7.65 11.56-28.05 11.56-20.57 0-30.6-12.07-2.55-3.06-2.55-11.73V.67h-16.32V90.6a35.171 35.171 0 0 0 5.44 19.38q11.39 17.34 41.82 17.34h1.87q31.45 0 42.33-18.02zM514.203 1.52v98.43l-79.9-98.43h-14.45v123.76h15.64V27.02l79.22 97.75h15.64V1.52zm134.47 91.29l11.56 32.47h18.87L632.013 1.52h-15.3l-48.96 123.76h18.36l11.56-32.47zm-23.8-74.29l19.21 59.33h-42.33z" fill="none" stroke="#959595"/></svg>