<svg xmlns="http://www.w3.org/2000/svg" width="575.94" height="126.63"><path data-name="パス 799" d="M93.15 36.71q0-12.58-6.46-20.06Q73.77 2.54 54.05 1.69q-1.53-.17-9.18-.17H.5v123.76h15.81V74.45q25.5 0 28.73-.17l32.98 51.34H99.1L59.15 73.26q20.91-2.89 27.2-14.11 6.8-10.88 6.8-20.74zM16.31 61.53V14.44H49.8q17.85 0 23.46 9.52 3.06 4.93 3.06 14.28T73.43 51.5q-7.48 10.03-25.84 10.03zM162 .5h-15.3v125.29H162zm42.33 1.02l48.62 124.61h12.92L313.13 1.52h-17.17l-36.72 104.89L220.82 1.52zm234.6 123.25v-13.26h-70.55V66.12h56.44V52.86h-56.44V15.63h68.68V2.37h-84.83v122.4zm130.05-88.06q0-12.58-6.46-20.06Q549.6 2.54 529.88 1.69q-1.53-.17-9.18-.17h-44.37v123.76h15.81V74.45q25.5 0 28.73-.17l32.98 51.34h21.08l-39.95-52.36q20.91-2.89 27.2-14.11 6.8-10.88 6.8-20.74zm-76.84 24.82V14.44h33.49q17.85 0 23.46 9.52 3.06 4.93 3.06 14.28t-2.89 13.26q-7.48 10.03-25.84 10.03z" fill="none" stroke="#959595"/></svg>