<svg xmlns="http://www.w3.org/2000/svg" width="150.602" height="27.489"><g data-name="グループ 1547"><g data-name="グループ 1547" fill="#1a1311"><path data-name="パス 257" d="M148.4 23.082h-28.388a2.207 2.207 0 0 0-2.2 2.2 2.206 2.206 0 0 0 2.2 2.2H148.4a2.206 2.206 0 0 0 2.2-2.2 2.207 2.207 0 0 0-2.2-2.2z"/><path data-name="パス 258" d="M127.446 19.436a2.2 2.2 0 0 1-1.934-1.144 2.2 2.2 0 0 1 .87-2.992c.1-.071 1.547-1.181.053-4.882-2.981-7.383.76-9.719 1.2-9.961a2.2 2.2 0 0 1 2.994.859 2.205 2.205 0 0 1-.681 2.886c-.256.308-.6 1.65.573 4.565 3.034 7.515-1.809 10.281-2.016 10.4a2.187 2.187 0 0 1-1.059.269zm2.336-15.132l-.013.007zm0 0z"/><path data-name="パス 259" d="M138.207 19.255a2.2 2.2 0 0 1-1.932-1.141 2.2 2.2 0 0 1 .87-2.992c.095-.073 1.547-1.183.053-4.885-2.981-7.381.76-9.719 1.2-9.961a2.206 2.206 0 0 1 3 .859 2.2 2.2 0 0 1-.679 2.886c-.258.308-.606 1.65.571 4.565 3.034 7.515-1.809 10.283-2.016 10.4a2.193 2.193 0 0 1-1.067.269zm2.333-15.128h-.007zm0 0zm0 0z"/></g><g data-name="グループ 1548" fill="#1a1311"><path data-name="パス 260" d="M68.823 14.224a2.139 2.139 0 0 1-2.059-2.057c-.023-.529.027-5.212 8.935-6.63 5.278-.841 5.406-3.384 5.408-3.491A2.092 2.092 0 0 1 83.139.001h.025a2.022 2.022 0 0 1 2.051 1.914c.01.255.2 6.241-8.872 7.685-4.239.675-5.391 2.082-5.478 2.567a1.976 1.976 0 0 1-1.962 2.055c-.023.002-.051.002-.08.002z"/><path data-name="パス 261" d="M84.04 15.456a2.139 2.139 0 0 1-2.059-2.057c-.023-.531.027-5.212 8.935-6.632 5.274-.839 5.4-3.382 5.406-3.489a2.1 2.1 0 0 1 2.034-2.045h.025a2.021 2.021 0 0 1 2.053 1.915c.012.255.2 6.241-8.872 7.685-4.237.673-5.389 2.082-5.476 2.567a1.977 1.977 0 0 1-1.962 2.055l-.084.001z"/><path data-name="パス 262" d="M81.522 26.788a2.141 2.141 0 0 1-2.061-2.057c-.023-.531.029-5.214 8.935-6.632 5.278-.839 5.406-3.384 5.408-3.491a2.1 2.1 0 0 1 2.034-2.045h.025a2.02 2.02 0 0 1 2.053 1.915c.012.253.2 6.241-8.872 7.685-4.237.673-5.391 2.082-5.478 2.567a1.976 1.976 0 0 1-1.962 2.055c-.026.003-.055.003-.082.003z"/></g><path data-name="パス 263" d="M38.366 11.679a10.886 10.886 0 0 0-3.062.444C31.62 6.396 25.793 3 19.584 3 9.02 3 .419 12.56.002 24.763a2.107 2.107 0 0 0 2.1 2.183h47.237a2.105 2.105 0 0 0 2.067-2.507c-1.46-7.512-6.823-12.76-13.04-12.76zM4.389 22.736c1.177-8.918 7.573-15.526 15.2-15.526 5.254 0 10.1 3.182 12.954 8.51a2.1 2.1 0 0 0 2.774.9c4.382-2.123 9.232.747 11.253 6.115z"/></g></svg>