<svg version="1.1" id="レイヤー_1" xmlns="http://www.w3.org/2000/svg" x="0" y="0" viewBox="0 0 2126 131.9" xml:space="preserve"><style>.st1{fill:none;stroke:#fff}</style><g id="グループ_28" transform="rotate(180 1447.36 -50.72)" opacity=".16"><path id="パス_186" class="st1" d="M911.4-195.1c1.1-4.4 1.8-8.9 2.1-13.4.2-2.7.2-5.4 0-8.1 0-.9-.1-1.7-.3-2.6-.3-1.5-.3-3.1-.2-4.6.1-.6.7-1 1.3-1 1.5.4 2.9 1 4.1 1.9 1.8 1.1 3.5 2.3 5.1 3.5 1 .8 2 1.5 3.1 2.3 1.8 1.3 3.8 2.4 5.8 3.4.9.4 1.7.8 2.6 1.1-1.2.4-2.6.4-3.8.1-.9-.2-1.7-.4-2.6-.8-1.3-.5-2.6-.9-4-1.1-2.3-.1-4.6.6-6.6 1.9-1.2.7-2 2-2 3.4 0 1.5.8 2.9 2.2 3.7 1.2.7 2.7.7 3.9-.1.6-.4 1.3-.7 2-.8.7.1 1.4.3 2 .6.7.3 1.4.6 2.2.8 4.5 1.1 8.4.7 11.5-1.2 2-1.2 5.4-4.4 5.7-7.7.2-1.6-.5-3.2-1.7-4.3-.9-.7-2-1.2-3.1-1.4-.8-.2-1.6-.5-2.4-.8-1.3-.5-2.5-1.1-3.7-1.7-2.1-1.2-4.2-2.6-6.1-4.2-2.2-1.7-4.5-3.3-6.9-4.6-2.1-1.1-7-3.7-11.7-1.1-1.9 1.1-3.4 2.7-4.2 4.8-.7 2.3-.9 4.6-.5 7 .9 8 .3 16-1.8 23.8-.2.2-.4.4-.5.6l-40.5 64.4c-1 1.5-1 3.4-.1 5s2.5 2.5 4.3 2.5H893c2.7 0 4.9-2.2 4.9-4.9l.1-22 17.2.1v21.9c0 2.7 2.2 4.9 4.9 4.9h27.4c1.8 0 3.4-1 4.3-2.5.9-1.6.8-3.5-.1-5l-40.3-63.8zm11.9 63.3v-18.6c0-4.5-3.7-8.2-8.2-8.2H898c-4.5 0-8.2 3.7-8.2 8.2v18.6h-17.4l34.6-55.1 34.6 55.1h-18.3z"/><path id="パス_187" class="st1" d="M821.7-189.8h-8.5c-1.1 0-2 .9-2 2v24.2h-30v-24.2c0-1.1-.9-2-2-2h-8.5c-1.1 0-2 .9-2 2v62.6c0 1.1.9 2 2 2h8.5c1.1 0 2-.9 2-2v-26.4h30v26.4c0 1.1.9 2 2 2h8.5c1.1 0 2-.9 2-2v-62.6c0-1.1-.9-2-2-2z"/><path id="パス_188" class="st1" d="M1032.8-159.1c4.6-2.9 7.1-7.5 7.1-13.7 0-14-12.5-17-23-17h-26.1c-1.1 0-2 .9-2 2v62.4c0 1.1.9 2 2 2h23.6c19.3 0 29.1-6.4 29.1-19 0-8.1-3.6-13.8-10.7-16.7zm-17.9 24.2h-14.2v-17.2h16.7c11.6 0 13 4.9 13 8.5 0 2.2 0 8.7-15.5 8.7zm8.5-30.4c-2.2 1.2-4.7 1.8-7.2 1.7h-15.4v-14.7h18.3c2.2-.1 4.5.6 6.2 2 1.4 1.2 2.1 2.9 2.1 4.7 0 2.7-1.3 4.7-4 6.3z"/><path id="長方形_4" class="st1" d="M1081.4-189.8h12.1c.2 0 .3.1.3.3v66c0 .2-.1.3-.3.3h-12.1c-.2 0-.3-.1-.3-.3v-66c0-.1.1-.3.3-.3z"/><path id="パス_189" class="st1" d="M1183.6-135.2h-34.7v-52.6c0-1.1-.9-2-2-2h-8.8c-1.1 0-2 .9-2 2v62.6c0 1.1.9 2 2 2h45.5c1.1 0 2-.9 2-2v-8c0-1.1-.9-2-2-2z"/><path id="パス_190" class="st1" d="M1265.7-135.2h-37.2v-16.3h33.4c1.1 0 2-.9 2-2v-8.1c0-1.1-.9-2-2-2h-33.4v-14.1h36.4c1.1 0 2-.9 2-2v-8c0-1.1-.9-2-2-2H1218c-1.1 0-2 .9-2 2v62.6c0 1.1.9 2 2 2h47.7c1.1 0 2-.9 2-2v-8c0-1.2-.9-2.1-2-2.1z"/><path id="パス_191" class="st1" d="M1529.8-169.8c0-1.7-1.1-3.2-2.7-3.7-3.8-1.3-10.2-5.1-15.5-9.3-5.7-4.5-9.4-8.8-10.4-11.8 1.2-4.5 2-9.1 2.2-13.8.1-2.6.2-5.2 0-7.8 0-.8-.1-1.7-.3-2.5-.3-1.5-.3-3-.2-4.4.1-.6.6-1 1.2-1 1.4.3 2.8 1 4 1.8 1.7 1 3.3 2.2 4.9 3.4 1 .7 2 1.5 3 2.2 1.7 1.2 3.6 2.3 5.5 3.2.8.4 1.6.8 2.5 1.1-1.2.4-2.5.4-3.7.1-.8-.2-1.7-.4-2.5-.7-1.2-.5-2.5-.9-3.9-1-2.2-.1-4.5.5-6.3 1.8-1.8 1-2.5 3.3-1.4 5.2l.1.1c1 1.8 3.3 2.5 5.1 1.5l.1-.1c.6-.4 1.2-.7 1.9-.7.7.1 1.3.3 2 .6s1.4.6 2.1.7c4.3 1 8 .7 11-1.1 1.9-1.2 5.1-4.2 5.4-7.4.2-1.5-.5-3.1-1.7-4.1-.9-.7-1.9-1.1-3-1.3-.8-.2-1.5-.5-2.3-.7-1.2-.5-2.4-1-3.6-1.7-2-1.2-4-2.5-5.9-4-2.1-1.6-4.3-3.1-6.6-4.4-2-1.1-6.7-3.6-11.2-1.1-1.8 1-3.3 2.6-4 4.6-.7 2.2-.8 4.4-.5 6.7.9 8.1.2 16.2-2 24.1v.2c-1.6 6.9-18.2 19.1-26.2 21.8-1.6.5-2.7 2-2.7 3.7 0 20.6-14.8 41-15 41.2-.9 1.2-1 2.8-.3 4.1.7 1.3 2 2.1 3.5 2.1h29.2c2.2 0 3.9-1.7 3.9-3.9V-143c0-6.3 5.1-11.3 11.4-11.4 6.3 0 11.3 5.1 11.4 11.4v16.7c0 2.2 1.7 3.9 3.9 3.9h29.2c1.5 0 2.8-.8 3.5-2.1.7-1.3.5-2.9-.4-4.1.1-.2-14.7-20.6-14.7-41.2z"/><path id="パス_192" class="st1" d="M1849.7-152.3c7.1-1.9 14.3-6.5 14.3-17.7 0-7-2.9-12.2-8.5-15.5-3.7-2.1-8.4-3.2-14-3.2h-26.2c-1.1 0-1.9.9-1.9 1.9v60c0 1.1.9 1.9 1.9 1.9h8.1c1.1 0 1.9-.9 1.9-1.9v-24.1h11.7l16.6 25.1c.4.5 1 .9 1.6.9h10.6c.7 0 1.4-.4 1.7-1 .3-.6.3-1.4-.2-2l-17.6-24.4zm1.8-17.4c0 3.4-1.1 7.9-11 7.9h-15.1v-15.3h16.5c8.5 0 9.6 4 9.6 7.4z"/><path id="パス_193" class="st1" d="M1951.2-136.4h-35.6V-152h32c1.1 0 1.9-.9 1.9-1.9v-7.7c0-1.1-.9-1.9-1.9-1.9h-32V-177h34.8c1.1 0 1.9-.9 1.9-1.9v-7.7c0-1.1-.9-1.9-1.9-1.9h-44.9c-1.1 0-1.9.9-1.9 1.9v60c0 1.1.9 1.9 1.9 1.9h45.6c1.1 0 1.9-.9 1.9-1.9v-7.7c.1-1.2-.8-2.1-1.8-2.1z"/><path id="パス_194" class="st1" d="M2032.3-157.2c-3.5-2.2-8.8-3.8-16.3-4.8-9.6-1.3-13.3-2.6-14.7-3.4-.9-.5-2-1.5-2-4.3 0-2.9 1.3-5 4.1-6.6 2.8-1.5 5.9-2.2 9.1-2.1 10.2 0 11.4 5.1 11.4 8.9v1c0 1.1.9 1.9 1.9 1.9h8.6c.5 0 1-.2 1.4-.6.4-.4.6-.9.5-1.4-.6-17.3-13.4-20.9-24.1-20.9-5.5-.1-11 1.2-15.9 3.9-6.4 3.6-9.6 9-9.6 16.2 0 5.8 2.2 10.1 6.5 12.9 3.8 2.5 9.9 4.3 18.4 5.5 6.4.9 10.8 2 13 3.4 1.5 1 2.4 2.7 2.2 4.5 0 2 0 8.1-13.9 8.1-12.6 0-14-5.3-14-9.2v-.7c.1-.4.1-.8-.1-1.2-.3-.7-1-1.2-1.8-1.2h-8.5c-.5 0-1 .2-1.4.6-.4.4-.6.9-.5 1.4.3 5.1 1.2 8.9 2.8 11.6 4.1 6.8 11.7 10.2 22.6 10.2 7 0 12.9-1.3 17.4-3.9 6.2-3.5 9.3-9 9.3-16.2.3-6.2-2-10.7-6.4-13.6z"/><path id="パス_195" class="st1" d="M2284.5-152.3c7.1-1.9 14.4-6.5 14.4-17.7 0-7-2.9-12.2-8.5-15.5-3.7-2.1-8.4-3.2-14-3.2h-26.2c-1.1 0-1.9.9-1.9 1.9v60c0 1.1.9 1.9 1.9 1.9h8.1c1.1 0 1.9-.9 1.9-1.9v-24.1h11.7l16.6 25.1c.4.5 1 .9 1.6.9h10.6c.7 0 1.4-.4 1.7-1 .3-.6.3-1.4-.2-2l-17.7-24.4zm1.8-17.4c0 3.4-1.1 7.9-11 7.9h-15.1v-15.3h16.5c8.5 0 9.6 4 9.6 7.4z"/><path id="パス_196" class="st1" d="M2381.9-188.7h-48.8c-1.1 0-1.9.9-1.9 1.9v7.7c0 1.1.9 1.9 1.9 1.9h18.7v50.1c0 1.1.9 1.9 1.9 1.9h8.1c1.1 0 1.9-.9 1.9-1.9v-49.7h18.2c1.1 0 1.9-.9 1.9-1.9v-8.1c0-1-.8-1.9-1.9-1.9z"/><path id="パス_197" class="st1" d="M1421.1-148.4h-8.6c-.9 0-1.7.7-1.9 1.6-1.5 8.7-6.3 12.8-14.9 12.8-11.9 0-17.7-7-17.7-21.5 0-7.4 1.7-13 5-16.8 3.1-3.6 7.7-5.5 12.4-5.4 7.8 0 12.1 3.7 13.5 11.6.2.9 1 1.6 1.9 1.6h9.2c.6 0 1.1-.3 1.5-.7.4-.4.5-1 .4-1.6-2.8-14.6-11.7-22-26.5-22-8.1 0-14.9 2.4-20.2 7-6.5 5.8-9.8 14.7-9.8 26.4 0 10 2.6 18 7.6 23.6 5.1 5.8 12.6 8.8 22.3 8.8 16.3 0 25.6-7.8 27.7-23.3.1-.6-.1-1.1-.5-1.5-.3-.4-.8-.6-1.4-.6z"/><path id="パス_198" class="st1" d="M1638.1-187.9h-11.7c-.8 0-1.5.5-1.8 1.3l-16.8 45.3-16.3-45.2c-.3-.8-1-1.3-1.8-1.3h-12c-1.1 0-1.9.9-1.9 1.9v60c0 1.1.9 1.9 1.9 1.9h8.1c1.1 0 1.9-.9 1.9-1.9v-38.2l14.1 38.9c.3.8 1 1.3 1.8 1.3h8.1c.8 0 1.5-.5 1.8-1.3l14.7-39.4v38.7c0 1.1.9 1.9 1.9 1.9h8.1c1.1 0 1.9-.9 1.9-1.9v-60c-.1-1.1-1-2-2-2z"/><path id="パス_199" class="st1" d="M1708.5-187.9h-25.4c-1.1 0-1.9.9-1.9 1.9v60c0 1.1.9 1.9 1.9 1.9h7.6c1.1 0 1.9-.9 1.9-1.9v-21.7h15.5c6.9 0 12.5-1.8 16.4-5.3 4.1-3.6 6.1-8.5 6.1-14.6.2-5-1.6-9.8-4.9-13.6-3.9-4.5-9.7-6.7-17.2-6.7zm-15.8 11.6h14.8c5 0 10.6 1 10.6 8.4 0 3.7-1.3 8.6-12.3 8.6h-13.2l.1-17z"/><path id="パス_200" class="st1" d="M2513.9-188.5h-8.1c-1.1 0-1.9.9-1.9 1.9v41.6l-26.8-42.6c-.4-.6-1-.9-1.6-.9h-10.8c-1.1 0-1.9.9-1.9 1.9v60c0 1.1.9 1.9 1.9 1.9h8.1c1.1 0 1.9-.9 1.9-1.9v-43.3l28.2 44.4c.4.6 1 .9 1.6.9h9.4c1.1 0 1.9-.9 1.9-1.9v-60c0-1.1-.8-2-1.9-2z"/><path id="パス_201" class="st1" d="M2710.8-157c-3.5-2.2-8.8-3.8-16.3-4.8-9.6-1.3-13.3-2.6-14.7-3.4-.9-.5-2-1.5-2-4.3 0-2.9 1.3-5 4.1-6.6 2.8-1.5 5.9-2.2 9.1-2.1 10.2 0 11.4 5.1 11.4 8.9v1c0 1.1.9 1.9 1.9 1.9h8.6c.5 0 1-.2 1.4-.6.4-.4.6-.9.5-1.4-.6-17.3-13.4-20.9-24.1-20.9-5.5-.1-11 1.2-15.9 3.9-6.4 3.6-9.6 9-9.6 16.2 0 5.8 2.2 10.1 6.5 12.9 3.8 2.5 9.9 4.3 18.4 5.5 6.4.9 10.8 2 13 3.4 1.5 1 2.4 2.7 2.2 4.5 0 2 0 8.1-13.9 8.1-12.6 0-14-5.3-14-9.2v-.7c.1-.4.1-.8-.1-1.2-.3-.7-1-1.2-1.8-1.2h-8.5c-.5 0-1 .2-1.4.6-.4.4-.6.9-.5 1.4.3 5.1 1.2 8.9 2.8 11.6 4.1 6.8 11.7 10.2 22.6 10.2 7 0 12.9-1.3 17.5-3.9 6.2-3.5 9.3-9 9.3-16.2.2-6.2-2.1-10.7-6.5-13.6z"/><path id="パス_202" class="st1" d="M2801.5-188.5h-8.1c-1.1 0-1.9.9-1.9 1.9v36.3c0 5.5-1 9.4-3 11.7-2 2.3-6 3.5-11.7 3.5-6 0-9.9-1.6-11.8-5.1-1.6-2.6-2.3-6.9-2.3-12.7v-33.7c0-1.1-.9-1.9-1.9-1.9h-8.1c-1.1 0-1.9.9-1.9 1.9v35.5c0 9 2 15.8 6 20.3 4.2 4.7 10.9 7.1 20.1 7.1 17.5 0 26.8-8.6 26.8-25v-38c-.3-.9-1.1-1.8-2.2-1.8z"/><path id="パス_203" class="st1" d="M2619.2-212.7c-1-3.1-3.9-5.2-7.1-5.3-3.1 0-5.8 2.1-7.1 5.4l-17.1 46.7-10.8-27.9c-1-3.1-3.9-5.2-7.1-5.3-3.1 0-5.8 2.1-7.1 5.4l-19.1 52.1c-1.2 3.2-.7 6.7 1.1 9.5 1.3 2 3.6 3.2 6 3.3h14.7c0 .2.1.4.1.6v21.9c0 2.4 1.9 4.3 4.3 4.3s4.3-1.9 4.3-4.3v-21.9c0-5.1-3.4-9.1-7.8-9.1h-14.7c-.1-.4-.1-.9 0-1.3l18.2-49.7 19.3 49.7c.2.4.2.9.1 1.3h-7.5c-2.4 0-4.3 1.9-4.3 4.3s1.9 4.3 4.3 4.3h8.4c2.4 0 4.7-1.3 6-3.3 1.9-2.9 2.2-6.4 1-9.6l-2.3-5.9h12.7c0 .2.1.4.1.6v21.9c0 2.4 1.9 4.3 4.3 4.3s4.3-1.9 4.3-4.3v-22c0-4.8-3-8.6-7-9l18.6-10.2 3.4 8.8c.2.4.2.9.1 1.3h-7.5c-2.4 0-4.3 1.9-4.3 4.3s1.9 4.3 4.3 4.3h8.4c2.4 0 4.7-1.3 6-3.3 1.9-2.9 2.2-6.4 1-9.6l-20.2-52.3zm-7.1 5.6l3.3 8.4-8 4.4 4.7-12.8zm-8.8 24l14.9-8.2 1.9 5-19.6 10.8 2.8-7.6zm-9.4 26.5c-.1-.3 0-.6 0-.9l2.5-6.9L2623-179l2 5.3-31.1 17.1z"/><path id="パス_204" class="st1" d="M2177.8-166.2c-2.9 0-5.7.4-8.4 1.2-10.1-15.8-26.2-25.1-43.2-25.1-29.1 0-52.7 26.3-53.9 59.9-.1 1.6.5 3.1 1.6 4.2s2.6 1.8 4.2 1.8H2208c1.7 0 3.4-.8 4.5-2.1s1.5-3.1 1.2-4.8c-4.1-20.6-18.8-35.1-35.9-35.1zm-93.5 30.4c3.2-24.5 20.8-42.7 41.8-42.7 14.5 0 27.8 8.8 35.6 23.4 1.5 2.7 4.8 3.8 7.6 2.5 12.1-5.8 25.4 2.1 31 16.8h-116z"/></g></svg>