<svg xmlns="http://www.w3.org/2000/svg" width="9.877" height="9.876"><path data-name="パス 266" d="M2.689 9.361a.788.788 0 0 0 .175.015h.007a.926.926 0 0 0 .431-.115l1.3-.713a.883.883 0 0 1 .82-.015l1.324.668a.934.934 0 0 0 1.339-1.008l-.276-1.458a.879.879 0 0 1 .24-.783l1.042-1.053a.923.923 0 0 0 .222-.961.909.909 0 0 0-.767-.625l-1.471-.188a.9.9 0 0 1-.648-.421l-.706-1.693a.927.927 0 0 0-.849-.509.953.953 0 0 0-.852.593l-.606 1.617a.882.882 0 0 1-.651.489L1.3 3.439a.935.935 0 0 0-.491 1.6L1.89 6.055a.881.881 0 0 1 .266.775l-.225 1.465a.928.928 0 0 0 .389.909.91.91 0 0 0 .369.157zm.22-4.39l-.258-.241.35-.057a2.383 2.383 0 0 0 1.786-1.385l.126-.337.164.389a2.359 2.359 0 0 0 1.808 1.266l.348.044-.248.251a2.373 2.373 0 0 0-.645 2.113l.066.345L6.09 7.2a2.372 2.372 0 0 0-2.209.039l-.308.17.053-.35a2.374 2.374 0 0 0-.717-2.088z" fill="#fff" stroke="rgba(0,0,0,0)"/></svg>