<svg data-name="グループ 1569" xmlns="http://www.w3.org/2000/svg" width="109.739" height="91.987"><path data-name="パス 257" d="M102.366 77.241H7.373A7.385 7.385 0 0 0 0 84.614a7.38 7.38 0 0 0 7.373 7.373h94.993a7.38 7.38 0 0 0 7.373-7.373 7.385 7.385 0 0 0-7.373-7.373z"/><path data-name="パス 258" d="M32.252 65.038a7.376 7.376 0 0 1-3.561-13.839c.324-.236 5.176-3.952.177-16.339-9.976-24.707 2.544-32.522 4.011-33.333a7.371 7.371 0 0 1 10.02 2.875 7.38 7.38 0 0 1-2.278 9.659c-.855 1.032-2.02 5.522 1.917 15.277 10.152 25.149-6.053 34.4-6.746 34.786a7.319 7.319 0 0 1-3.54.914zM40.067 14.4l-.044.022zm.007 0z"/><path data-name="パス 259" d="M68.266 64.434a7.37 7.37 0 0 1-3.554-13.832c.317-.241 5.178-3.959.178-16.341-9.976-24.7 2.544-32.522 4-33.333a7.382 7.382 0 0 1 10.027 2.875 7.371 7.371 0 0 1-2.271 9.659c-.863 1.032-2.027 5.522 1.91 15.277 10.153 25.149-6.053 34.41-6.746 34.793a7.337 7.337 0 0 1-3.544.902zm7.808-50.623l-.022.007zm.007-.007zm.007-.007l-.007.007z"/></svg>