<svg data-name="グループ 1570" xmlns="http://www.w3.org/2000/svg" width="129.79" height="103.248"><path data-name="パス 260" d="M7.943 54.823a8.246 8.246 0 0 1-7.936-7.928c-.087-2.038.1-20.09 34.44-25.552C54.79 18.1 55.282 8.301 55.29 7.889A8.061 8.061 0 0 1 63.123.008l.1-.008a7.793 7.793 0 0 1 7.92 7.381c.04.983.761 24.054-34.194 29.619-16.34 2.6-20.779 8.023-21.112 9.894a7.616 7.616 0 0 1-7.564 7.92c-.108.009-.22.009-.33.009z"/><path data-name="パス 261" d="M66.595 59.572a8.246 8.246 0 0 1-7.936-7.928c-.087-2.045.1-20.09 34.44-25.56 20.328-3.235 20.827-13.034 20.835-13.446a8.074 8.074 0 0 1 7.841-7.881l.095-.008a7.791 7.791 0 0 1 7.912 7.381c.048.983.761 24.054-34.194 29.619-16.332 2.593-20.772 8.023-21.1 9.894a7.62 7.62 0 0 1-7.563 7.92c-.108.009-.218.009-.33.009z"/><path data-name="パス 262" d="M56.891 103.248a8.253 8.253 0 0 1-7.944-7.928c-.087-2.045.111-20.1 34.44-25.56 20.343-3.235 20.833-13.042 20.843-13.454a8.074 8.074 0 0 1 7.841-7.881h.1a7.785 7.785 0 0 1 7.912 7.381c.048.975.761 24.054-34.194 29.619-16.332 2.593-20.779 8.023-21.112 9.894a7.616 7.616 0 0 1-7.564 7.92c-.108.009-.219.009-.322.009z"/></svg>