<svg xmlns="http://www.w3.org/2000/svg" width="8.994" height="9.018"><path data-name="パス 207" d="M2.213 9.003a.8.8 0 0 0 .178.015h.007a.94.94 0 0 0 .438-.117l1.32-.724a.9.9 0 0 1 .833-.015l1.345.678a.949.949 0 0 0 1.36-1.024l-.28-1.482a.893.893 0 0 1 .244-.8l1.059-1.07a.938.938 0 0 0 .226-.976.924.924 0 0 0-.779-.635l-1.495-.191a.913.913 0 0 1-.659-.428L5.292.513a.942.942 0 0 0-.863-.517.968.968 0 0 0-.866.6l-.616 1.643a.9.9 0 0 1-.662.5l-1.487.242a.95.95 0 0 0-.5 1.63l1.1 1.032a.9.9 0 0 1 .27.787l-.229 1.488a.943.943 0 0 0 .4.924.924.924 0 0 0 .374.161zm.224-4.46l-.262-.245.356-.058a2.421 2.421 0 0 0 1.814-1.408l.128-.342.166.4a2.4 2.4 0 0 0 1.837 1.286l.354.044-.252.255a2.411 2.411 0 0 0-.655 2.147l.068.351-.321-.161a2.41 2.41 0 0 0-2.244.039l-.313.173.054-.356a2.412 2.412 0 0 0-.73-2.125z" fill="#d3d3d3"/></svg>