<svg xmlns="http://www.w3.org/2000/svg" width="1159.55" height="127.649"><path data-name="パス 801" d="M15.8.5H.5v125.29h15.3zm141.78 1.02v98.43L77.68 1.52H63.23v123.76h15.64V27.02l79.22 97.75h15.64V1.52zm141.44 17.85Q291.88.5 257.03.5q-19.89 0-30.43 8.16T216.06 32.8v.68q0 20.23 23.63 29.07 44.71 12.07 44.71 31.28 0 19.55-30.26 19.55-21.42 0-30.94-14.62l-13.77 3.91q7.82 24.48 44.88 24.48 47.09 0 47.09-34.51 0-24.82-41.31-40.12-27.88-7.82-27.88-21.25a14.21 14.21 0 0 1 6.97-12.75q6.97-4.42 19.55-4.42 23.8 0 26.69 10.71zm32.13-4.59h40.8v110.5h16.32V14.78h40.63V1.52h-97.75zm210.12 78.03l11.56 32.47h18.87L524.61 1.52h-15.3l-48.96 123.76h18.36l11.56-32.47zm-23.8-74.29l19.21 59.33h-42.33zm195.5 99.96V59.83h-47.43v12.41h31.62v35.7a59.522 59.522 0 0 1-22.61 4.42q-50.49 0-50.49-49.3 0-48.45 51-48.45 27.2 0 33.66 10.03l1.7-15.81q-12.92-7.82-35.36-7.82-67.32 0-67.66 63.75 0 62.05 67.32 62.05 19.38 0 34.68-6.8zm133.28-81.77q0-12.58-6.46-20.06-12.92-14.11-32.64-14.96-1.53-.17-9.18-.17H753.6v123.76h15.81V74.45q25.5 0 28.73-.17l32.98 51.34h21.08l-39.95-52.36q20.91-2.89 27.2-14.11 6.8-10.88 6.8-20.74zm-76.84 24.82V14.44h33.49q17.85 0 23.46 9.52 3.06 4.93 3.06 14.28t-2.89 13.26q-7.48 10.03-25.84 10.03zm201.11 31.28l11.56 32.47h18.87L953.86 1.52h-15.3L889.6 125.28h18.36l11.56-32.47zm-23.8-74.29l19.21 59.33H923.6zm107.27 10.71l37.74 91.29h14.96l36.04-91.29v96.05h16.32V1.52h-19.38l-40.63 101.32-41.31-101.32h-19.38v123.76h15.64z" fill="none" stroke="#d3d3d3"/></svg>