<svg xmlns="http://www.w3.org/2000/svg" width="348.11" height="109.011"><g data-name="グループ 1545" fill="#f4f4f4"><path data-name="パス 6" d="M330.29 22.162a2.585 2.585 0 0 0 .438.037h.016a2.331 2.331 0 0 0 1.078-.288l3.251-1.783a2.214 2.214 0 0 1 2.047-.032l3.315 1.666a2.335 2.335 0 0 0 3.348-2.521l-.689-3.648a2.2 2.2 0 0 1 .6-1.958L346.3 11a2.309 2.309 0 0 0 .555-2.4 2.28 2.28 0 0 0-1.917-1.564l-3.68-.466a2.262 2.262 0 0 1-1.621-1.054l-1.767-4.235a2.311 2.311 0 0 0-2.124-1.273 2.379 2.379 0 0 0-2.132 1.479l-1.516 4.045a2.195 2.195 0 0 1-1.629 1.224l-3.66.6a2.336 2.336 0 0 0-1.228 4.008l2.7 2.545a2.2 2.2 0 0 1 .665 1.933l-.563 3.664a2.349 2.349 0 0 0 1.9 2.663zm.551-10.984l-.644-.6.872-.142a5.97 5.97 0 0 0 4.47-3.461l.316-.843.405.969a5.929 5.929 0 0 0 4.527 3.17l.871.109-.62.628a5.928 5.928 0 0 0-1.613 5.281l.166.863-.79-.393a5.929 5.929 0 0 0-5.528.1l-.766.421.134-.871a5.944 5.944 0 0 0-1.8-5.23z"/><path data-name="パス 7" d="M331.417 90.841a2.6 2.6 0 0 0 .438.037h.016a2.42 2.42 0 0 0 1.078-.288l3.254-1.787a2.214 2.214 0 0 1 2.047-.032l3.311 1.67a2.338 2.338 0 0 0 3.348-2.525l-.689-3.648a2.2 2.2 0 0 1 .6-1.958l2.606-2.63a2.316 2.316 0 0 0 .555-2.407 2.27 2.27 0 0 0-1.917-1.561l-3.68-.47a2.27 2.27 0 0 1-1.621-1.054l-1.767-4.235a2.309 2.309 0 0 0-2.124-1.273 2.378 2.378 0 0 0-2.132 1.479l-1.516 4.049a2.191 2.191 0 0 1-1.629 1.22l-3.66.6a2.336 2.336 0 0 0-1.228 4.008l2.7 2.545a2.2 2.2 0 0 1 .665 1.933l-.563 3.664a2.348 2.348 0 0 0 1.905 2.663zm.551-10.984l-.644-.6.875-.142a5.964 5.964 0 0 0 4.466-3.461l.316-.843.409.969a5.906 5.906 0 0 0 4.523 3.17l.871.109-.62.628a5.928 5.928 0 0 0-1.613 5.281l.166.867-.79-.4a5.921 5.921 0 0 0-5.524.1l-.77.421.134-.871a5.945 5.945 0 0 0-1.799-5.227z"/><path data-name="パス 8" d="M234.386 108.974a2.573 2.573 0 0 0 .434.036h.016a2.4 2.4 0 0 0 1.078-.288l3.255-1.787a2.214 2.214 0 0 1 2.047-.032l3.311 1.67a2.348 2.348 0 0 0 2.46-.223 2.323 2.323 0 0 0 .892-2.3l-.689-3.648a2.189 2.189 0 0 1 .6-1.958l2.61-2.63a2.333 2.333 0 0 0 .555-2.407 2.275 2.275 0 0 0-1.917-1.56l-3.684-.47a2.259 2.259 0 0 1-1.621-1.054l-1.767-4.236a2.306 2.306 0 0 0-2.124-1.273 2.388 2.388 0 0 0-2.132 1.479l-1.512 4.049a2.2 2.2 0 0 1-1.629 1.22l-3.66.6a2.339 2.339 0 0 0-1.232 4.008l2.7 2.545a2.184 2.184 0 0 1 .665 1.933l-.559 3.664a2.328 2.328 0 0 0 .969 2.278 2.4 2.4 0 0 0 .934.384zm.547-10.984l-.641-.6.872-.146a5.969 5.969 0 0 0 4.471-3.461l.316-.843.405.969a5.919 5.919 0 0 0 4.527 3.169l.871.109-.624.628a5.944 5.944 0 0 0-1.613 5.285l.166.863-.79-.4a5.921 5.921 0 0 0-5.524.1l-.77.422.138-.871a5.947 5.947 0 0 0-1.803-5.223z"/><path data-name="パス 9" d="M205.931 60.476a1.986 1.986 0 0 0 .438.036h.016a2.331 2.331 0 0 0 1.078-.288l3.251-1.783a2.2 2.2 0 0 1 2.047-.036l3.315 1.67a2.335 2.335 0 0 0 3.348-2.521l-.689-3.648a2.2 2.2 0 0 1 .6-1.958l2.606-2.634a2.31 2.31 0 0 0 .555-2.4 2.274 2.274 0 0 0-1.917-1.564l-3.68-.47a2.239 2.239 0 0 1-1.621-1.054l-1.767-4.235a2.318 2.318 0 0 0-2.124-1.273 2.383 2.383 0 0 0-2.132 1.483l-1.516 4.045a2.2 2.2 0 0 1-1.629 1.224l-3.66.6a2.34 2.34 0 0 0-1.228 4.012l2.7 2.541a2.2 2.2 0 0 1 .665 1.937l-.563 3.664a2.321 2.321 0 0 0 .973 2.274 2.248 2.248 0 0 0 .934.378zm.551-10.98l-.645-.6.872-.142a5.959 5.959 0 0 0 4.47-3.465l.316-.843.405.973a5.915 5.915 0 0 0 4.527 3.165l.871.109-.62.628a5.935 5.935 0 0 0-1.613 5.285l.166.863-.79-.4a5.94 5.94 0 0 0-5.528.1l-.766.425.134-.875a5.936 5.936 0 0 0-1.799-5.222z"/><path data-name="パス 10" d="M140.276 46.914a2.577 2.577 0 0 0 .438.037h.012a2.437 2.437 0 0 0 1.082-.288l3.25-1.787a2.214 2.214 0 0 1 2.047-.032l3.315 1.67a2.338 2.338 0 0 0 3.348-2.525l-.689-3.648a2.212 2.212 0 0 1 .6-1.958l2.61-2.63a2.325 2.325 0 0 0 .555-2.408 2.27 2.27 0 0 0-1.917-1.56l-3.684-.47a2.242 2.242 0 0 1-1.617-1.054l-1.767-4.235a2.31 2.31 0 0 0-2.124-1.273 2.379 2.379 0 0 0-2.132 1.479l-1.516 4.049a2.2 2.2 0 0 1-1.629 1.22l-3.66.6a2.336 2.336 0 0 0-1.228 4.008l2.7 2.545a2.2 2.2 0 0 1 .665 1.933l-.564 3.664a2.331 2.331 0 0 0 .973 2.278 2.359 2.359 0 0 0 .932.385zm.547-10.984l-.64-.6.871-.146a5.962 5.962 0 0 0 4.471-3.461l.316-.843.405.969a5.919 5.919 0 0 0 4.527 3.169l.871.109-.62.628a5.933 5.933 0 0 0-1.613 5.285l.166.863-.79-.4a5.929 5.929 0 0 0-5.529.1l-.766.422.134-.871a5.936 5.936 0 0 0-1.803-5.223z"/><path data-name="パス 11" d="M84.149 30.613a1.973 1.973 0 0 0 .438.036h.016a2.317 2.317 0 0 0 1.078-.288l3.251-1.783a2.2 2.2 0 0 1 2.047-.036l3.315 1.67a2.337 2.337 0 0 0 3.348-2.521l-.689-3.648a2.2 2.2 0 0 1 .6-1.958l2.606-2.635a2.317 2.317 0 0 0 .555-2.408 2.27 2.27 0 0 0-1.917-1.56l-3.68-.47a2.258 2.258 0 0 1-1.621-1.054l-1.767-4.235a2.317 2.317 0 0 0-2.124-1.273 2.383 2.383 0 0 0-2.132 1.483l-1.516 4.045a2.205 2.205 0 0 1-1.629 1.224l-3.66.6a2.34 2.34 0 0 0-1.231 4.011l2.7 2.541a2.2 2.2 0 0 1 .665 1.937l-.563 3.664a2.321 2.321 0 0 0 .973 2.274 2.268 2.268 0 0 0 .937.384zm.551-10.984l-.645-.6.871-.142a5.96 5.96 0 0 0 4.471-3.465l.316-.843.409.973a5.91 5.91 0 0 0 4.523 3.165l.871.109-.62.628a5.936 5.936 0 0 0-1.613 5.285l.166.863-.79-.4a5.932 5.932 0 0 0-5.524.1l-.77.426.134-.875a5.948 5.948 0 0 0-1.799-5.224z"/><path data-name="パス 12" d="M5.447 63.746a1.968 1.968 0 0 0 .438.036h.016a2.315 2.315 0 0 0 1.078-.288l3.251-1.783a2.21 2.21 0 0 1 2.051-.036l3.311 1.67a2.335 2.335 0 0 0 3.348-2.521l-.689-3.648a2.2 2.2 0 0 1 .6-1.958l2.606-2.634a2.31 2.31 0 0 0 .555-2.4 2.275 2.275 0 0 0-1.917-1.564l-3.68-.47a2.247 2.247 0 0 1-1.621-1.054l-1.767-4.235a2.317 2.317 0 0 0-2.124-1.273 2.383 2.383 0 0 0-2.132 1.483l-1.516 4.045a2.205 2.205 0 0 1-1.629 1.224l-3.66.6a2.34 2.34 0 0 0-1.228 4.013l2.7 2.541a2.2 2.2 0 0 1 .665 1.937l-.563 3.664a2.32 2.32 0 0 0 .973 2.274 2.27 2.27 0 0 0 .934.377zm.551-10.98l-.644-.6.875-.142a5.96 5.96 0 0 0 4.466-3.465l.316-.843.409.973a5.9 5.9 0 0 0 4.523 3.165l.871.109-.62.628a5.936 5.936 0 0 0-1.613 5.285l.166.863-.79-.4a5.933 5.933 0 0 0-5.524.1l-.77.426.134-.876a5.937 5.937 0 0 0-1.799-5.218z"/></g></svg>