<svg xmlns="http://www.w3.org/2000/svg" width="352.008" height="226.647"><g data-name="グループ 24" fill="#f4f4f4"><path data-name="パス 79" d="M5.389 22.014a2.563 2.563 0 0 0 .437.036h.012a2.419 2.419 0 0 0 1.075-.291l3.229-1.775a2.2 2.2 0 0 1 2.039-.032l3.293 1.659a2.321 2.321 0 0 0 3.327-2.506l-.684-3.622a2.2 2.2 0 0 1 .591-1.944l2.592-2.613a2.308 2.308 0 0 0 .552-2.39 2.254 2.254 0 0 0-1.9-1.55l-3.663-.469a2.227 2.227 0 0 1-1.6-1.047l-1.748-4.206A2.294 2.294 0 0 0 10.832.005 2.362 2.362 0 0 0 8.714 1.47L7.209 5.491a2.184 2.184 0 0 1-1.62 1.214l-3.641.6a2.32 2.32 0 0 0-1.219 3.98l2.686 2.52a2.184 2.184 0 0 1 .66 1.919l-.559 3.641a2.314 2.314 0 0 0 .966 2.262 2.345 2.345 0 0 0 .912.386zm.547-10.909l-.636-.6.865-.146a5.918 5.918 0 0 0 4.439-3.437l.315-.837.4.963a5.878 5.878 0 0 0 4.5 3.147l.865.109-.616.623a5.891 5.891 0 0 0-1.6 5.243l.165.858-.785-.395a5.888 5.888 0 0 0-5.49.1l-.76.418.133-.865a5.894 5.894 0 0 0-1.795-5.181z"/><path data-name="パス 80" d="M77.361 126.883a2.562 2.562 0 0 0 .437.036h.012a2.419 2.419 0 0 0 1.075-.291l3.229-1.775a2.2 2.2 0 0 1 2.039-.032l3.293 1.659a2.321 2.321 0 0 0 3.325-2.508l-.684-3.622a2.2 2.2 0 0 1 .591-1.944l2.592-2.613a2.308 2.308 0 0 0 .552-2.39 2.254 2.254 0 0 0-1.9-1.55l-3.658-.467a2.227 2.227 0 0 1-1.6-1.047l-1.755-4.206a2.294 2.294 0 0 0-2.109-1.264 2.362 2.362 0 0 0-2.117 1.469l-1.506 4.026a2.184 2.184 0 0 1-1.618 1.212l-3.641.6a2.32 2.32 0 0 0-1.219 3.98l2.684 2.528a2.184 2.184 0 0 1 .66 1.919l-.559 3.641a2.314 2.314 0 0 0 .966 2.262 2.345 2.345 0 0 0 .912.386zm.543-10.906l-.636-.6.865-.146a5.918 5.918 0 0 0 4.439-3.437l.315-.837.4.963a5.878 5.878 0 0 0 4.5 3.147l.865.109-.616.623a5.891 5.891 0 0 0-1.6 5.243l.165.858-.785-.395a5.888 5.888 0 0 0-5.49.1l-.76.418.133-.865a5.894 5.894 0 0 0-1.788-5.182z"/><path data-name="パス 81" d="M172.977 118.658a2.563 2.563 0 0 0 .437.036h.012a2.419 2.419 0 0 0 1.073-.291l3.229-1.775a2.2 2.2 0 0 1 2.039-.032l3.293 1.659a2.321 2.321 0 0 0 3.325-2.508l-.684-3.622a2.2 2.2 0 0 1 .591-1.944l2.592-2.613a2.308 2.308 0 0 0 .552-2.39 2.254 2.254 0 0 0-1.9-1.55l-3.658-.467a2.227 2.227 0 0 1-1.6-1.047l-1.748-4.206a2.294 2.294 0 0 0-2.109-1.264 2.362 2.362 0 0 0-2.117 1.469l-1.506 4.021a2.184 2.184 0 0 1-1.618 1.212l-3.641.6a2.32 2.32 0 0 0-1.219 3.98l2.684 2.528a2.184 2.184 0 0 1 .66 1.919l-.559 3.641a2.314 2.314 0 0 0 .966 2.262 2.344 2.344 0 0 0 .912.386zm.543-10.906l-.636-.6.865-.146a5.918 5.918 0 0 0 4.439-3.437l.315-.837.4.963a5.878 5.878 0 0 0 4.5 3.147l.865.109-.616.623a5.891 5.891 0 0 0-1.6 5.243l.165.858-.791-.388a5.888 5.888 0 0 0-5.49.1l-.76.418.133-.865a5.894 5.894 0 0 0-1.788-5.182z"/><path data-name="パス 82" d="M232.609 226.613a2.561 2.561 0 0 0 .437.036h.012a2.419 2.419 0 0 0 1.075-.291l3.229-1.775a2.2 2.2 0 0 1 2.039-.032l3.293 1.659a2.321 2.321 0 0 0 3.325-2.508l-.684-3.622a2.2 2.2 0 0 1 .591-1.944l2.592-2.613a2.308 2.308 0 0 0 .552-2.39 2.254 2.254 0 0 0-1.9-1.549l-3.664-.471a2.227 2.227 0 0 1-1.6-1.047l-1.748-4.206a2.294 2.294 0 0 0-2.109-1.264 2.362 2.362 0 0 0-2.117 1.469l-1.506 4.021a2.184 2.184 0 0 1-1.618 1.212l-3.641.6a2.32 2.32 0 0 0-1.219 3.98l2.684 2.528a2.184 2.184 0 0 1 .66 1.919l-.559 3.641a2.314 2.314 0 0 0 .966 2.262 2.344 2.344 0 0 0 .912.386zm.543-10.906l-.636-.6.865-.146a5.919 5.919 0 0 0 4.439-3.437l.315-.837.4.963a5.878 5.878 0 0 0 4.5 3.147l.865.109-.616.623a5.891 5.891 0 0 0-1.6 5.243l.165.858-.785-.395a5.888 5.888 0 0 0-5.49.1l-.76.418.133-.865a5.894 5.894 0 0 0-1.788-5.182z"/><path data-name="パス 83" d="M335.422 144.361a2.564 2.564 0 0 0 .437.036h.012a2.419 2.419 0 0 0 1.075-.291l3.229-1.775a2.2 2.2 0 0 1 2.039-.032l3.293 1.659a2.321 2.321 0 0 0 3.325-2.508l-.684-3.622a2.2 2.2 0 0 1 .591-1.944l2.592-2.613a2.308 2.308 0 0 0 .552-2.39 2.254 2.254 0 0 0-1.9-1.55l-3.658-.467a2.227 2.227 0 0 1-1.6-1.047l-1.748-4.206a2.294 2.294 0 0 0-2.109-1.264 2.362 2.362 0 0 0-2.117 1.469l-1.513 4.025a2.184 2.184 0 0 1-1.618 1.212l-3.641.6a2.32 2.32 0 0 0-1.219 3.98l2.684 2.528a2.184 2.184 0 0 1 .66 1.919l-.559 3.641a2.314 2.314 0 0 0 .966 2.262 2.345 2.345 0 0 0 .912.386zm.543-10.906l-.636-.6.865-.146a5.918 5.918 0 0 0 4.439-3.437l.315-.837.4.963a5.878 5.878 0 0 0 4.5 3.147l.865.109-.616.623a5.891 5.891 0 0 0-1.6 5.243l.165.858-.785-.395a5.888 5.888 0 0 0-5.49.1l-.76.418.133-.865a5.894 5.894 0 0 0-1.788-5.182z"/></g></svg>