<svg data-name="グループ 21" xmlns="http://www.w3.org/2000/svg" width="459.876" height="50.754"><path data-name="パス 85" d="M9.65 1.853h33.145v32.219h-6.324v-1.581h-2.4c-.055 3.325-.109 8.395-.109 8.667.055 1.363.219 2.345 4.035 2.345 5.887 0 6.6-1.691 6.7-9.432 0 0 4.524 4.2 6.269 4.906a.345.345 0 0 1 .273.327c0 .109-.055.164-.055.273-.98 7.96-4.524 9.813-13.084 9.813-5.014 0-10.412-.383-10.412-6.815v-.273c.055-2.726.109-6.978.109-9.812h-3.653c-.435 8.013-4.142 16.082-18.535 17.826-.108 0-.162.053-.273.053a.408.408 0 0 1-.381-.273c-.763-1.635-4.962-5.342-4.962-5.342 14.775-.98 17.39-5.887 17.717-12.265h-1.852v1.581H9.643zm26.821 8.722V7.414H15.865v3.161zm0 8.232v-3.271H15.865v3.271zm0 8.5v-3.543H15.865v3.543z" fill="#fff"/><path data-name="パス 86" d="M72.175 29.875c.218.109.327.218.327.382a121.7 121.7 0 0 1-6.051 15.155 2.207 2.207 0 0 1 .545 1.2.457.457 0 0 1-.491.491 1.59 1.59 0 0 1-.491-.108c-2.126-.818-6.487-3.054-6.487-3.054 3.761-4.47 7.414-15.318 8.231-18.208a28.66 28.66 0 0 0 4.417 4.142zm-8.722-16.464s5.887 2.508 9.159 5.4l-3.49 5.506c-3.216-3.543-9.322-6.105-9.322-6.105zm2.889-11.449a38.823 38.823 0 0 1 8.45 6.214l-3.926 5.016c-3.053-3.87-8.5-6.924-8.5-6.924zm15.59 26h19.027c.326 0 .491-.327.818-.327.436 0 4.252 2.835 4.252 3.271 0 .327-.491.545-1.145.709a32.691 32.691 0 0 1-6.7 9.212 35.3 35.3 0 0 0 13.192 2.945s-4.037 3.271-5.237 5.401c-.11.218-.219.327-.437.327a31.439 31.439 0 0 1-12.266-4.744 32.51 32.51 0 0 1-13.028 5.234c-.11 0-.164-.055-.328-.327a18.172 18.172 0 0 0-3.924-3.653 22 22 0 0 1-1.8 2.618.592.592 0 0 1-.38.164.48.48 0 0 1-.273-.056c-1.635-.926-6.706-1.689-6.706-1.689 8.231-7.742 8.231-18.482 8.231-25.9 0-2.508-.273-16.137-.273-16.137h14.012v-.654c0-.382-.11-2.562-.219-4.361 0 0 5.56.164 7.141.327.655.055 1.255.327 1.255.654s-.492.654-1.744.927c-.11 1.09-.11 2.562-.11 2.835v.273h13.411v5.234H80.952l.055 3.87h4.632c0-.6-.055-1.69-.164-3.107 0 0 5.179.164 6.269.38.545.11.872.328.872.6s-.435.6-1.471.763c-.055.491-.055.981-.11 1.363h5.342c0-.6-.053-1.69-.162-3.107 0 0 5.179.164 6.269.38.545.11.872.328.872.6s-.436.6-1.472.763c-.055.491-.055.981-.109 1.363h6.542v4.688h-6.542v7.524h-5.4v-.982h-5.336v.982h-5.4v-7.524H81.06c.053 1.2.053 2.235.053 2.78 0 6.978-.273 15.7-4.142 23.06a31.735 31.735 0 0 0 12.047-3.707 23.267 23.267 0 0 1-4.906-8.34H81.93zm7.905 4.633a12.8 12.8 0 0 0 3.652 5.179 15.391 15.391 0 0 0 3.926-5.179zm6.541-11.176v-2.617h-5.339v2.617z" fill="#fff"/><path data-name="パス 87" d="M119.491 11.121a.685.685 0 0 1-.055-.326c0-.219.108-.327.6-.327.981.055 2.071.055 3.162.055 2.508 0 5.233-.109 7.742-.327 3.379-.327 7.632-.71 12.265-.982-.164-2.78-.382-5.451-.654-7.523 7.577.164 9.05.218 9.05.981 0 .327-.545.763-1.418.872-.162 1.581-.217 3.38-.327 5.288 3.326-.108 6.759-.217 10.086-.217 2.071 0 4.143 0 6.105.109l-.164 6.65c-.053.273-.053.273-.326.273a99.631 99.631 0 0 0-12.593-.818c-1.09 0-2.18 0-3.216.055 0 2.835 0 5.56.053 7.8a12.848 12.848 0 0 1 1.962 7.251 18.385 18.385 0 0 1-3.216 10.194c-4.8 6.759-13.465 9.214-13.465 9.214a.556.556 0 0 1-.435-.273c-1.581-1.964-7.142-5.179-7.142-5.179 8.887-1.744 14.61-5.289 16.627-7.8a10.635 10.635 0 0 1-3.816.763 8.95 8.95 0 0 1-9.159-8.776 9.573 9.573 0 0 1 9.813-9.541 13.381 13.381 0 0 1 2.617.218c-.055-1.145-.055-2.344-.109-3.6-4.524.327-8.614.818-11.993 1.308-2.945.382-6.815.927-10.3 1.145zm21.479 13.193c-.491 0-3.6.164-3.6 3.271a3.188 3.188 0 0 0 3.271 3.326 3.29 3.29 0 0 0 3.489-3.38v-.548a7.794 7.794 0 0 0-.164-1.582 4.043 4.043 0 0 0-2.997-1.088z" fill="#fff"/><path data-name="パス 88" d="M175.583 2.453h12.429c.218 0 .383-.327.71-.327.435 0 4.633 1.962 4.633 2.726 0 .273-.273.545-.872.763-.928 4.362-2.509 10.849-3.381 13.411a15.982 15.982 0 0 1 3.381 9.7c0 5.669-1.853 10.3-8.069 10.3-.382 0-.491-.055-.6-.436a31.315 31.315 0 0 0-2.236-5.288v16.954h-6zm6 30.311a7.112 7.112 0 0 0 2.017.273c2.235 0 2.945-1.581 2.945-4.635a13.813 13.813 0 0 0-3.326-8.885 106.752 106.752 0 0 0 2.944-11.829h-4.579zm12.919-30.038h24.206v24.1h-5.944v-.872h-3a27.448 27.448 0 0 0 1.418 6.379 45.879 45.879 0 0 0 8.122-5.016 48.289 48.289 0 0 1 3.925 5.18 1.817 1.817 0 0 1 .218.654c0 .273-.162.436-.491.436a2.5 2.5 0 0 1-1.253-.545c-2.127 1.308-5.943 3.162-8.069 4.143a21.126 21.126 0 0 0 11.34 8.395 48.174 48.174 0 0 0-6.269 4.144c-.165.164-.273.273-.383.273-.162 0-6.6-3-10.74-11.23a33.113 33.113 0 0 0-.108 2.344 15.11 15.11 0 0 0 .108 1.744v.273c0 .709-12.374 4.744-16.735 5.887v.383c0 .763-.165 1.363-.545 1.363-.873 0-3.708-6.924-3.817-7.25 2.671-.492 5.4-1.146 8.013-1.854zm18.263 9.1V8.069h-12.269v3.761zm0 9.049v-4.088h-12.269v4.088zM200.5 39.901c3-.927 5.4-1.8 6.541-2.235a38.256 38.256 0 0 1-3.052-11.721h-3.49z" fill="#fff"/><path data-name="パス 89" d="M237.127 34.454a1.035 1.035 0 0 1-.491.164c-.654 0-1.8-5.615-1.8-10.685 0-7.577 2.017-14.447 2.618-22.078.055-.654-.056-.818.273-.818 1.145 0 6.7 1.254 7.194 1.363.6.164.928.436.928.709 0 .382-.491.763-1.635.818-.273 1.254-1.308 3.979-1.526 5.125a.954.954 0 0 0-.055.326c0 .109 0 .109.055.109s.164-.109.38-.435c3.054-5.071 7.415-5.343 8.723-5.343 6.487 0 12.048 6.379 12.048 19.68a28.459 28.459 0 0 1-2.071 11.23c-4.961 11.34-18.427 14.229-18.482 14.229a.561.561 0 0 1-.435-.218c-1.8-1.908-7.088-5.071-7.088-5.071 16.246-3.707 20.771-10.085 20.771-20.716 0-1.2-.056-13.084-5.779-13.084-4.471 0-8.777 8.069-8.777 16.574a11.6 11.6 0 0 0 1.255 5.07z" fill="#fff"/><path data-name="パス 90" d="M313.5 24.968c0-6.924-5.071-12.157-11.721-13.193a12.823 12.823 0 0 1 .218 2.562c0 8.286-5.834 19.516-11.12 25.186-2.073 2.235-4.144 3.271-6.214 3.271-3.98 0-10.25-5.233-10.25-13.737 0-11.067 10.523-23.278 25.3-23.278 12.212 0 21.1 8.34 21.1 19.57-.055 17.772-20.06 22.569-21.7 22.569a.41.41 0 0 1-.382-.218c-1.472-2.126-6.759-6.051-6.759-6.051 9.262-.654 21.528-4.906 21.528-16.681zm-32.491 3.925c0 4.088 2.563 6.16 3.543 6.16a2.424 2.424 0 0 0 1.8-.981c4.035-4.415 8.559-13.575 8.559-19.9a10.809 10.809 0 0 0-.164-1.908c-7.851 2.4-13.738 10.305-13.738 16.629z" fill="#fff"/><path data-name="パス 91" d="M329.96 43.393h20.5v-3.6h-12.43v-4.2c-.218.218-2.835 3-3.325 3-.054 0-.11-.055-.218-.109-1.2-.981-6.323-2.508-6.323-2.508 4.2-2.289 9.649-8.449 11.338-13.247h-3.329V2.289h34.726v20.988h-6.27v-1.308h-22.238v.763h-2.182c5.288 1.036 6.378 1.254 6.378 1.853 0 .383-.708.763-1.908.763a13.216 13.216 0 0 1-.763 1.581h6.542c0-.6-.056-2.726-.164-4.088 0 0 5.015.109 6.814.327.763.109 1.2.436 1.2.709 0 .382-.545.763-1.635.872a35.423 35.423 0 0 0-.109 2.18h16.573v4.903h-16.573v3.162h14.5v4.8h-14.5v3.6h19.843v5.18H329.96zm20.5-8.395v-3.166h-9.432c-.762 1.036-1.58 2.126-2.453 3.162zm14.173-25.295V6.977h-22.242v2.726zm0 7.686v-3.107h-22.242v3.107z" fill="#fff"/><path data-name="パス 92" d="M387.852 6.759h19.734V4.633s0-2.126-.164-3.979c0 0 5.288.109 7.468.382.6.055 1.036.382 1.036.763 0 .327-.435.709-1.744.927-.109.927-.109 2.235-.109 2.235v1.8h19.681v11.176h-5.561a23.018 23.018 0 0 0 3.434 1.908c.164.109.219.164.219.327v.164c-.982 5.725-6.217 5.725-10.8 5.725-4.143 0-8.5-.383-8.5-5.725 0-1.2.054-5.56.054-8.34h-4.252c-.437 9.267-5.124 14.174-15.1 15.919-.109 0-.218.055-.327.055a.292.292 0 0 1-.218-.164c-.709-1.2-5.18-4.853-5.18-4.853 10.14-.872 14.339-3 14.719-10.957h-8.122v6.432h-6.269zm-.164 35.6h19.843v-7.087h-15.263v-5.675h37.506v5.669h-15.645v7.087h20.17v5.779h-46.613zm39.742-30.362h-8.722c-.056 2.726-.11 6.65-.11 7.25 0 1.254.818 1.744 3.108 1.744 4.143 0 4.252-1.472 4.252-4.579 0 0 .6.436 1.472 1.036z" fill="#fff"/><path data-name="パス 205" d="M446.083 48.888a1.625 1.625 0 0 0 .362.03h.013a1.912 1.912 0 0 0 .891-.238l2.686-1.473a1.826 1.826 0 0 1 1.694-.03l2.736 1.38a1.929 1.929 0 0 0 2.766-2.083l-.569-3.014a1.817 1.817 0 0 1 .5-1.618l2.153-2.177a1.908 1.908 0 0 0 .459-1.986 1.879 1.879 0 0 0-1.584-1.293l-3.041-.388a1.857 1.857 0 0 1-1.339-.871l-1.46-3.5a1.915 1.915 0 0 0-1.755-1.052 1.969 1.969 0 0 0-1.761 1.226l-1.252 3.342a1.821 1.821 0 0 1-1.346 1.011l-3.024.492a1.933 1.933 0 0 0-1.015 3.315l2.234 2.1a1.822 1.822 0 0 1 .549 1.6l-.465 3.027a1.917 1.917 0 0 0 .8 1.879 1.878 1.878 0 0 0 .768.321zm.455-9.072l-.532-.5.723-.117a4.924 4.924 0 0 0 3.69-2.863l.261-.7.338.8a4.875 4.875 0 0 0 3.737 2.615l.72.09-.512.519a4.9 4.9 0 0 0-1.333 4.367l.137.713-.653-.328a4.9 4.9 0 0 0-4.564.08l-.636.352.111-.723a4.905 4.905 0 0 0-1.489-4.305z" fill="#fff"/></svg>