<svg xmlns="http://www.w3.org/2000/svg" width="420.262" height="54.226"><g data-name="グループ 1690" fill="#fff"><path data-name="パス 765" d="M.552 16.693h3.4V5.124s0-1.943-.042-2.69c0 0 1.155.341 1.547.427a46.38 46.38 0 0 0 9.668-1.644s1.4 1.793 1.69 2.284a.858.858 0 0 1 .1.3.182.182 0 0 1-.206.192 1.012 1.012 0 0 1-.6-.3 69.072 69.072 0 0 1-9.606 1.388v2.647H18.15v2.369h-3.937v6.6h4.638v2.37H.552zm11.153 0v-6.6h-5.2v6.6z"/><path data-name="パス 766" d="M27.501 19.362a12.45 12.45 0 0 1-1.174-5.636v-.213c.082-4.867 1.278-8.9 1.36-11.293 0-.107.021-.171.082-.171s2.763.812 2.784.812c.226.085.35.192.35.3 0 .128-.185.256-.6.277-.433 2.22-1.69 6.19-1.731 8.8 0 .47 0 .769.062.769.082 0 .226-.385 1.566-3.928a16.752 16.752 0 0 0 .907 2.412c-1.3 3.672-1.546 4.568-1.546 6.02a8.615 8.615 0 0 0 .082 1.174v.043a.161.161 0 0 1-.123.17zm7.752-6.276a5.876 5.876 0 0 0-.66.854.806.806 0 0 0-.1.363c0 .7 1.257 1.217 3.422 1.217h.123a12.541 12.541 0 0 0 4.247-.876s-.309 2.049-.33 2.861a.141.141 0 0 1-.082.106 18.114 18.114 0 0 1-4.02.6c-3.607 0-5.916-1.58-5.916-3.436a3.455 3.455 0 0 1 1.2-2.306zm-2.289-8.6a12.569 12.569 0 0 0 3.423.406 29.672 29.672 0 0 0 4.968-.491l-.021 2.583c0 .063-.021.106-.083.106a26.078 26.078 0 0 1-4.39.385 14.327 14.327 0 0 1-4-.47z"/><path data-name="パス 767" d="M52.818 15.199a23.931 23.931 0 0 1-2.082 1.43.82.82 0 0 1 .021.214c0 .214-.083.32-.165.32a.427.427 0 0 1-.289-.213c-.371-.491-1.319-2.156-1.319-2.156a21.073 21.073 0 0 0 3.834-2.092v-1.879l-1.587.939a15.446 15.446 0 0 0-1.691-3.906l1.753-.833a18.923 18.923 0 0 1 1.525 3.053V6.703s0-.832-.062-1.686c.124 0 2.062.064 2.474.128.206.021.309.128.309.234 0 .129-.165.278-.536.342-.041.576-.041 1.2-.041 1.2v11.314a17.311 17.311 0 0 0 4.473-.833 7.687 7.687 0 0 1-1.876-2.177h-.68v-.812h-1.4v-3.01h11.483v2.968h-1.51a.186.186 0 0 1 .062.128c0 .128-.186.214-.351.256a9.4 9.4 0 0 1-1.958 2.5 21.37 21.37 0 0 0 4.535.64 12.415 12.415 0 0 0-1.711 1.9.154.154 0 0 1-.165.107 17.6 17.6 0 0 1-4.514-1.3 15.178 15.178 0 0 1-5.03 1.559.133.133 0 0 1-.124-.107 7.292 7.292 0 0 0-1.237-1.516v1.644h-2.144zM49.643 2.306h7.566v-.512s0-.727-.062-1.3c.206 0 2.062.064 2.825.15.206.021.391.149.391.3 0 .127-.185.3-.66.384a5.821 5.821 0 0 0-.041.683v.3h7.731v4.013h-1.979v4.611h-2.062v-.278H56.24V9.291h7.112v-.747H56.57V7.327h6.782v-.683h-7.07V5.257h8.719v-.875H52.014V6.26h-2.371zm14.1 11.4c.083 0 .165-.128.289-.128a9.013 9.013 0 0 1 .907.469v-1.045h-7.566v.7zM59.702 15.2a5.006 5.006 0 0 0 1.567 1.3 4.608 4.608 0 0 0 1.3-1.324z"/><path data-name="パス 768" d="M73.476 14.836h3.376v-1.494h-.9v.683H74.22V5.636h2.632V4.573h-3.278V2.652h3.278v-.7s0-.577-.062-1.281c0 0 2.144.043 2.577.128.226.043.371.15.371.277s-.186.278-.619.342c-.041.448-.041.747-.041.747v.491h3.2v1.921h-3.2v1.068h2.68v8.261h-1.752v-.555h-.928v1.494h3.3v1.857c.309-.042.638-.085.948-.128a56.134 56.134 0 0 0 1.237-6.532h-2.289V7.573h10.122v2.455h-5.36c-.268 1.43-.721 3.971-1.236 6.106a57.117 57.117 0 0 0 3.236-.769 32.451 32.451 0 0 0-1.588-3.33s1.567-.6 2.124-.875a37.625 37.625 0 0 1 3.072 7.45l-2.289 1.324a21.576 21.576 0 0 0-.535-2.349c-1.773.513-4.536 1.217-7.175 1.686-.02.406-.123.641-.267.641s-.31-.021-1.155-3.074h-2.144v3.223h-2.227v-3.223h-3.381zm3.566-6.211V7.344h-1.09v1.281zm0 3.031V10.29h-1.09v1.366zm2.969-3.031V7.344h-1.134v1.281zm0 3.031V10.29h-1.134v1.366zm3.092-9.543h8.307V4.59h-8.307z"/><path data-name="パス 769" d="M97.844 18.636a94.113 94.113 0 0 0 4.7-9.627 14.665 14.665 0 0 1-3.5.512 69.64 69.64 0 0 1-.742-2.668.1.1 0 0 1 .1-.086c.041 0 .082.022.124.022a9.269 9.269 0 0 0 1.237.085 18.969 18.969 0 0 0 3.71-.47 23.049 23.049 0 0 0 .99-4.781s2.432.426 2.948.576c.247.064.35.192.35.3 0 .149-.247.3-.66.32-.185.683-.515 2.049-.845 3.2.227-.021.454-.042.68-.042 2.062 0 3.113 1.216 3.113 4.61a16.838 16.838 0 0 1-.68 4.846 4.317 4.317 0 0 1-4.123 3.288 3.771 3.771 0 0 1-2.041-.577c-.083-.042-.1-.085-.1-.192a28.283 28.283 0 0 0-.35-3.1c-.6 1.345-1.258 2.732-1.959 4.269zm7.215-2.711a1.941 1.941 0 0 0 1.856-1.494 13.617 13.617 0 0 0 .6-4.013c0-1-.062-2.007-1.052-2.007a5.475 5.475 0 0 0-1.071.128 107.639 107.639 0 0 1-2.578 6.17 2.986 2.986 0 0 0 2.245 1.216zm7.422-9.9c2.679 1.9 4.39 4.227 4.514 6.6l-2.432 1.26a.369.369 0 0 1-.1.043c-.042 0-.062-.043-.083-.128a8.388 8.388 0 0 0-4.061-6.49c-.144-.107-.206-.15-.206-.192s.083-.086.227-.149zm-.165-3.394a10.37 10.37 0 0 1 2.762 2.2l-1.2 1.174a9.4 9.4 0 0 0-2.722-2.349zm2.036-1.458a10.739 10.739 0 0 1 2.721 2.007l-1.155 1.217a9.893 9.893 0 0 0-2.679-2.178z"/><path data-name="パス 770" d="M127.202 13.961a.382.382 0 0 1-.186.064c-.248 0-.68-2.2-.68-4.184 0-2.967.762-5.657.989-8.645.021-.256-.02-.32.1-.32.433 0 2.536.49 2.721.533.227.064.351.171.351.278 0 .149-.186.3-.619.32-.1.491-.494 1.558-.577 2.006a.4.4 0 0 0-.02.129c0 .042 0 .042.02.042s.062-.042.145-.171a3.768 3.768 0 0 1 3.3-2.092c2.453 0 4.556 2.5 4.556 7.706a11.481 11.481 0 0 1-.784 4.4c-1.876 4.44-6.967 5.572-6.988 5.572a.211.211 0 0 1-.165-.086 18.058 18.058 0 0 0-2.68-1.985c6.143-1.451 7.854-3.949 7.854-8.112 0-.47-.02-5.123-2.185-5.123-1.69 0-3.319 3.159-3.319 6.489a4.686 4.686 0 0 0 .474 1.986z"/><path data-name="パス 771" d="M148.993 12.339c-.309.363-.619.7-.907 1a.175.175 0 0 1-.124.064c-.02 0-.041 0-.062-.043a8.274 8.274 0 0 0-2.04-1.515 16.237 16.237 0 0 0 5.236-7h-4.412V2.518h7.875v-.406s0-.875-.062-1.515c.206.021 2.082.021 2.8.128.371.043.536.15.536.277 0 .15-.268.321-.7.406-.041.3-.041.9-.041.9v.213h7.874v2.327h-8.06c1.959.427 2.268.6 2.268.768 0 .15-.206.257-.66.257h-.062c-.041.107-.144.384-.309.79l3.443-.022c.123 0 .247-.149.371-.149.144 0 1.711.982 1.711 1.259 0 .128-.165.213-.413.32a21.857 21.857 0 0 1-3.4 7.194 11.718 11.718 0 0 0 5.875 2.412 17.689 17.689 0 0 0-2.144 2.242.109.109 0 0 1-.082.064 12.188 12.188 0 0 1-5.278-2.86 12.242 12.242 0 0 1-4.617 3.009.075.075 0 0 1-.062-.021 11.924 11.924 0 0 0-2.226-1.516v1.58h-2.369zm2.35.363a17.494 17.494 0 0 0 5.03-7.856H151.9c1.072.363 1.979.726 1.979 1.046 0 .107-.145.192-.433.192a1.739 1.739 0 0 1-.309-.021 22.864 22.864 0 0 1-1.959 3.373 3.248 3.248 0 0 0 .351.021c.329.043.474.149.474.277 0 .15-.248.321-.639.449-.021.107-.021.875-.021.875zm-.02 5.656a13.13 13.13 0 0 0 5.277-3.031 16.714 16.714 0 0 1-1.773-2.839 10.275 10.275 0 0 1-1.546 1.687c-.021 0-.041-.022-.082-.043a8.05 8.05 0 0 0-1.856-.918zm6.472-9.157a12.935 12.935 0 0 1 2.186 1.238 11.263 11.263 0 0 0 .618-1.729h-3.447a24.418 24.418 0 0 1-1.011 1.814 14.48 14.48 0 0 0 2 3.1 12.127 12.127 0 0 0 .969-1.473 17.473 17.473 0 0 0-2.371-1.388z"/><path data-name="パス 772" d="M171.424 3.117h7.462v-.833s0-.832-.062-1.558c0 0 2 .043 2.824.15.227.021.392.149.392.3 0 .128-.165.278-.66.363-.041.363-.041.876-.041.876v.7h7.442v4.376h-2.1a8.546 8.546 0 0 0 1.3.747c.062.043.082.064.082.128v.064c-.371 2.242-2.35 2.242-4.081 2.242-1.567 0-3.216-.15-3.216-2.242 0-.47.021-2.177.021-3.266h-1.608c-.165 3.629-1.938 5.55-5.711 6.233-.041 0-.082.022-.123.022a.113.113 0 0 1-.083-.064 16.163 16.163 0 0 0-1.958-1.9c3.834-.342 5.422-1.174 5.566-4.291h-3.072v2.519h-2.37zm-.062 13.94h7.5v-2.776h-5.772v-2.22h14.182v2.22h-5.916v2.776h7.627v2.262h-17.621zM186.39 5.166h-3.3c-.021 1.067-.042 2.6-.042 2.839 0 .491.31.684 1.175.684 1.567 0 1.608-.577 1.608-1.794 0 0 .227.171.557.406z"/><path data-name="パス 773" d="M196.534 12.445c-.124-.042-.206-.085-.206-.149a.444.444 0 0 1 .1-.192 29.322 29.322 0 0 0 4.267-5.977 1.53 1.53 0 0 0-.309.021c-.227 0-.433.021-.618.021a5.084 5.084 0 0 1-2.309-.448l-.248-2.326v-.086c0-.085.021-.128.083-.128a.548.548 0 0 1 .165.064 6.357 6.357 0 0 0 2.865.6c.392 0 .845-.043 1.381-.086a21.836 21.836 0 0 0 .846-2.817c.412.042 3.03.426 3.03.811 0 .128-.247.256-.66.277-.1.3-.329.811-.556 1.324a55.71 55.71 0 0 0 3.958-.939l-.083 2.476c-1.917.4-3.545.725-4.906.918-.33.576-.824 1.323-1.217 1.878-.02.022-.041.043-.041.064 0 .043.041.064.083.064a.157.157 0 0 0 .1-.042 3.322 3.322 0 0 1 1.938-.6 2.736 2.736 0 0 1 2.556 2.028c1.876-.854 3.69-1.516 4.824-1.986l1.773 2.093c.061.085.1.128.1.17 0 .128-.227.149-.474.192a24.677 24.677 0 0 0-5.958 1.9c-.021.939-.1 2.54-.124 3.587l-2.442.256c.021-.811.083-1.772.124-2.583-1.732 1.089-2.206 1.836-2.206 2.561 0 .9.886 1.623 3.01 1.623a22.112 22.112 0 0 0 5.36-1 19.655 19.655 0 0 0-.5 2.754c0 .128-.041.15-.124.171a20.276 20.276 0 0 1-4.473.555c-4.494 0-5.731-2.241-5.731-3.992s1.34-3.458 4.659-5.251c-.144-.854-.516-1.132-1.072-1.132h-.021c-1.381 0-3.216 1.943-4.6 4.142z"/><path data-name="パス 774" d="M222.593 1.196h12.534v12.616h-2.392v-.62h-.907c-.021 1.3-.041 3.288-.041 3.395.02.534.082.918 1.525.918 2.227 0 2.5-.662 2.536-3.693a15.1 15.1 0 0 0 2.371 1.921.134.134 0 0 1 .1.128c0 .043-.021.064-.021.107-.371 3.117-1.711 3.842-4.947 3.842-1.9 0-3.938-.149-3.938-2.668v-.107c.021-1.067.041-2.732.041-3.843h-1.38c-.166 3.139-1.567 6.3-7.01 6.981-.041 0-.061.021-.1.021a.156.156 0 0 1-.144-.106 11.976 11.976 0 0 0-1.876-2.092c5.587-.385 6.576-2.306 6.7-4.8h-.7v.62h-2.35zm10.142 3.415V3.373h-7.792v1.238zm0 3.224V6.554h-7.792v1.281zm0 3.33V9.773h-7.792v1.388z"/><path data-name="パス 775" d="M243.869 16.693h7.421v-13.9s-.02-.917-.062-1.6c0 0 1.979.021 2.887.128.412.042.618.171.618.32s-.227.32-.68.427a5.858 5.858 0 0 0-.041.768v4.4h7.029v2.476l-7.029.021v6.938h8.328v2.476h-18.471z"/><path data-name="パス 776" d="M270.052 12.19v-.534c.144-4.206.907-7.514.989-9.841.021-.15 0-.235.1-.235.042 0 1.753.512 2.681.875.268.107.371.214.371.3 0 .149-.268.256-.536.256h-.041a73.313 73.313 0 0 0-1.341 7.237 16.1 16.1 0 0 0-.123 1.665c0 .064 0 .811.123.811.042 0 .124-.214.186-.47.185-.619.927-2.9 1.175-3.65 0 0 .7 1.409 1.051 2.22-.206.769-.6 1.879-.845 2.839a10.428 10.428 0 0 0-.412 2.84 6.253 6.253 0 0 0 .061 1.045.759.759 0 0 0 .021.128c0 .129-.062.193-2.041.662a12.268 12.268 0 0 1-1.419-6.148zm12.966-10.525l1.217-.491a8.407 8.407 0 0 1 1.34 2.519l-1.34.577a8.035 8.035 0 0 0-.825-2.007 1.536 1.536 0 0 1-.371.15c-.021.256-.021.576-.021.96 0 .534 0 1.174.021 1.857.99-.213 1.979-.469 2.948-.747l.1 2.477v.063c0 .086-2.8.62-3.01.662 0 .576.021 1.131.021 1.687 0 4.44-.206 7.428-5.277 10.289a.124.124 0 0 1-.083.021.264.264 0 0 1-.164-.064 16.25 16.25 0 0 0-2.66-1.857c4.639-1.793 5.731-3.245 5.731-7.685 0-.576-.021-1.26-.041-1.985a16.835 16.835 0 0 1-2.515.192 11.138 11.138 0 0 1-2.619-.342s-.329-2.134-.371-2.433a.834.834 0 0 0-.02-.129c0-.085.02-.127.082-.127.021 0 .042.021.083.021a11.049 11.049 0 0 0 3.381.555c.185 0 .391-.021.577-.021.433-.022.866-.064 1.3-.129a83.903 83.903 0 0 0-.248-3.991c.7.021 2.041.021 2.845.085zm3.258-1.259a8.707 8.707 0 0 1 1.422 2.39l-1.3.684a6.571 6.571 0 0 0-1.34-2.5z"/><path data-name="パス 777" d="M292.544 17.121c-.123-.022-.185-.064-.185-.129a.362.362 0 0 1 .082-.192c.845-1.28 1.918-2.754 2.845-4.141a41.941 41.941 0 0 0 2.33-3.949l.041-.342a33.741 33.741 0 0 1-3.113 1.452l-1.464-2.327a.663.663 0 0 1-.082-.192c0-.064.062-.107.165-.107a17.433 17.433 0 0 0 4.638-1.238c.062-1.174.1-2.284.1-3.224 0-.49-.02-.917-.041-1.3 0 0 2 .107 2.845.214.268.043.391.128.391.235 0 .128-.165.277-.515.341a271.326 271.326 0 0 0-.433 4.995c2.783-2.817 4.247-3.052 5.134-3.052 1.4 0 2.638.939 2.638 3.522a11.628 11.628 0 0 1-.1 1.388 39.068 39.068 0 0 0-.639 4.632v.043c0 .768.289 1.067.721 1.067.948 0 2.577-1.43 3.34-2.6a29.692 29.692 0 0 0 .289 3.352c0 .555-2.288 2.135-4.123 2.135-1.546 0-2.825-.94-2.825-3.394v-.278a42.836 42.836 0 0 1 .722-4.824 8.326 8.326 0 0 0 .1-1.3c0-.981-.268-1.28-.619-1.28-.453 0-1.937.6-4.906 4.333-.061 1.132-.1 2.22-.1 3.373 0 1.451.062 3.01.186 4.824l-2.722.064c0-2.3.021-4.184.1-5.891-.784 1.558-1.567 3.138-2.268 4.483z"/><path data-name="パス 778" d="M319.652 18.973a12.879 12.879 0 0 1-1.3-6c0-.277 0-.555.02-.811.227-4.1 1.134-7.813 1.32-10.076.021-.171 0-.235.082-.235.186 0 2.268.62 2.639.769.227.085.33.192.33.3 0 .128-.227.256-.577.256-.268 1.3-.99 3.949-1.382 6.874a22.041 22.041 0 0 0-.206 2.433c0 .214.021.321.062.321s.1-.15.206-.47c.206-.683.784-2.049 1.175-3.181a21.783 21.783 0 0 0 .99 2.391 15.4 15.4 0 0 0-1.423 5.87 7.178 7.178 0 0 0 .042.939v.043c0 .107-.062.107-.124.15zm3.916-13.321a.4.4 0 0 1-.02-.128c0-.043.02-.085.062-.085a.631.631 0 0 1 .165.042 9.186 9.186 0 0 0 3.009.534 15.356 15.356 0 0 0 1.958-.171v-.619c0-.96-.02-2.2-.082-3.479 0 0 1.938.043 2.66.128.061.021.144.021.185.042a6.114 6.114 0 0 0-.639-.768l1.3-.512A8.879 8.879 0 0 1 334 3.197l-1.381.662a7.7 7.7 0 0 0-.886-1.644.842.842 0 0 1-.495.3c-.041.6-.082 1.729-.1 1.921 0 .342-.02.684-.02 1.025.968-.192 2-.448 3.133-.726l.123 2.583c-1.174.235-2.267.427-3.277.6.041 2.156.165 3.992.247 5.443a15.289 15.289 0 0 1 4.329 2.605l-1.793 1.985c-.042.043-.062.064-.1.064-.021 0-.042-.021-.062-.064a9.786 9.786 0 0 0-2.35-1.985 3.841 3.841 0 0 1-3.938 2.732c-2.2 0-4.164-1.387-4.164-3.116 0-1.068.907-2.9 4.267-2.9a10.157 10.157 0 0 1 1.423.107 148.745 148.745 0 0 1-.186-4.526c-1.381.15-2.082.193-2.453.193a7.639 7.639 0 0 1-2.412-.385zm3.773 9.094c-.124 0-1.752 0-1.752.833 0 .533.948.811 1.67.811a1.679 1.679 0 0 0 1.752-1.367 5.618 5.618 0 0 0-1.667-.272zM334.452 0a8.873 8.873 0 0 1 1.855 2.413l-1.4.7a8.417 8.417 0 0 0-1.753-2.54z"/><path data-name="パス 779" d="M342.91 14.132a22.056 22.056 0 0 1 4.7 3.821l-2 2.177a18.593 18.593 0 0 0-4.473-4.312z"/><path data-name="パス 780" d="M6.39 51.558h5.216v-1.345H7.874a6.917 6.917 0 0 0-1.772 1c-.042.043-.062.043-.083.043a11.042 11.042 0 0 1-1.3-2.519 12.6 12.6 0 0 1-2.227 5.187.156.156 0 0 1-.083-.021 11.9 11.9 0 0 0-2.411-.555c2.205-2.6 3.278-6.041 3.278-11.186 0-1.3-.042-6-.042-6a12.458 12.458 0 0 0-.062-1.367s1.815.043 2.474.107c.227.021.371.128.371.256 0 .107-.144.256-.536.342-.02.256-.041.747-.041 1 0 0-.021 1.388-.021 2.839a18.641 18.641 0 0 0 1.217-1.921s.907.747 1.339 1.153v-2.114h2.928a17.291 17.291 0 0 0 .639-1.942c.144.021 1.876.17 2.329.256.351.064.495.171.495.278 0 .149-.268.277-.639.3 0 0-.227.49-.515 1.131h4.679v7.984h-2.206v-.513h-5.543v.577H7.977v-5.337a.7.7 0 0 1-.267-.064 21.641 21.641 0 0 1-2.309 2.689v.257a34.817 34.817 0 0 1-.186 3.714 16.2 16.2 0 0 0 2.536 4.056v-1.515h3.855v-1.2H7.091v-1.879h11.668v1.879h-4.8v1.2h4.267v1.878h-4.274v1.345h5.586v1.943H6.39zM2.515 40.713c0 2.84-.186 4.441-.33 4.441h-.062a8.942 8.942 0 0 0-1.608-.129H.352a13.251 13.251 0 0 0 .475-4.119c0-1.388-.083-2.5-.083-2.5s1.34.043 1.876.128c.227.021.33.107.33.214 0 .127-.165.256-.454.341-.002.13.019.792.019 1.624zm13.172-1.408v-1.089h-5.545v1.089zm0 2.9v-1.153h-5.545v1.153z"/><path data-name="パス 781" d="M32.016 49.893c-.763.832-1.958 2.049-3.257 2.049-1.649 0-2.845-1.857-2.845-4.1a8.421 8.421 0 0 1 2.907-5.955 35.546 35.546 0 0 1-.515-3.949l2.267-1.217a.6.6 0 0 1 .165-.043c.083 0 .124.043.124.213v.6c0 .982.041 1.921.123 2.839a10.271 10.271 0 0 1 3.752-1.217 19.179 19.179 0 0 0 .351-3.137s2.164.383 2.865.6c.289.086.433.192.433.3 0 .15-.226.277-.66.341-.1.684-.247 1.345-.391 2.007a6.215 6.215 0 0 1 5.092 6.447c0 5.038-4.639 7.258-7.958 7.728-.123 0-.206-.022-.247-.128a11.145 11.145 0 0 0-2.227-2.263c4.35-.342 7.834-1.964 7.834-5.38 0-.534-.083-3.543-3.092-4.205a24.5 24.5 0 0 1-3.113 6.425c.268.342.536.662.825.982l-2.351 1.175zm-2.577-5.422a5.5 5.5 0 0 0-1.319 3.244c0 1.409.639 1.622.783 1.622.371 0 .784-.362 1.794-1.536a18.675 18.675 0 0 1-1.258-3.328zm4.763-3.1a8.2 8.2 0 0 0-2.928 1.366 14.465 14.465 0 0 0 .969 2.861 20.2 20.2 0 0 0 1.959-4.225z"/><path data-name="パス 782" d="M61.105 53.842a.347.347 0 0 1-.1.043c-.02 0-.041-.022-.082-.086a39.048 39.048 0 0 0-6.885-7.77 3.127 3.127 0 0 1-1.114-2.241 3.34 3.34 0 0 1 1.2-2.391c2.1-2.028 5.174-4.014 6.885-6.234.062-.064.083-.085.124-.085.165 0 2.68 2.156 2.68 2.562 0 .128-.083.17-.227.17a1.051 1.051 0 0 1-.454-.106c-1.649 1.366-4.823 3.415-6.555 4.931a1.7 1.7 0 0 0-.722 1.153c0 .4.269.789.866 1.28 2.227 1.815 5.814 5.038 7.4 7.536z"/><path data-name="パス 783" d="M74.074 51.558h7.751v-1.409h-4.7v-1.644c-.083.085-1.072 1.174-1.258 1.174-.02 0-.041-.021-.082-.042a11.855 11.855 0 0 0-2.392-.983 11.371 11.371 0 0 0 4.288-5.187h-1.257v-8.005h13.128v8.219h-2.371v-.512H78.77v.3h-.818c2 .406 2.411.491 2.411.726 0 .149-.268.3-.721.3a5.305 5.305 0 0 1-.289.619h2.474c0-.235-.021-1.067-.062-1.6 0 0 1.9.043 2.577.128.288.043.453.171.453.278 0 .149-.206.3-.618.341-.021.256-.041.662-.041.854h6.267v1.921h-6.267v1.239h5.483v1.878h-5.483v1.409h7.5v2.027H74.074zm7.751-3.287v-1.239h-3.566c-.289.406-.6.833-.928 1.239zm5.36-9.906v-1.067h-8.411v1.067zm0 3.01v-1.217h-8.411v1.217z"/><path data-name="パス 784" d="M99.019 52.773c1.382-3.479 3.381-8.9 4.206-11.7a12.256 12.256 0 0 1-1.711.15 6.789 6.789 0 0 1-1.876-.256l-.31-2.455c0-.043-.02-.086-.02-.128 0-.064.02-.086.082-.086a.384.384 0 0 1 .145.022 7.212 7.212 0 0 0 2.35.4 10.3 10.3 0 0 0 1.9-.192 19.777 19.777 0 0 0 .37-3.18s2.206.213 2.845.319c.33.065.454.193.454.3 0 .17-.248.341-.619.383-.062.406-.185 1-.309 1.581a28.983 28.983 0 0 0 2.6-.748l-.02 2.711c-1.072.235-2.165.47-3.175.683-.721 2.669-2.845 8.646-3.978 12.488zm10.433-5.036a2.093 2.093 0 0 0-.578 1.131c0 .79 1.608 1.323 3.34 1.323a12.978 12.978 0 0 0 3.587-.6 27.041 27.041 0 0 0-.6 2.839c-.021.064-.042.128-.124.15a14 14 0 0 1-2.536.234c-3.751 0-6.266-1.6-6.266-3.65a3.26 3.26 0 0 1 .659-1.879zm-.908-6.853a29.257 29.257 0 0 1 2.742-.149 11 11 0 0 1 4.371.662l-.557 2.5c-.021.064-.042.107-.083.107a.151.151 0 0 1-.082-.021 9.415 9.415 0 0 0-4.226-.769 20.449 20.449 0 0 0-2.536.171z"/><path data-name="パス 785" d="M124.006 38.707v-.085c0-.086.021-.107.083-.107a1.329 1.329 0 0 1 .247.064 7.488 7.488 0 0 0 2.8.619 6.819 6.819 0 0 0 .907-.064c.206-.022.391-.064.6-.086a22.724 22.724 0 0 0 .578-3.586c.144 0 1.793.043 2.762.149.289.043.412.129.412.235 0 .15-.247.342-.577.385-.144.661-.33 1.473-.536 2.22a26.843 26.843 0 0 0 4.226-1.516l.186 2.9a62.873 62.873 0 0 1-5.051 1.324c-.453 1.238-1.031 2.54-1.34 3.309a.7.7 0 0 0-.061.213c0 .022 0 .022.02.022a.444.444 0 0 0 .206-.086 10.84 10.84 0 0 1 4.989-1.324c3.278 0 4.906 1.836 4.906 3.928 0 1.345-.948 6.191-10.411 6.191h-.535c-.1 0-.145-.021-.186-.107a17.833 17.833 0 0 0-1.752-2.8c1.072.107 2.041.149 2.907.149 5.462 0 7.132-2.092 7.132-3.394 0-.9-.8-1.622-2.267-1.622a7.63 7.63 0 0 0-5.855 2.881c-.33 0-2.453-.149-2.453-.149-.185-.021-.268-.021-.268-.149a1.156 1.156 0 0 1 .041-.192c.412-1.473 1.588-4.184 2.33-6.383a10.87 10.87 0 0 1-1.4.106 7.674 7.674 0 0 1-2.35-.362z"/><path data-name="パス 786" d="M149.137 53.458a12.451 12.451 0 0 1-1.175-5.636v-.214c.083-4.867 1.279-8.9 1.361-11.292 0-.107.021-.171.082-.171s2.763.812 2.783.812c.227.085.351.191.351.3 0 .128-.186.256-.6.278-.433 2.22-1.691 6.19-1.732 8.795 0 .469 0 .768.062.768.082 0 .227-.384 1.567-3.927a16.628 16.628 0 0 0 .907 2.412c-1.3 3.671-1.546 4.568-1.546 6.02a8.6 8.6 0 0 0 .082 1.173v.043a.161.161 0 0 1-.123.171zm7.752-6.276a5.753 5.753 0 0 0-.66.854.805.805 0 0 0-.1.362c0 .7 1.257 1.217 3.422 1.217h.123a12.543 12.543 0 0 0 4.247-.875s-.309 2.049-.33 2.861a.14.14 0 0 1-.082.106 18.113 18.113 0 0 1-4.02.6c-3.608 0-5.916-1.58-5.916-3.437a3.449 3.449 0 0 1 1.195-2.3zm-2.289-8.6a12.606 12.606 0 0 0 3.422.4 29.568 29.568 0 0 0 4.969-.491l-.021 2.583c0 .064-.021.107-.083.107a26.1 26.1 0 0 1-4.391.384 14.327 14.327 0 0 1-4-.469z"/><path data-name="パス 787" d="M175.938 49.893c.206.107.309.213.309.32 0 .128-.206.213-.515.213h-.165c-1.546 3.117-2.494 3.8-2.535 3.8s-.062-.021-.1-.042a13.875 13.875 0 0 0-2.454-.918 10.442 10.442 0 0 0 3.216-4.248 21.23 21.23 0 0 1 2.244.875zm-4.1-14.367h5.814v5.247c2.515-.576 3.69-1.836 4.123-3.351h-3.34v-1.985h10.411a22.635 22.635 0 0 1-.288 4.184c-.434 1.942-1.918 2.348-3.546 2.348-.206 0-.392-.021-.6-.021-.1 0-.186 0-.207-.107a10.791 10.791 0 0 0-1.2-1.943 6.34 6.34 0 0 1-3.133 2.476.15.15 0 0 1-.083.022.111.111 0 0 1-.1-.043 12.579 12.579 0 0 0-2.041-1.43v7.173h-2.1v-.683h-1.65v1.259l-2.061-.022zm3.711 4.761v-2.69h-1.65v2.69zm0 5.08v-3.031h-1.65v3.031zm1.3 8.56a17.739 17.739 0 0 0 .083-1.772 15.3 15.3 0 0 0-.186-2.647l2.33-.106a18.629 18.629 0 0 1 .35 3.671c0 .3 0 .555-.02.747zm2.165-11.121h9.049v5.891h-2.288v-.4h-4.555v.619h-2.206zm3.669 6.489a19.55 19.55 0 0 1 1.711 4.227l-2.535.448a18.294 18.294 0 0 0-1.423-4.333zm3.092-2.839V44.62h-4.555v1.836zm-1.752-9.03a7.455 7.455 0 0 1-.886 2.284 9.939 9.939 0 0 0 1.711.213c1.566 0 1.608-.853 1.67-2.5zm2.268 11.549a16.915 16.915 0 0 1 3.319 3.693l-2.206 1.409a14.617 14.617 0 0 0-3.134-4.056z"/><path data-name="パス 788" d="M201.729 39.881c-.186 1.43-.618 3.181-.824 4.611a11.013 11.013 0 0 1 6.1-2.028c3.443 0 5.134 1.964 5.134 4.184 0 1.6-1.093 6.447-10.555 6.447h-.722c-.1 0-.165-.022-.185-.107a11.935 11.935 0 0 0-1.608-2.668c.886.064 1.711.106 2.473.106 6.638 0 7.731-2.6 7.731-3.714 0-1-.845-1.836-2.556-1.836-2.33 0-5.175 1.644-6 3.48-.185 0-2.206.042-2.371.042-.082 0-.1 0-.1-.106a47.11 47.11 0 0 1 .619-6.255c.165-1.131.288-2.028.309-2.6a.142.142 0 0 1 .144-.15h.041zm-1.608-3.928c.557-.021 1.113-.021 1.67-.021a27.921 27.921 0 0 1 5.751.512l-.721 2.711c-.021.043-.041.107-.083.107-.02 0-.041-.021-.061-.021a16.646 16.646 0 0 0-5.772-.833c-.6 0-1.238.021-1.9.043z"/><path data-name="パス 789" d="M221.686 38.835a.121.121 0 0 1 .123-.128.181.181 0 0 1 .1.021 8.219 8.219 0 0 0 3.4.854 9.347 9.347 0 0 0 1.629-.149l.8-.128a24.064 24.064 0 0 1-2.144-3.224s2.165-.512 2.825-.6c.062 0 .124-.021.165-.021.165 0 .247.064.247.149 0 .107-.1.257-.33.406a16.5 16.5 0 0 0 1.629 2.711l.247-.064a9.718 9.718 0 0 0 3.257-1.494l1.67 1.964a.162.162 0 0 1 .021.085.113.113 0 0 1-.042.086 15.046 15.046 0 0 1-3.381 1.494l-.206.064c1.856 2.455 3.773 4.931 4.061 6.4 0 0-2 .683-2.411.747a.785.785 0 0 0-.1.022c-.042 0-.062-.022-.083-.022a9.673 9.673 0 0 0-4.659-1c-1.134 0-3.69.149-3.69 1.622 0 1.431 1.959 1.879 4.226 1.879h.165a21.537 21.537 0 0 0 4.638-.79 24.678 24.678 0 0 0-.639 2.925c0 .191-.041.234-.206.256a24.558 24.558 0 0 1-3.752.384c-1.9 0-7.008-.662-7.008-4.419 0-3.544 4.123-4.2 6.514-4.2h.35a18.042 18.042 0 0 1 2.412.128.727.727 0 0 1 .124.021c.041 0 .061-.021.061-.042 0-.107-.041-.406-2.267-3.267a20.763 20.763 0 0 1-4.164.6 9.786 9.786 0 0 1-3.567-.6z"/><path data-name="パス 790" d="M243.89 51.216c-.124-.021-.186-.064-.186-.128a.357.357 0 0 1 .082-.192c.846-1.281 1.918-2.754 2.845-4.142a41.915 41.915 0 0 0 2.33-3.948l.041-.342a33.731 33.731 0 0 1-3.112 1.452l-1.464-2.327a.685.685 0 0 1-.083-.192c0-.064.062-.107.165-.107a17.422 17.422 0 0 0 4.638-1.238c.062-1.175.1-2.284.1-3.224a23 23 0 0 0-.041-1.3s2 .107 2.845.214c.268.042.392.128.392.235 0 .128-.165.277-.515.341a270.29 270.29 0 0 0-.434 4.995c2.784-2.818 4.247-3.053 5.134-3.053 1.4 0 2.638.94 2.638 3.523a11.628 11.628 0 0 1-.1 1.388 39.068 39.068 0 0 0-.639 4.632v.042c0 .769.289 1.068.721 1.068.949 0 2.578-1.43 3.34-2.605a29.693 29.693 0 0 0 .289 3.352c0 .555-2.288 2.135-4.123 2.135-1.546 0-2.824-.94-2.824-3.395v-.277a42.887 42.887 0 0 1 .721-4.825 8.306 8.306 0 0 0 .1-1.3c0-.982-.268-1.281-.618-1.281-.454 0-1.938.6-4.907 4.334-.061 1.131-.1 2.22-.1 3.373 0 1.451.062 3.01.186 4.824l-2.721.064c0-2.3.02-4.184.1-5.891-.783 1.558-1.567 3.137-2.268 4.482z"/><path data-name="パス 791" d="M268.852 39.241a.928.928 0 0 1-.1-.257c0-.085.083-.107.268-.107 3.464-.063 9.112-1.729 14.987-2.3a.428.428 0 0 0 .227-.085.593.593 0 0 1 .227-.086 7.724 7.724 0 0 1 1.175 2.647c0 .128-.062.193-.165.193a1.23 1.23 0 0 1-.33-.086 9.122 9.122 0 0 0-2.907.576c-1.793.7-5.236 3.779-5.236 6.511 0 3.16 3.525 3.907 6.968 4.013a23.548 23.548 0 0 0-2 2.754c-.041.064-.082.086-.123.086h-.062c-.578-.086-7.36-1.2-7.36-6.532 0-2.2 1.237-4.7 3.793-6.81-2.783.491-5.71 1.6-8.183 1.985z"/><path data-name="パス 792" d="M302.952 48.185a.187.187 0 0 1 .041.128c0 .022-.021.064-.021.085-1.236 2.711-2.453 3.928-3.813 3.928a3.557 3.557 0 0 1-1.793-.6c-2.784-1.687-3.526-4.718-3.526-9.265 0-.875.062-2.071.062-3.053 0-.277 0-.534-.02-.768 0-.128 0-.171.082-.171.144 0 3.319.256 3.319.64 0 .129-.207.278-.577.342-.062.619-.268 3.159-.268 4.718 0 1.942.309 3.864 2.02 4.867a1.081 1.081 0 0 0 .556.192c.681 0 1.237-1 2.206-3.885a17.923 17.923 0 0 0 1.732 2.842zm5.318 1.2c-.041.022-.061.043-.1.043s-.061-.064-.061-.192c0-.149.02-.277.02-.427a14.394 14.394 0 0 0-4.453-9.628l2.536-.832c2.659 2.391 4.679 6.6 4.679 9.521v.256z"/><path data-name="パス 793" d="M317.964 47.182a.2.2 0 0 1-.062-.107c0-.192 1.938-1.665 3.67-3.159a49.2 49.2 0 0 0 4.865-4.868c.02-.021.041-.021.041-.042h-.021a.221.221 0 0 0-.1.021 14.58 14.58 0 0 1-4.514.939h-.268l-.907-2.561v-.064c0-.065.02-.086.061-.086h.042a7.3 7.3 0 0 0 1.463.128 20.014 20.014 0 0 0 6.143-1.11c.227-.085.289-.213.413-.213.247 0 2.226 1.494 2.226 1.836 0 .149-.206.213-.474.32a670.616 670.616 0 0 1-5.3 4.91c-.041.043-.061.064-.061.085s.02.021.041.021a.121.121 0 0 0 .082-.021 8.675 8.675 0 0 1 2.8-.534c2.865 0 5.483 1.687 5.483 4.611 0 3.459-3.484 6.191-7.545 6.191-3.422 0-5.051-1.708-5.051-3.33 0-1.324 1.052-2.626 3.113-2.626a3.6 3.6 0 0 1 3.835 3.181 3.752 3.752 0 0 0 2.885-3.309c0-1.366-1.051-2.54-3.277-2.54a9.592 9.592 0 0 0-1.051.085 8.333 8.333 0 0 0-6.02 3.586c-.041.064-.082.107-.124.107s-.061-.021-.123-.043zm7.648 3.671c0-1.516-1.587-1.516-1.67-1.516-.247 0-.927.043-.927.641 0 .128.041 1.089 2.577 1.174a1.613 1.613 0 0 0 .02-.299z"/><path data-name="パス 794" d="M345.322 37.173a.659.659 0 0 1-.041-.171c0-.064.02-.085.082-.085a.219.219 0 0 1 .1.021 7.738 7.738 0 0 0 1.835.192 15.4 15.4 0 0 0 3.752-.576c.226-.064.309-.342.536-.342.144 0 2.1 1.11 2.1 1.388 0 .128-.206.235-.433.3a42.5 42.5 0 0 0-3.257 5.507 19.234 19.234 0 0 1 4.185.769 18.578 18.578 0 0 0 .227-3.117c0-.235 0-.3.144-.3.165 0 2 .449 2.556.619.33.085.454.214.454.32 0 .193-.33.385-.577.406a20.926 20.926 0 0 1-.434 2.946 14.8 14.8 0 0 1 3.629 2.306l-1.728 2.152c-.021.022-.062.064-.1.064a.075.075 0 0 1-.062-.021 12.515 12.515 0 0 0-2.515-1.943 9 9 0 0 1-6.246 5.594.211.211 0 0 1-.165-.086 15.047 15.047 0 0 0-2.515-2.049c3.484-.363 5.566-2.007 6.638-4.5a15.577 15.577 0 0 0-4.617-.9c-1.856 4.035-3.4 5.657-5.257 5.657a2.469 2.469 0 0 1-2.412-2.669c0-3.116 3.009-5.016 6.122-5.315.7-1.387 1.547-3.01 2.206-4.227a11.307 11.307 0 0 1-2.7.47 4.627 4.627 0 0 1-.784-.064zm-1.9 11.036c0 .32.145.47.371.47.825 0 1.691-1.537 2.412-2.924-1.172.318-2.78 1.17-2.78 2.451z"/><path data-name="パス 795" d="M366.619 52.773c1.381-3.479 3.38-8.9 4.205-11.7a12.257 12.257 0 0 1-1.711.15 6.789 6.789 0 0 1-1.876-.256l-.309-2.455c0-.043-.021-.086-.021-.128 0-.064.021-.086.083-.086a.379.379 0 0 1 .144.022 7.216 7.216 0 0 0 2.35.4 10.282 10.282 0 0 0 1.9-.192 19.658 19.658 0 0 0 .371-3.18s2.206.213 2.846.319c.329.065.453.193.453.3 0 .17-.247.341-.619.383-.062.406-.185 1-.309 1.581a28.983 28.983 0 0 0 2.6-.748l-.021 2.711c-1.072.235-2.164.47-3.175.683-.721 2.669-2.844 8.646-3.978 12.488zm10.431-5.037a2.1 2.1 0 0 0-.577 1.131c0 .79 1.607 1.323 3.339 1.323a12.978 12.978 0 0 0 3.587-.6 27.044 27.044 0 0 0-.6 2.839c-.021.064-.041.128-.124.15a14 14 0 0 1-2.536.234c-3.751 0-6.266-1.6-6.266-3.65a3.254 3.254 0 0 1 .66-1.879zm-.908-6.853a29.257 29.257 0 0 1 2.742-.149 10.983 10.983 0 0 1 4.37.662l-.556 2.5c-.021.064-.041.107-.082.107a.154.154 0 0 1-.083-.021 9.415 9.415 0 0 0-4.226-.769 20.462 20.462 0 0 0-2.536.171z"/><path data-name="パス 796" d="M400.264 48.185a.187.187 0 0 1 .041.128c0 .022-.021.064-.021.085-1.237 2.711-2.453 3.928-3.813 3.928a3.563 3.563 0 0 1-1.794-.6c-2.783-1.687-3.525-4.718-3.525-9.265 0-.875.062-2.071.062-3.053 0-.277 0-.534-.021-.768 0-.128 0-.171.082-.171.145 0 3.32.256 3.32.64 0 .129-.207.278-.578.342-.062.619-.268 3.159-.268 4.718 0 1.942.309 3.864 2.02 4.867a1.084 1.084 0 0 0 .557.192c.68 0 1.237-1 2.206-3.885a17.921 17.921 0 0 0 1.732 2.842zm5.318 1.2c-.041.022-.062.043-.1.043s-.062-.064-.062-.192c0-.149.021-.277.021-.427a14.394 14.394 0 0 0-4.453-9.628l2.535-.832c2.66 2.391 4.68 6.6 4.68 9.521v.256z"/><path data-name="パス 797" d="M417.211 47.886a3.113 3.113 0 0 1 3.051 3.159 3.1 3.1 0 0 1-3.051 3.16 3.1 3.1 0 0 1-3.051-3.16 3.113 3.113 0 0 1 3.051-3.159zm0 4.547a1.363 1.363 0 0 0 1.34-1.388 1.362 1.362 0 0 0-1.34-1.387 1.362 1.362 0 0 0-1.341 1.387 1.363 1.363 0 0 0 1.341 1.388z"/></g></svg>