<svg xmlns="http://www.w3.org/2000/svg" width="375.556" height="173.033"><g data-name="グループ 1513"><path data-name="パス 210" d="M208.83 136.151a3.023 3.023 0 0 0-2.07-2.872c-2.981-1-7.942-3.969-12.068-7.236-4.4-3.487-7.317-6.859-8.066-9.2a53.475 53.475 0 0 0 1.741-10.7 54.163 54.163 0 0 0 .01-6.034 28.338 28.338 0 0 0-.191-1.956 12.439 12.439 0 0 1-.119-3.458.964.964 0 0 1 .944-.744 9.437 9.437 0 0 1 3.086 1.388 42.673 42.673 0 0 1 3.792 2.638c.763.568 1.522 1.14 2.3 1.679a30.4 30.4 0 0 0 4.293 2.523 28.71 28.71 0 0 0 1.942.84 5.5 5.5 0 0 1-2.848.1 10.077 10.077 0 0 1-1.913-.577 10.914 10.914 0 0 0-3-.782 8.346 8.346 0 0 0-4.918 1.388 3.031 3.031 0 0 0 3.058 5.233 3.278 3.278 0 0 1 1.46-.582 5.207 5.207 0 0 1 1.526.482 10.518 10.518 0 0 0 1.641.582c3.372.8 6.253.506 8.562-.873 1.512-.911 3.988-3.267 4.212-5.738a3.682 3.682 0 0 0-1.293-3.167 5.4 5.4 0 0 0-2.3-1.04 23.22 23.22 0 0 1-1.774-.577 20.811 20.811 0 0 1-2.786-1.288 39.534 39.534 0 0 1-4.57-3.1 41.518 41.518 0 0 0-5.166-3.449c-1.565-.84-5.228-2.79-8.724-.849a7.067 7.067 0 0 0-3.134 3.554 11.072 11.072 0 0 0-.363 5.185 49.29 49.29 0 0 1-1.536 18.7v.057l-.029.066c-1.274 5.362-14.143 14.868-20.334 16.934a3.021 3.021 0 0 0-2.075 2.872c0 16.037-11.543 31.892-11.658 32.045a3.032 3.032 0 0 0 2.433 4.837h22.724a3.033 3.033 0 0 0 3.029-3.029v-13.022a8.83 8.83 0 1 1 17.659 0v13.022a3.033 3.033 0 0 0 3.029 3.029h22.719a3.03 3.03 0 0 0 2.438-4.832c-.119-.157-11.663-16.012-11.663-32.049z"/><path data-name="パス 213" d="M44.633 85.754a4.323 4.323 0 0 0-8.321.1l-10.046 27.408-6.358-16.4a4.322 4.322 0 0 0-8.321.1l-11.213 30.6a6.249 6.249 0 0 0 .659 5.59 4.292 4.292 0 0 0 3.519 1.927l8.609-.011a1.388 1.388 0 0 1 .04.339v12.859a2.514 2.514 0 1 0 5.028 0v-12.854c0-3-2-5.356-4.556-5.356l-8.605.007a1.3 1.3 0 0 1 .029-.763l10.68-29.176 11.307 29.162a1.339 1.339 0 0 1 .043.771h-4.42a2.514 2.514 0 0 0 0 5.028h4.924a4.29 4.29 0 0 0 3.548-1.973 6.255 6.255 0 0 0 .594-5.652l-1.358-3.5 7.471-.007a1.388 1.388 0 0 1 .04.339v12.859a2.514 2.514 0 0 0 5.028 0v-12.852c0-2.82-1.769-5.039-4.1-5.306l10.943-6.008 2.01 5.187a1.34 1.34 0 0 1 .043.771h-4.42a2.514 2.514 0 0 0 0 5.028h4.921a4.3 4.3 0 0 0 3.548-1.967 6.266 6.266 0 0 0 .594-5.651zm-4.135 3.253l1.924 4.957-4.675 2.568zm-5.165 14.113l8.771-4.82 1.131 2.921-11.523 6.332zM29.8 118.706a1.069 1.069 0 0 1 .022-.519l1.48-4.049 15.615-8.58 1.2 3.087z"/><path data-name="パス 214" d="M118.724 102.757a3.412 3.412 0 0 0-6.568.082l-7.93 21.634-5.018-12.943a3.412 3.412 0 0 0-6.568.08l-8.851 24.15a4.933 4.933 0 0 0 .52 4.413 3.388 3.388 0 0 0 2.778 1.521l6.8-.009a1.1 1.1 0 0 1 .031.267v10.15a1.985 1.985 0 1 0 3.969 0v-10.15c0-2.371-1.578-4.228-3.6-4.228l-6.793.006a1.028 1.028 0 0 1 .023-.6l8.43-23.03 8.925 23.019a1.057 1.057 0 0 1 .034.608h-3.489a1.985 1.985 0 0 0 0 3.969h3.887a3.386 3.386 0 0 0 2.8-1.552 4.937 4.937 0 0 0 .469-4.461l-1.072-2.761 5.9-.006a1.1 1.1 0 0 1 .031.267v10.15a1.985 1.985 0 0 0 3.969 0v-10.15a3.966 3.966 0 0 0-3.236-4.188l8.638-4.742 1.587 4.094a1.058 1.058 0 0 1 .034.609h-3.489a1.984 1.984 0 0 0 0 3.969h3.887a3.393 3.393 0 0 0 2.8-1.553 4.946 4.946 0 0 0 .469-4.461zm-3.264 2.567l1.518 3.912-3.691 2.027zm-4.077 11.14l6.923-3.8.893 2.306-9.1 5zm-4.367 12.304a.844.844 0 0 1 .017-.409l1.169-3.2 12.325-6.772.944 2.437z"/><g data-name="グループ 1512"><path data-name="パス 6" d="M256.905 11.047a1.291 1.291 0 0 0 .218.018h.008a1.162 1.162 0 0 0 .537-.143l1.62-.889a1.1 1.1 0 0 1 1.02-.016l1.652.83a1.163 1.163 0 0 0 1.668-1.256l-.343-1.817a1.1 1.1 0 0 1 .3-.975l1.3-1.313a1.151 1.151 0 0 0 .277-1.2 1.136 1.136 0 0 0-.955-.779l-1.834-.232a1.127 1.127 0 0 1-.808-.525l-.88-2.11a1.151 1.151 0 0 0-1.058-.634 1.185 1.185 0 0 0-1.062.737l-.755 2.015a1.093 1.093 0 0 1-.812.61l-1.823.3a1.164 1.164 0 0 0-.612 2l1.347 1.268a1.094 1.094 0 0 1 .331.963l-.281 1.826a1.17 1.17 0 0 0 .949 1.327zm.275-5.473l-.321-.3.434-.071a2.974 2.974 0 0 0 2.227-1.725l.158-.42.2.483a2.954 2.954 0 0 0 2.256 1.579l.434.054-.309.313a2.954 2.954 0 0 0-.8 2.631l.083.43-.394-.2a2.954 2.954 0 0 0-2.754.048l-.382.21.067-.434a2.962 2.962 0 0 0-.9-2.602z"/><path data-name="パス 7" d="M257.466 45.261a1.3 1.3 0 0 0 .218.018h.008a1.206 1.206 0 0 0 .537-.143l1.621-.891a1.1 1.1 0 0 1 1.02-.016l1.65.832a1.165 1.165 0 0 0 1.668-1.258l-.343-1.817a1.1 1.1 0 0 1 .3-.975l1.3-1.311a1.154 1.154 0 0 0 .277-1.2 1.131 1.131 0 0 0-.955-.778l-1.834-.234a1.131 1.131 0 0 1-.808-.525l-.881-2.11a1.151 1.151 0 0 0-1.058-.634 1.185 1.185 0 0 0-1.062.737l-.755 2.017a1.092 1.092 0 0 1-.812.608l-1.824.3a1.164 1.164 0 0 0-.612 2l1.347 1.268a1.094 1.094 0 0 1 .331.963l-.281 1.825a1.17 1.17 0 0 0 .949 1.327zm.275-5.473l-.321-.3.436-.071a2.972 2.972 0 0 0 2.223-1.725l.158-.42.2.483a2.943 2.943 0 0 0 2.254 1.579l.434.054-.309.313a2.953 2.953 0 0 0-.8 2.631l.083.432-.394-.2a2.95 2.95 0 0 0-2.752.049l-.384.21.067-.434a2.962 2.962 0 0 0-.895-2.6z"/><path data-name="パス 8" d="M209.121 54.296a1.279 1.279 0 0 0 .216.018h.008a1.2 1.2 0 0 0 .537-.143l1.622-.891a1.1 1.1 0 0 1 1.02-.016l1.65.832a1.17 1.17 0 0 0 1.226-.111 1.158 1.158 0 0 0 .444-1.147l-.343-1.817a1.09 1.09 0 0 1 .3-.975l1.3-1.311a1.162 1.162 0 0 0 .277-1.2 1.133 1.133 0 0 0-.955-.777l-1.836-.234a1.125 1.125 0 0 1-.808-.525l-.88-2.11a1.149 1.149 0 0 0-1.058-.634 1.19 1.19 0 0 0-1.062.737l-.753 2.017a1.1 1.1 0 0 1-.812.608l-1.824.3a1.165 1.165 0 0 0-.614 2l1.347 1.268a1.088 1.088 0 0 1 .331.963l-.279 1.826a1.16 1.16 0 0 0 .483 1.135 1.2 1.2 0 0 0 .463.187zm.273-5.473l-.319-.3.434-.073a2.974 2.974 0 0 0 2.227-1.725l.158-.42.2.483a2.949 2.949 0 0 0 2.256 1.579l.434.055-.311.313a2.962 2.962 0 0 0-.8 2.633l.083.43-.394-.2a2.95 2.95 0 0 0-2.752.049l-.384.21.069-.434a2.963 2.963 0 0 0-.901-2.599z"/><path data-name="パス 9" d="M194.943 30.132a.989.989 0 0 0 .218.018h.008a1.161 1.161 0 0 0 .537-.143l1.62-.888a1.1 1.1 0 0 1 1.02-.018l1.652.832a1.163 1.163 0 0 0 1.668-1.256l-.343-1.817a1.1 1.1 0 0 1 .3-.975l1.3-1.313a1.151 1.151 0 0 0 .277-1.2 1.133 1.133 0 0 0-.955-.779l-1.834-.234a1.115 1.115 0 0 1-.808-.525l-.88-2.11a1.155 1.155 0 0 0-1.058-.634 1.187 1.187 0 0 0-1.062.739l-.755 2.015a1.1 1.1 0 0 1-.812.61l-1.824.3a1.166 1.166 0 0 0-.612 2l1.347 1.266a1.1 1.1 0 0 1 .331.965l-.281 1.826a1.156 1.156 0 0 0 .485 1.133 1.12 1.12 0 0 0 .461.188zm.275-5.471l-.321-.3.434-.071a2.969 2.969 0 0 0 2.227-1.727l.158-.42.2.485a2.947 2.947 0 0 0 2.256 1.577l.434.055-.309.313a2.957 2.957 0 0 0-.8 2.633l.083.43-.394-.2a2.96 2.96 0 0 0-2.755.048l-.382.212.067-.436a2.958 2.958 0 0 0-.899-2.598z"/><path data-name="パス 10" d="M162.231 23.373a1.283 1.283 0 0 0 .218.018h.006a1.214 1.214 0 0 0 .539-.143l1.62-.891a1.1 1.1 0 0 1 1.02-.016l1.652.832a1.165 1.165 0 0 0 1.668-1.258l-.343-1.817a1.1 1.1 0 0 1 .3-.975l1.3-1.311a1.158 1.158 0 0 0 .277-1.2 1.131 1.131 0 0 0-.955-.777l-1.836-.234a1.117 1.117 0 0 1-.806-.525l-.881-2.11a1.151 1.151 0 0 0-1.058-.634 1.185 1.185 0 0 0-1.062.737l-.755 2.017a1.1 1.1 0 0 1-.812.608l-1.824.3a1.164 1.164 0 0 0-.612 2l1.347 1.268a1.1 1.1 0 0 1 .331.963l-.281 1.825a1.161 1.161 0 0 0 .485 1.135 1.175 1.175 0 0 0 .462.188zm.273-5.473l-.319-.3.434-.073a2.97 2.97 0 0 0 2.227-1.725l.158-.42.2.483a2.949 2.949 0 0 0 2.256 1.579l.434.055-.309.313a2.956 2.956 0 0 0-.8 2.633l.083.43-.394-.2a2.954 2.954 0 0 0-2.755.048l-.382.21.067-.434a2.958 2.958 0 0 0-.9-2.596z"/><path data-name="パス 11" d="M134.266 15.253a.982.982 0 0 0 .218.018h.008a1.154 1.154 0 0 0 .537-.143l1.62-.889a1.1 1.1 0 0 1 1.02-.018l1.652.832a1.165 1.165 0 0 0 1.668-1.256l-.343-1.817a1.094 1.094 0 0 1 .3-.975l1.3-1.313a1.154 1.154 0 0 0 .277-1.2 1.131 1.131 0 0 0-.955-.777l-1.834-.234a1.125 1.125 0 0 1-.808-.525l-.88-2.11a1.154 1.154 0 0 0-1.058-.634 1.187 1.187 0 0 0-1.062.739l-.755 2.015a1.1 1.1 0 0 1-.812.61l-1.824.3a1.166 1.166 0 0 0-.612 2l1.347 1.266a1.1 1.1 0 0 1 .331.965l-.281 1.826a1.156 1.156 0 0 0 .485 1.133 1.13 1.13 0 0 0 .461.187zm.275-5.473l-.321-.3.434-.071a2.969 2.969 0 0 0 2.227-1.727l.158-.42.2.485a2.945 2.945 0 0 0 2.254 1.577l.434.055-.309.313a2.958 2.958 0 0 0-.8 2.633l.083.43-.394-.2a2.956 2.956 0 0 0-2.752.049l-.384.212.067-.436a2.964 2.964 0 0 0-.897-2.599z"/><path data-name="パス 12" d="M95.054 31.761a.98.98 0 0 0 .218.018h.008a1.154 1.154 0 0 0 .537-.143l1.62-.889a1.1 1.1 0 0 1 1.022-.018l1.65.832a1.163 1.163 0 0 0 1.668-1.255l-.343-1.818a1.1 1.1 0 0 1 .3-.975l1.3-1.313a1.151 1.151 0 0 0 .277-1.2 1.133 1.133 0 0 0-.955-.779l-1.833-.234a1.119 1.119 0 0 1-.808-.525l-.88-2.11a1.155 1.155 0 0 0-1.058-.634 1.187 1.187 0 0 0-1.062.739l-.755 2.015a1.1 1.1 0 0 1-.812.61l-1.824.3a1.166 1.166 0 0 0-.612 2l1.347 1.266a1.1 1.1 0 0 1 .331.965l-.281 1.826a1.156 1.156 0 0 0 .485 1.133 1.13 1.13 0 0 0 .46.189zm.275-5.471l-.321-.3.436-.071a2.97 2.97 0 0 0 2.225-1.727l.158-.42.2.485a2.94 2.94 0 0 0 2.254 1.577l.434.055-.309.313a2.957 2.957 0 0 0-.8 2.633l.083.43-.394-.2a2.956 2.956 0 0 0-2.753.048l-.384.212.067-.436a2.958 2.958 0 0 0-.897-2.598z"/></g><g data-name="グループ 1522" transform="translate(332.545 83.079)" fill="#1a1311"><path data-name="パス 215" d="M31.126 54.963a1.906 1.906 0 0 1-1.906-1.906V39.855c0-2.273 1.514-4.053 3.449-4.053h6.5a.96.96 0 0 0-.023-.563l-8.07-22.02-8.533 22.008a.974.974 0 0 0-.029.575h2.4a1.904 1.904 0 1 1 0 3.808h-2.792a3.249 3.249 0 0 1-2.685-1.489 4.727 4.727 0 0 1-.448-4.273l8.963-23.114a3.406 3.406 0 0 1 3.131-2.344h.029a3.427 3.427 0 0 1 3.135 2.421l8.471 23.116a4.668 4.668 0 0 1-.5 4.225 3.252 3.252 0 0 1-2.664 1.457h-6.5a1.114 1.114 0 0 0-.027.245v13.2a1.905 1.905 0 0 1-1.901 1.909z"/><path data-name="パス 216" d="M12.447 46.567a1.905 1.905 0 0 1-1.9-1.9v-13.2c0-2.271 1.513-4.051 3.446-4.051h6.5a.97.97 0 0 0-.025-.565L12.4 4.831 3.867 26.839a.981.981 0 0 0-.029.577h3.328a1.904 1.904 0 1 1 0 3.808H3.448a3.248 3.248 0 0 1-2.685-1.489 4.727 4.727 0 0 1-.446-4.273L9.276 2.344A3.4 3.4 0 0 1 12.407 0h.029a3.422 3.422 0 0 1 3.133 2.421l8.473 23.114a4.667 4.667 0 0 1-.5 4.225 3.243 3.243 0 0 1-2.664 1.46h-6.5a.972.972 0 0 0-.029.243v13.2a1.9 1.9 0 0 1-1.902 1.904z"/><circle data-name="楕円形 5" cx="1.809" cy="1.809" r="1.809" transform="translate(13.413 9.429)"/><circle data-name="楕円形 6" cx="1.809" cy="1.809" r="1.809" transform="translate(11.758 15.279)"/><circle data-name="楕円形 7" cx="1.809" cy="1.809" r="1.809" transform="translate(8.717 20.858)"/><circle data-name="楕円形 8" cx="1.809" cy="1.809" r="1.809" transform="translate(7.866 10.06)"/><circle data-name="楕円形 9" cx="1.809" cy="1.809" r="1.809" transform="translate(5.365 15.946)"/><circle data-name="楕円形 10" cx="1.809" cy="1.809" r="1.809" transform="translate(15.222 20.486)"/><circle data-name="楕円形 11" cx="1.809" cy="1.809" r="1.809" transform="translate(12.643 26.164)"/></g><g data-name="グループ 1523" transform="translate(253.096 83.868)" fill="#1a1311"><path data-name="パス 215" d="M37.257 65.787a2.281 2.281 0 0 1-2.281-2.281V47.708c0-2.721 1.812-4.851 4.128-4.851h7.778a1.15 1.15 0 0 0-.027-.673l-9.659-26.357-10.214 26.342a1.166 1.166 0 0 0-.035.688h2.878a2.279 2.279 0 1 1 0 4.558h-3.342a3.888 3.888 0 0 1-3.213-1.782 5.658 5.658 0 0 1-.537-5.114l10.728-27.666a4.077 4.077 0 0 1 3.748-2.806h.035a4.1 4.1 0 0 1 3.752 2.9l10.141 27.666a5.587 5.587 0 0 1-.594 5.057 3.892 3.892 0 0 1-3.188 1.744h-7.783a1.333 1.333 0 0 0-.032.293v15.8a2.281 2.281 0 0 1-2.283 2.28z"/><path data-name="パス 216" d="M14.898 55.738a2.28 2.28 0 0 1-2.279-2.279v-15.8c0-2.719 1.812-4.848 4.125-4.848h7.781a1.161 1.161 0 0 0-.03-.676L14.838 5.778 4.624 32.12a1.174 1.174 0 0 0-.035.691h3.987a2.279 2.279 0 1 1 0 4.557H4.125a3.888 3.888 0 0 1-3.213-1.782 5.658 5.658 0 0 1-.534-5.115L11.104 2.804a4.071 4.071 0 0 1 3.748-2.806h.035a4.1 4.1 0 0 1 3.75 2.9l10.139 27.666a5.586 5.586 0 0 1-.6 5.057 3.881 3.881 0 0 1-3.188 1.747h-7.781a1.165 1.165 0 0 0-.035.291v15.8a2.279 2.279 0 0 1-2.274 2.279z"/><circle data-name="楕円形 5" cx="2.165" cy="2.165" r="2.165" transform="translate(16.054 11.286)"/><circle data-name="楕円形 6" cx="2.165" cy="2.165" r="2.165" transform="translate(14.073 18.288)"/><circle data-name="楕円形 7" cx="2.165" cy="2.165" r="2.165" transform="translate(10.434 24.966)"/><circle data-name="楕円形 8" cx="2.165" cy="2.165" r="2.165" transform="translate(9.415 12.041)"/><circle data-name="楕円形 9" cx="2.165" cy="2.165" r="2.165" transform="translate(6.422 19.087)"/><circle data-name="楕円形 10" cx="2.165" cy="2.165" r="2.165" transform="translate(18.22 24.521)"/><circle data-name="楕円形 11" cx="2.165" cy="2.165" r="2.165" transform="translate(15.133 31.317)"/></g></g></svg>