<svg xmlns="http://www.w3.org/2000/svg" width="200.753" height="90.112"><g data-name="グループ 17" fill="#fff"><g data-name="グループ 1" transform="translate(54.682)"><path data-name="パス 1" d="M27.246 27.806a13.329 13.329 0 0 0 .406-4.1 7.294 7.294 0 0 0-.05-.5 3.239 3.239 0 0 1-.031-.886.24.24 0 0 1 .242-.191 2.442 2.442 0 0 1 .792.355 10.907 10.907 0 0 1 .971.676c.2.146.391.293.592.432a7.786 7.786 0 0 0 1.1.647c.164.078.331.151.5.217a1.4 1.4 0 0 1-.73.024 2.484 2.484 0 0 1-.49-.146 2.788 2.788 0 0 0-.771-.2 2.2 2.2 0 0 0-1.262.356.739.739 0 0 0-.379.653.824.824 0 0 0 .41.7.736.736 0 0 0 .754-.012.781.781 0 0 1 .374-.149 1.324 1.324 0 0 1 .391.123 2.764 2.764 0 0 0 .42.149 2.867 2.867 0 0 0 2.2-.224 2.293 2.293 0 0 0 1.08-1.471.943.943 0 0 0-.33-.812 1.38 1.38 0 0 0-.593-.267 7.055 7.055 0 0 1-.455-.147 5.207 5.207 0 0 1-.714-.331 10.271 10.271 0 0 1-1.172-.794 10.591 10.591 0 0 0-1.326-.885 2.329 2.329 0 0 0-2.237-.218 1.812 1.812 0 0 0-.8.911 2.843 2.843 0 0 0-.093 1.33 12.731 12.731 0 0 1-.336 4.549.781.781 0 0 0-.1.121l-7.728 12.305a.935.935 0 0 0 .791 1.434h5.061a.937.937 0 0 0 .936-.935l.015-4.194 3.282.015v4.178a.937.937 0 0 0 .937.935h5.226a.936.936 0 0 0 .793-1.434zm2.269 12.088v-3.559a1.571 1.571 0 0 0-1.569-1.57h-3.268a1.572 1.572 0 0 0-1.57 1.57v3.559h-3.324l6.61-10.524 6.611 10.524z"/><path data-name="パス 2" d="M10.12 28.82H8.506a.385.385 0 0 0-.385.385v4.609H2.389v-4.613a.385.385 0 0 0-.385-.385H.389a.384.384 0 0 0-.384.385v11.965a.384.384 0 0 0 .384.384h1.615a.384.384 0 0 0 .385-.384v-5.045h5.737v5.045a.384.384 0 0 0 .385.384h1.614a.384.384 0 0 0 .385-.384V29.205a.385.385 0 0 0-.39-.385z"/><path data-name="パス 3" d="M50.446 34.684a2.877 2.877 0 0 0 1.351-2.619c0-2.682-2.392-3.245-4.4-3.245h-4.983a.384.384 0 0 0-.385.385v11.919a.384.384 0 0 0 .385.384h4.506c3.694 0 5.567-1.221 5.567-3.629a3.176 3.176 0 0 0-2.041-3.195zm-3.418 4.625h-2.706v-3.295h3.183c2.22 0 2.476.93 2.476 1.63 0 .415 0 1.665-2.953 1.665zm1.607-5.823a2.7 2.7 0 0 1-1.375.332h-2.937v-2.8h3.491a1.755 1.755 0 0 1 1.187.376 1.161 1.161 0 0 1 .4.9 1.29 1.29 0 0 1-.767 1.192z"/><rect data-name="長方形 1" width="2.445" height="12.734" rx=".449" transform="translate(59.662 28.819)"/><path data-name="パス 4" d="M79.232 39.247h-6.628V29.205a.384.384 0 0 0-.385-.385h-1.677a.385.385 0 0 0-.385.385V41.17a.384.384 0 0 0 .385.384h8.69a.384.384 0 0 0 .384-.384v-1.538a.384.384 0 0 0-.384-.385z"/><path data-name="パス 5" d="M94.919 39.247h-7.1v-3.122h6.382a.384.384 0 0 0 .385-.385v-1.538a.384.384 0 0 0-.385-.385h-6.382v-2.691h6.942a.384.384 0 0 0 .384-.385v-1.538a.384.384 0 0 0-.384-.385H85.81a.384.384 0 0 0-.384.385v11.965a.384.384 0 0 0 .384.384h9.1a.384.384 0 0 0 .385-.384V39.63a.385.385 0 0 0-.376-.383z"/><path data-name="パス 6" d="M80.266 4.683a.547.547 0 0 0 .092.008.493.493 0 0 0 .228-.061l.687-.377a.468.468 0 0 1 .432-.007l.7.352a.493.493 0 0 0 .707-.533l-.146-.771a.465.465 0 0 1 .127-.414l.551-.557a.488.488 0 0 0 .117-.508.482.482 0 0 0-.405-.331l-.778-.1a.478.478 0 0 1-.343-.223l-.373-.895a.488.488 0 0 0-.449-.269.5.5 0 0 0-.45.313l-.32.855a.464.464 0 0 1-.344.259l-.773.127a.494.494 0 0 0-.259.847l.571.538a.464.464 0 0 1 .14.408l-.119.774a.5.5 0 0 0 .4.563zm.116-2.321l-.136-.128.184-.03a1.261 1.261 0 0 0 .945-.731l.067-.178.086.2a1.253 1.253 0 0 0 .957.67l.184.023-.131.133a1.253 1.253 0 0 0-.341 1.116l.035.182-.167-.083a1.253 1.253 0 0 0-1.168.021l-.162.089.028-.184a1.256 1.256 0 0 0-.381-1.1z"/><path data-name="パス 7" d="M80.504 19.194a.552.552 0 0 0 .092.008.511.511 0 0 0 .228-.061l.688-.378a.468.468 0 0 1 .432-.007l.7.353a.494.494 0 0 0 .707-.534l-.146-.771a.465.465 0 0 1 .127-.414l.551-.556a.489.489 0 0 0 .117-.509.48.48 0 0 0-.405-.33l-.778-.1a.48.48 0 0 1-.343-.223l-.373-.895a.488.488 0 0 0-.449-.269.5.5 0 0 0-.45.313l-.32.856a.463.463 0 0 1-.344.258l-.773.127a.494.494 0 0 0-.259.847l.571.538a.464.464 0 0 1 .14.408l-.119.774a.5.5 0 0 0 .4.563zm.116-2.321l-.136-.128.185-.03a1.26 1.26 0 0 0 .944-.731l.067-.178.086.2a1.248 1.248 0 0 0 .956.67l.184.023-.131.133a1.252 1.252 0 0 0-.341 1.116l.035.183-.167-.084a1.251 1.251 0 0 0-1.167.021l-.163.089.028-.184a1.256 1.256 0 0 0-.38-1.1z"/><path data-name="パス 8" d="M60.003 23.026a.543.543 0 0 0 .092.008.508.508 0 0 0 .228-.061l.688-.378a.468.468 0 0 1 .432-.007l.7.353a.5.5 0 0 0 .52-.047.491.491 0 0 0 .188-.486l-.146-.771a.462.462 0 0 1 .126-.414l.552-.556a.493.493 0 0 0 .117-.509.481.481 0 0 0-.405-.33l-.778-.1a.477.477 0 0 1-.343-.223l-.373-.895a.487.487 0 0 0-.449-.269.5.5 0 0 0-.45.313l-.319.856a.464.464 0 0 1-.344.258l-.773.127a.494.494 0 0 0-.26.847l.571.538a.462.462 0 0 1 .14.408l-.118.774a.492.492 0 0 0 .2.481.508.508 0 0 0 .204.083zm.116-2.321l-.135-.127.184-.031a1.261 1.261 0 0 0 .945-.731l.067-.178.086.2a1.251 1.251 0 0 0 .957.67l.184.023-.132.133a1.256 1.256 0 0 0-.341 1.117l.035.182-.167-.084a1.251 1.251 0 0 0-1.167.021l-.163.089.029-.184a1.257 1.257 0 0 0-.382-1.1z"/><path data-name="パス 9" d="M53.99 12.778a.418.418 0 0 0 .092.008.492.492 0 0 0 .228-.061l.687-.377a.465.465 0 0 1 .432-.008l.7.353a.493.493 0 0 0 .707-.533l-.146-.771a.465.465 0 0 1 .127-.414l.551-.557a.488.488 0 0 0 .117-.508.48.48 0 0 0-.405-.331l-.778-.1a.473.473 0 0 1-.343-.223l-.373-.895a.49.49 0 0 0-.449-.269.5.5 0 0 0-.45.313l-.32.855a.466.466 0 0 1-.344.259l-.773.126a.494.494 0 0 0-.259.848l.571.537a.466.466 0 0 1 .14.409l-.119.774a.49.49 0 0 0 .206.48.475.475 0 0 0 .201.085zm.116-2.32l-.136-.128.184-.03a1.259 1.259 0 0 0 .945-.732l.067-.178.086.206a1.25 1.25 0 0 0 .957.669l.184.023-.131.133a1.254 1.254 0 0 0-.341 1.117l.035.182-.167-.084a1.255 1.255 0 0 0-1.168.021l-.162.09.028-.185a1.254 1.254 0 0 0-.381-1.104z"/><path data-name="パス 10" d="M40.118 9.913a.546.546 0 0 0 .093.008.515.515 0 0 0 .229-.061l.687-.378a.468.468 0 0 1 .432-.007l.7.353a.494.494 0 0 0 .707-.534l-.146-.771a.467.467 0 0 1 .126-.414l.552-.556a.491.491 0 0 0 .117-.509.48.48 0 0 0-.405-.33l-.778-.1a.474.474 0 0 1-.342-.223l-.373-.895a.488.488 0 0 0-.449-.269.5.5 0 0 0-.45.313l-.32.856a.464.464 0 0 1-.344.258l-.773.127a.494.494 0 0 0-.259.847l.571.538a.464.464 0 0 1 .14.408l-.119.774a.493.493 0 0 0 .206.481.5.5 0 0 0 .198.084zm.116-2.321l-.135-.127.184-.031a1.26 1.26 0 0 0 .945-.731l.067-.178.086.2a1.251 1.251 0 0 0 .957.67l.184.023-.131.133a1.254 1.254 0 0 0-.341 1.117l.035.182-.167-.084a1.253 1.253 0 0 0-1.168.021l-.162.089.028-.184a1.254 1.254 0 0 0-.382-1.1z"/><path data-name="パス 11" d="M28.259 6.469a.417.417 0 0 0 .092.008.49.49 0 0 0 .228-.061l.687-.377a.465.465 0 0 1 .432-.008l.7.353a.494.494 0 0 0 .707-.533l-.146-.771a.464.464 0 0 1 .127-.414l.551-.557a.489.489 0 0 0 .117-.509.48.48 0 0 0-.405-.33l-.778-.1a.477.477 0 0 1-.343-.223l-.373-.895a.49.49 0 0 0-.449-.269.5.5 0 0 0-.45.313l-.32.855a.466.466 0 0 1-.344.259l-.773.126a.494.494 0 0 0-.259.848l.571.537a.466.466 0 0 1 .14.409l-.119.774a.49.49 0 0 0 .206.48.479.479 0 0 0 .201.085zm.116-2.321l-.136-.127.184-.03a1.259 1.259 0 0 0 .945-.732l.067-.178.087.206a1.249 1.249 0 0 0 .956.669l.184.023-.131.133a1.254 1.254 0 0 0-.341 1.117l.035.182-.167-.084a1.253 1.253 0 0 0-1.167.021l-.163.09.028-.185a1.257 1.257 0 0 0-.381-1.105z"/><path data-name="パス 12" d="M11.632 13.473a.415.415 0 0 0 .092.008.489.489 0 0 0 .228-.061l.687-.377a.467.467 0 0 1 .433-.008l.7.353a.493.493 0 0 0 .707-.533l-.146-.771a.465.465 0 0 1 .127-.414l.551-.557a.488.488 0 0 0 .117-.508.481.481 0 0 0-.405-.331l-.778-.1a.475.475 0 0 1-.343-.223l-.373-.895a.49.49 0 0 0-.449-.269.5.5 0 0 0-.45.313l-.32.855a.466.466 0 0 1-.344.259l-.773.126a.494.494 0 0 0-.26.848l.571.537a.466.466 0 0 1 .14.409l-.119.774a.49.49 0 0 0 .206.48.48.48 0 0 0 .201.085zm.116-2.32l-.136-.128.185-.03a1.259 1.259 0 0 0 .944-.732l.067-.178.087.206a1.247 1.247 0 0 0 .956.669l.184.023-.131.133a1.254 1.254 0 0 0-.341 1.117l.035.182-.167-.084a1.253 1.253 0 0 0-1.167.021l-.163.09.028-.185a1.254 1.254 0 0 0-.383-1.108z"/></g><g data-name="グループ 2"><path data-name="パス 13" d="M22.946 58.438a.543.543 0 0 0-.372-.516 8.655 8.655 0 0 1-2.167-1.3 4.4 4.4 0 0 1-1.448-1.652 9.6 9.6 0 0 0 .313-1.921 9.726 9.726 0 0 0 0-1.083c-.006-.115-.02-.232-.034-.351a2.233 2.233 0 0 1-.021-.621.173.173 0 0 1 .17-.134 1.694 1.694 0 0 1 .554.249 7.664 7.664 0 0 1 .681.474c.137.1.273.2.414.3a5.457 5.457 0 0 0 .771.453c.114.055.231.1.349.151a.987.987 0 0 1-.511.018 1.809 1.809 0 0 1-.343-.1 1.959 1.959 0 0 0-.539-.14 1.5 1.5 0 0 0-.883.249.544.544 0 0 0 .549.939.588.588 0 0 1 .262-.1.935.935 0 0 1 .274.087 1.888 1.888 0 0 0 .295.1 2.014 2.014 0 0 0 1.537-.157 1.608 1.608 0 0 0 .756-1.03.661.661 0 0 0-.232-.569.969.969 0 0 0-.414-.187c-.107-.03-.213-.065-.319-.1a3.736 3.736 0 0 1-.5-.231 7.1 7.1 0 0 1-.82-.556 7.458 7.458 0 0 0-.927-.619 1.628 1.628 0 0 0-1.566-.152 1.269 1.269 0 0 0-.563.638 1.987 1.987 0 0 0-.065.931 8.849 8.849 0 0 1-.276 3.357v.01l-.005.012c-.229.963-2.539 2.669-3.651 3.04a.542.542 0 0 0-.373.516 11.448 11.448 0 0 1-2.093 5.753.544.544 0 0 0 .437.868h4.08a.545.545 0 0 0 .544-.544v-2.338a1.585 1.585 0 1 1 3.17 0v2.338a.545.545 0 0 0 .544.544h4.079a.544.544 0 0 0 .438-.867 11.446 11.446 0 0 1-2.095-5.759z"/><path data-name="パス 14" d="M67.603 60.882a2.4 2.4 0 0 0 2-2.47 2.332 2.332 0 0 0-1.189-2.16 3.887 3.887 0 0 0-1.953-.445h-3.657a.27.27 0 0 0-.27.27v8.374a.27.27 0 0 0 .27.269h1.13a.27.27 0 0 0 .27-.269v-3.363h1.631l2.321 3.507a.268.268 0 0 0 .224.121h1.485a.269.269 0 0 0 .218-.427zm.249-2.427c0 .472-.159 1.1-1.54 1.1h-2.109v-2.131h2.3c1.196-.002 1.351.551 1.351 1.031z"/><path data-name="パス 15" d="M81.77 63.105h-4.973V60.92h4.467a.269.269 0 0 0 .269-.269v-1.076a.27.27 0 0 0-.269-.27h-4.467v-1.883h4.865a.269.269 0 0 0 .269-.27v-1.076a.269.269 0 0 0-.269-.27h-6.264a.269.269 0 0 0-.269.27v8.374a.269.269 0 0 0 .269.269h6.372a.269.269 0 0 0 .269-.269v-1.076a.27.27 0 0 0-.269-.269z"/><path data-name="パス 16" d="M93.1 60.199a5.742 5.742 0 0 0-2.274-.676 6.3 6.3 0 0 1-2.049-.48.613.613 0 0 1-.279-.6.987.987 0 0 1 .575-.919 2.527 2.527 0 0 1 1.266-.3c1.428 0 1.593.707 1.593 1.238v.14a.27.27 0 0 0 .27.27h1.2a.269.269 0 0 0 .269-.278c-.078-2.412-1.875-2.919-3.369-2.919a4.446 4.446 0 0 0-2.22.541 2.447 2.447 0 0 0-1.343 2.258 2 2 0 0 0 .908 1.8 6.475 6.475 0 0 0 2.575.762 5.4 5.4 0 0 1 1.813.469.668.668 0 0 1 .313.631c0 .28 0 1.13-1.938 1.13-1.756 0-1.959-.737-1.959-1.291v-.092a.265.265 0 0 0-.011-.172.268.268 0 0 0-.248-.166h-1.184a.267.267 0 0 0-.2.084.273.273 0 0 0-.074.2 3.542 3.542 0 0 0 .394 1.62 3.389 3.389 0 0 0 3.166 1.421 4.92 4.92 0 0 0 2.436-.541 2.438 2.438 0 0 0 1.3-2.268 2.077 2.077 0 0 0-.93-1.862z"/><path data-name="パス 17" d="M128.31 60.882a2.4 2.4 0 0 0 2-2.47 2.332 2.332 0 0 0-1.189-2.16 3.89 3.89 0 0 0-1.953-.445h-3.66a.27.27 0 0 0-.269.27v8.374a.269.269 0 0 0 .269.269h1.13a.269.269 0 0 0 .269-.269v-3.363h1.631l2.321 3.507a.269.269 0 0 0 .224.121h1.489a.269.269 0 0 0 .218-.427zm.249-2.427c0 .472-.159 1.1-1.539 1.1h-2.11v-2.131h2.3c1.197-.002 1.349.551 1.349 1.031z"/><path data-name="パス 18" d="M141.907 55.807h-6.813a.269.269 0 0 0-.269.27v1.076a.269.269 0 0 0 .269.27h2.6v7a.27.27 0 0 0 .27.269h1.13a.27.27 0 0 0 .27-.269V57.48h2.54a.269.269 0 0 0 .269-.27v-1.13a.269.269 0 0 0-.266-.273z"/><path data-name="パス 19" d="M7.772 61.427H6.566a.269.269 0 0 0-.265.222 1.891 1.891 0 0 1-2.082 1.78c-1.659 0-2.465-.982-2.465-3a3.451 3.451 0 0 1 .7-2.34 2.189 2.189 0 0 1 1.737-.749 1.721 1.721 0 0 1 1.887 1.62.27.27 0 0 0 .265.221h1.281a.269.269 0 0 0 .265-.32 3.418 3.418 0 0 0-3.7-3.071 4.11 4.11 0 0 0-2.817.983 4.71 4.71 0 0 0-1.371 3.689 4.831 4.831 0 0 0 1.057 3.3 3.944 3.944 0 0 0 3.12 1.222c2.278 0 3.577-1.093 3.862-3.248a.269.269 0 0 0-.267-.3z"/><path data-name="パス 20" d="M38.063 55.915h-1.637a.269.269 0 0 0-.252.176l-2.349 6.319-2.281-6.317a.269.269 0 0 0-.253-.178h-1.679a.269.269 0 0 0-.269.269v8.374a.269.269 0 0 0 .269.27h1.13a.27.27 0 0 0 .269-.27v-5.333l1.965 5.425a.269.269 0 0 0 .253.178h1.13a.268.268 0 0 0 .252-.176l2.052-5.5v5.407a.27.27 0 0 0 .269.27h1.13a.27.27 0 0 0 .269-.27v-8.374a.269.269 0 0 0-.268-.27z"/><path data-name="パス 21" d="M47.9 55.915h-3.551a.269.269 0 0 0-.269.269v8.374a.27.27 0 0 0 .269.27h1.066a.27.27 0 0 0 .269-.27v-3.035h2.165a3.314 3.314 0 0 0 2.288-.746 2.6 2.6 0 0 0 .855-2.042 2.726 2.726 0 0 0-.682-1.891 3.08 3.08 0 0 0-2.41-.929zm-2.217 1.615h2.066c.692 0 1.486.133 1.486 1.173 0 .517-.177 1.2-1.712 1.2h-1.84z"/><path data-name="パス 22" d="M160.334 55.833h-1.13a.27.27 0 0 0-.27.269v5.805l-3.744-5.948a.268.268 0 0 0-.228-.126h-1.506a.27.27 0 0 0-.27.269v8.374a.269.269 0 0 0 .27.269h1.13a.269.269 0 0 0 .27-.269v-6.05l3.939 6.195a.271.271 0 0 0 .227.124h1.314a.269.269 0 0 0 .269-.269v-8.374a.269.269 0 0 0-.271-.269z"/><path data-name="パス 23" d="M187.82 60.225a5.738 5.738 0 0 0-2.273-.676 6.278 6.278 0 0 1-2.05-.48.612.612 0 0 1-.279-.6.987.987 0 0 1 .575-.918 2.514 2.514 0 0 1 1.266-.3c1.428 0 1.593.707 1.593 1.238v.14a.269.269 0 0 0 .269.269h1.206a.268.268 0 0 0 .269-.277c-.078-2.413-1.875-2.919-3.369-2.919a4.458 4.458 0 0 0-2.221.54 2.449 2.449 0 0 0-1.343 2.263 2 2 0 0 0 .908 1.8 6.5 6.5 0 0 0 2.575.763 5.394 5.394 0 0 1 1.813.468.668.668 0 0 1 .313.632c0 .279 0 1.13-1.937 1.13-1.756 0-1.959-.736-1.959-1.291v-.092a.274.274 0 0 0-.011-.173.271.271 0 0 0-.249-.166h-1.184a.269.269 0 0 0-.269.284 3.549 3.549 0 0 0 .393 1.619 3.388 3.388 0 0 0 3.158 1.422 4.924 4.924 0 0 0 2.436-.54 2.442 2.442 0 0 0 1.3-2.269 2.078 2.078 0 0 0-.93-1.867z"/><path data-name="パス 24" d="M200.483 55.833h-1.13a.27.27 0 0 0-.27.269v5.07a2.486 2.486 0 0 1-.418 1.632 2.143 2.143 0 0 1-1.637.488 1.729 1.729 0 0 1-1.653-.708 3.64 3.64 0 0 1-.328-1.778v-4.7a.269.269 0 0 0-.269-.269h-1.13a.269.269 0 0 0-.269.269v4.963a4.211 4.211 0 0 0 .832 2.836 3.575 3.575 0 0 0 2.806 1c2.443 0 3.736-1.206 3.736-3.487v-5.307a.269.269 0 0 0-.27-.278z"/><path data-name="パス 25" d="M175.027 52.453a1.028 1.028 0 0 0-1.978.025l-2.388 6.516-1.512-3.9a1.028 1.028 0 0 0-1.978.024l-2.666 7.274a1.486 1.486 0 0 0 .157 1.329 1.02 1.02 0 0 0 .837.458h2.047a.33.33 0 0 1 .009.081v3.057a.6.6 0 1 0 1.2 0V64.26a1.177 1.177 0 0 0-1.083-1.273h-2.046a.31.31 0 0 1 .007-.182l2.534-6.932 2.688 6.933a.318.318 0 0 1 .01.183h-1.051a.6.6 0 0 0 0 1.2h1.171a1.02 1.02 0 0 0 .844-.468 1.487 1.487 0 0 0 .141-1.344l-.323-.832h1.776a.33.33 0 0 1 .009.081v3.047a.6.6 0 0 0 1.2 0v-3.057a1.2 1.2 0 0 0-.975-1.261l2.6-1.428.478 1.233a.319.319 0 0 1 .01.183h-1.051a.6.6 0 0 0 0 1.2h1.173a1.022 1.022 0 0 0 .844-.468 1.49 1.49 0 0 0 .141-1.344zm-.983.773l.457 1.178-1.112.611zm-1.228 3.355l2.085-1.146.269.695-2.74 1.506zm-1.315 3.706a.254.254 0 0 1 .005-.123l.352-.963 3.712-2.04.284.734z"/><path data-name="パス 26" d="M113.408 58.948a4.18 4.18 0 0 0-1.176.17 7.241 7.241 0 0 0-6.037-3.5c-4.057 0-7.36 3.671-7.52 8.357a.809.809 0 0 0 .807.838h18.14a.808.808 0 0 0 .794-.963c-.561-2.887-2.624-4.902-5.008-4.902zm-13.048 4.246c.452-3.425 2.908-5.962 5.835-5.962a5.737 5.737 0 0 1 4.975 3.268.807.807 0 0 0 1.065.346c1.683-.815 3.545.287 4.321 2.348z"/></g><g data-name="グループ 16"><g data-name="グループ 3"><path data-name="パス 27" d="M25.774 84.356a3.711 3.711 0 0 0 .521.033 24.638 24.638 0 0 0 3.419-.479 2.877 2.877 0 0 1 .339-.19 2.185 2.185 0 0 1 .975 1.074c0 .057 0 .148-.289.215a5.771 5.771 0 0 0-1.727.752 4.64 4.64 0 0 0-.421 1.058 4.507 4.507 0 0 1-2.082 2.552 2.145 2.145 0 0 1-.569.24c-.033 0-.05-.016-.05-.041s.016-.041.165-.157a5.643 5.643 0 0 0 1.479-1.536 3.777 3.777 0 0 0 .619-1.81 1.065 1.065 0 0 0-.107-.487c-.067-.132-.074-.148-.074-.182 0-.066.124-.075.174-.075a1.248 1.248 0 0 1 .445.075 2.5 2.5 0 0 0 .323.107 2.244 2.244 0 0 0 1.024-1.007c0-.058-.05-.124-.157-.124a14.453 14.453 0 0 0-2.949.512 6.194 6.194 0 0 1-.695.24c-.2 0-.843-.529-.843-.818 0-.017.016-.033.058-.033.025-.002.356.073.422.081z"/><path data-name="パス 28" d="M25.939 89.699a.13.13 0 0 1-.139-.13c0-.072.039-.1.2-.227a5.527 5.527 0 0 0 1.458-1.514 3.668 3.668 0 0 0 .605-1.762.965.965 0 0 0-.1-.447c-.071-.141-.084-.167-.084-.222s.026-.164.263-.164a1.332 1.332 0 0 1 .473.079l.068.025a2.035 2.035 0 0 0 .23.078 2.42 2.42 0 0 0 .933-.918c0-.015-.018-.035-.068-.035a14.536 14.536 0 0 0-2.924.509c-.04.011-.121.043-.214.08a2.16 2.16 0 0 1-.506.164c-.244 0-.932-.573-.932-.907a.13.13 0 0 1 .147-.122 1.633 1.633 0 0 1 .209.039c.092.019.191.04.224.044a3.488 3.488 0 0 0 .508.032 24.872 24.872 0 0 0 3.387-.473 1.055 1.055 0 0 0 .105-.064c.16-.1.218-.132.266-.132a2.165 2.165 0 0 1 1.064 1.163c0 .114-.043.23-.358.3a5.977 5.977 0 0 0-1.675.719 4.082 4.082 0 0 0-.377.944l-.033.09a4.571 4.571 0 0 1-2.122 2.6 2.173 2.173 0 0 1-.608.251zm2.128-4.279l.058.119a1.137 1.137 0 0 1 .116.527 3.864 3.864 0 0 1-.633 1.857 5.632 5.632 0 0 1-1.441 1.516c.085-.037.188-.086.3-.146a4.4 4.4 0 0 0 2.041-2.5l.033-.092a4.052 4.052 0 0 1 .4-.988 5.767 5.767 0 0 1 1.782-.788c.218-.05.218-.1.218-.128 0-.235-.743-.971-.886-.985-.015.006-.116.07-.17.1a1.347 1.347 0 0 1-.132.078 24.2 24.2 0 0 1-3.455.486 3.591 3.591 0 0 1-.534-.034c-.036 0-.139-.026-.235-.046l-.129-.027a1.474 1.474 0 0 0 .741.665 3.025 3.025 0 0 0 .441-.152c.1-.039.187-.073.229-.085a14.455 14.455 0 0 1 2.974-.516.225.225 0 0 1 .246.213 2.214 2.214 0 0 1-1.113 1.1 1.141 1.141 0 0 1-.291-.089c-.027-.01-.048-.019-.06-.022a1.145 1.145 0 0 0-.417-.07.334.334 0 0 0-.083.008z"/></g><g data-name="グループ 4"><path data-name="パス 29" d="M39.365 83.951a.344.344 0 0 1 .14.215c0 .075-.132.4-.14.471-.033.289-.05 1.024-.05 1.371a.138.138 0 0 0 .157.149c.165 0 1.966-.876 1.966-1.322 0-.05-.057-.281-.057-.306s.057-.033.116-.033a.851.851 0 0 1 .851.694c0 .19-.124.215-.364.265-.19.041-.933.413-1.09.479-.232.1-1.454.537-1.5.562-.1.066-.1.108-.1.421 0 1.082.157 1.305 1.239 1.305a5.253 5.253 0 0 0 1.206-.148 4.836 4.836 0 0 1 .57-.1.32.32 0 0 1 .331.289c0 .619-1.587.619-2.1.619-1.709 0-1.751-.735-1.751-1.908 0-.3.025-1.595.025-1.868a2.346 2.346 0 0 0-.215-1.156 1.6 1.6 0 0 1-.14-.273c0-.049.116-.074.19-.074.242.001.361.058.716.348zm4.172.487c0 .1-.092.314-.248.314-.123 0-.2-.075-.421-.389a2.385 2.385 0 0 0-.546-.537c-.033-.025-.115-.091-.115-.123s.075-.067.148-.067c.636.004 1.182.455 1.182.804zm.694-.834a.229.229 0 0 1-.206.247c-.174 0-.272-.107-.438-.3a2.1 2.1 0 0 0-.736-.438c-.082-.025-.107-.066-.107-.092 0-.066.206-.107.3-.107 1.022.004 1.187.541 1.187.69z"/><path data-name="パス 30" d="M40.546 88.972c-1.751 0-1.84-.759-1.84-2 0-.152.007-.566.013-.97.006-.386.012-.764.012-.9a2.28 2.28 0 0 0-.2-1.115l-.073-.136c-.072-.132-.078-.143-.078-.178 0-.128.176-.163.279-.163.276 0 .412.078.765.365a.42.42 0 0 1 .176.286 1.2 1.2 0 0 1-.082.294c-.023.069-.057.164-.059.188-.033.286-.049 1.027-.049 1.361 0 .046.016.06.068.06.176-.017 1.877-.875 1.877-1.233 0-.022-.022-.123-.034-.177a.772.772 0 0 1-.023-.128c0-.122.138-.122.2-.122a.931.931 0 0 1 .94.783c0 .261-.19.3-.431.351a7.256 7.256 0 0 0-.817.354c-.118.056-.215.1-.261.121-.128.055-.549.21-.92.346-.265.1-.538.2-.569.212-.048.033-.051.035-.051.343 0 1.069.14 1.216 1.15 1.216a5.146 5.146 0 0 0 1.187-.146 4.957 4.957 0 0 1 .589-.1.406.406 0 0 1 .42.378c-.001.637-1.25.71-2.189.71zm-1.974-5.268l.038.068.074.138a2.451 2.451 0 0 1 .225 1.2c0 .134-.006.513-.012.9-.006.4-.013.816-.013.968 0 1.134 0 1.819 1.662 1.819s2.01-.288 2.01-.53a.233.233 0 0 0-.241-.2 4.807 4.807 0 0 0-.55.1 5.385 5.385 0 0 1-1.226.151c-1.163 0-1.328-.3-1.328-1.394 0-.325 0-.4.139-.5.026-.016.115-.05.6-.227.35-.129.787-.289.912-.343l.254-.118a6.723 6.723 0 0 1 .851-.367c.265-.055.295-.073.295-.177a.77.77 0 0 0-.762-.6h-.015l.008.034a1.473 1.473 0 0 1 .038.215c0 .524-1.852 1.411-2.055 1.411a.227.227 0 0 1-.246-.238c0-.318.015-1.074.051-1.381a1.336 1.336 0 0 1 .068-.225 2.045 2.045 0 0 0 .072-.236.281.281 0 0 0-.1-.142c-.343-.278-.44-.327-.655-.327a.336.336 0 0 0-.094 0zm4.717 1.138c-.175 0-.274-.117-.494-.426a2.355 2.355 0 0 0-.528-.519c-.148-.111-.148-.166-.148-.193 0-.093.1-.156.237-.156.684 0 1.271.49 1.271.891-.001.136-.121.402-.338.402zm-.95-1.115l.037.029a2.5 2.5 0 0 1 .552.54c.229.321.284.367.361.367s.159-.16.159-.225c0-.281-.49-.713-1.093-.713zm1.685.214c-.22 0-.346-.145-.505-.328a2.028 2.028 0 0 0-.7-.411c-.157-.048-.169-.147-.169-.176 0-.188.391-.2.394-.2 1.042 0 1.271.559 1.271.775a.316.316 0 0 1-.291.34zm-1.142-.908a2.188 2.188 0 0 1 .771.462c.17.2.245.268.372.268.089 0 .117-.107.117-.158 0-.006-.03-.6-1.093-.6a.692.692 0 0 0-.167.028z"/></g><g data-name="グループ 5"><path data-name="パス 31" d="M51.478 86.744a2.875 2.875 0 0 1-1.529 1.569.038.038 0 0 1-.041-.04 2.313 2.313 0 0 1 .331-.438 4.375 4.375 0 0 0 1-2.421 1.8 1.8 0 0 0-.14-.71.636.636 0 0 1-.033-.149c0-.025.009-.041.042-.041.057 0 .933.281.933.7a27.98 27.98 0 0 1-.563 1.53zm1.339.768c0-.041.041-.256.049-.3.025-.158.033-.81.033-1.016a5.087 5.087 0 0 0-.157-1.553 2.074 2.074 0 0 1-.108-.3c0-.033.033-.041.05-.041.041 0 .909.148.909.578 0 .1-.115.528-.132.619-.033.223-.066 1.223-.066 1.5 0 .107.009.272.157.272a4.914 4.914 0 0 0 1.8-1.347c.14-.14.843-.884.876-.884a.036.036 0 0 1 .033.033 6.942 6.942 0 0 1-1.924 2.363 4.577 4.577 0 0 0-.57.529c-.14.157-.215.214-.272.223-.241.043-.679-.444-.679-.68z"/><path data-name="パス 32" d="M49.949 88.402a.127.127 0 0 1-.13-.129c0-.068.058-.152.283-.415l.067-.079a4.254 4.254 0 0 0 .98-2.365 1.725 1.725 0 0 0-.136-.683l-.008-.028a.53.53 0 0 1-.03-.148.124.124 0 0 1 .131-.13c.089 0 1.023.3 1.023.791 0 .069-.469 1.34-.569 1.565a2.878 2.878 0 0 1-1.611 1.621zm1.217-3.783l.009.033.008.026a1.865 1.865 0 0 1 .144.735 4.438 4.438 0 0 1-1.017 2.474l-.073.086a5.579 5.579 0 0 0-.174.211 3.149 3.149 0 0 0 1.333-1.476c.134-.3.536-1.43.556-1.51-.001-.275-.575-.511-.786-.575zm2.3 3.662a.618.618 0 0 1-.357-.168 1.011 1.011 0 0 1-.378-.6c0-.059.051-.313.051-.315.021-.14.031-.764.031-1a5.045 5.045 0 0 0-.151-1.52l-.009-.022a1.068 1.068 0 0 1-.105-.308.132.132 0 0 1 .139-.13c.01 0 1 .134 1 .667a3.115 3.115 0 0 1-.1.471 8.767 8.767 0 0 0-.039.164c-.032.213-.064 1.211-.064 1.48 0 .183.042.183.068.183a5 5 0 0 0 1.738-1.321c.041-.04.126-.129.229-.236.649-.674.656-.674.711-.674a.124.124 0 0 1 .122.122 6.764 6.764 0 0 1-1.955 2.43 4.83 4.83 0 0 0-.558.516c-.159.178-.244.244-.33.257a.254.254 0 0 1-.047.004zm-.557-.769a.874.874 0 0 0 .314.465.417.417 0 0 0 .259.125c.026 0 .083-.041.222-.2a4.464 4.464 0 0 1 .578-.537 8.617 8.617 0 0 0 1.748-2.012c-.128.13-.277.286-.38.393s-.19.2-.23.238a4.808 4.808 0 0 1-1.864 1.373c-.163 0-.246-.122-.246-.361 0-.28.033-1.281.067-1.509.006-.033.021-.1.041-.177a3.964 3.964 0 0 0 .09-.429c0-.289-.56-.44-.76-.48l.072.183.009.023a5.158 5.158 0 0 1 .164 1.587c0 .208-.009.867-.034 1.03a2.942 2.942 0 0 0-.054.288z"/></g><g data-name="グループ 6"><path data-name="パス 33" d="M66.465 89.263c0 .157-.057.314-.182.314-.363 0-.5-.719-.562-1.066-.041-.206-.223-1.106-.256-1.3-.033-.149-.075-.257-.224-.257-.033 0-1.016.231-1.421.364a4.38 4.38 0 0 1-.5.215c-.124 0-.951-.364-.951-.611 0-.066.058-.082.1-.082.074 0 .421.033.5.033a9.416 9.416 0 0 0 2.007-.281c.215-.041.272-.074.272-.215a4.957 4.957 0 0 0-.182-.826c-.05-.207-.091-.289-.215-.289a10 10 0 0 0-1.14.313c-.2 0-.752-.3-.752-.446 0-.057.091-.057.165-.057a7.65 7.65 0 0 0 1.273-.14c.289-.066.421-.116.421-.272a2.114 2.114 0 0 0-.471-1.132 3.446 3.446 0 0 1-.38-.3c0-.05.247-.14.43-.14.165 0 .743.182.768.347.016.116.033.594.05.694.074.537.165.537.281.537a5.02 5.02 0 0 0 .719-.223c.355-.158.4-.174.512-.174.265 0 .5.174.5.306 0 .165-.165.2-.768.314a6.635 6.635 0 0 0-.834.182.183.183 0 0 0-.158.206 5.446 5.446 0 0 0 .149.744c.074.28.107.355.256.355a5.509 5.509 0 0 0 1.058-.314 1.692 1.692 0 0 1 .818-.206c.438 0 .619.224.619.364 0 .247-.338.256-.636.256a8.814 8.814 0 0 0-1.487.239c-.347.075-.364.125-.364.282-.01.214.585 1.902.585 2.266z"/><path data-name="パス 34" d="M66.283 89.666c-.432 0-.572-.732-.647-1.125l-.026-.129c-.064-.318-.2-1.017-.234-1.182s-.069-.183-.135-.183-1 .231-1.393.36a1.755 1.755 0 0 0-.165.076 1.208 1.208 0 0 1-.366.143c-.147 0-1.04-.381-1.04-.7a.172.172 0 0 1 .188-.171c.039 0 .146.008.255.016s.2.016.241.016a9.263 9.263 0 0 0 1.989-.279c.2-.039.2-.056.2-.128a3.713 3.713 0 0 0-.138-.644l-.04-.16c-.054-.222-.084-.222-.129-.222a7.508 7.508 0 0 0-.98.269.645.645 0 0 1-.16.045c-.219 0-.841-.309-.841-.535 0-.146.172-.146.254-.146a7.616 7.616 0 0 0 1.254-.139c.3-.069.351-.106.351-.185a2.026 2.026 0 0 0-.44-1.064 2.778 2.778 0 0 0-.118-.087c-.263-.188-.293-.217-.293-.277 0-.161.394-.229.519-.229s.818.17.856.422c.009.059.016.206.025.352s.017.3.024.341c.064.462.124.462.194.462a5.491 5.491 0 0 0 .683-.216c.347-.153.409-.181.547-.181.3 0 .585.2.585.395 0 .24-.212.281-.841.4a6.967 6.967 0 0 0-.82.178c-.1.027-.1.056-.1.122a4.29 4.29 0 0 0 .146.722c.076.288.1.288.17.288a5.659 5.659 0 0 0 1.02-.306 1.781 1.781 0 0 1 .856-.215c.489 0 .708.265.708.453 0 .345-.436.345-.725.345a8.855 8.855 0 0 0-1.466.237c-.3.063-.3.083-.3.194a8.094 8.094 0 0 0 .236.858 8.283 8.283 0 0 1 .36 1.405c.007.243-.102.404-.264.404zm-1.041-2.8c.239 0 .285.212.31.326.03.169.17.865.234 1.182l.023.117c.058.307.189.994.474.994.051 0 .092-.1.092-.225a8.888 8.888 0 0 0-.352-1.354 5.947 5.947 0 0 1-.242-.909c0-.226.076-.292.433-.368a9.07 9.07 0 0 1 1.5-.241c.349 0 .549-.027.549-.167 0-.1-.155-.275-.53-.275a1.6 1.6 0 0 0-.781.2 5.463 5.463 0 0 1-1.094.322c-.23 0-.275-.168-.343-.421a4.456 4.456 0 0 1-.152-.766.269.269 0 0 1 .221-.292 6.684 6.684 0 0 1 .843-.183c.529-.1.7-.138.7-.227 0-.065-.171-.217-.407-.217-.094 0-.122.009-.476.166a4.806 4.806 0 0 1-.754.23c-.2 0-.3-.086-.369-.614-.009-.053-.017-.2-.027-.358-.008-.14-.015-.28-.023-.335a1.287 1.287 0 0 0-.68-.271.851.851 0 0 0-.291.061c.051.04.122.091.169.124s.11.08.131.1a2.192 2.192 0 0 1 .5 1.2c0 .247-.25.3-.491.359a7.7 7.7 0 0 1-1.292.143h-.057a1.384 1.384 0 0 0 .643.325.705.705 0 0 1 .106-.037 6.2 6.2 0 0 1 1.034-.277c.216 0 .264.2.3.357l.041.158a3.6 3.6 0 0 1 .143.689c0 .22-.136.263-.344.3a9.478 9.478 0 0 1-2.024.283c-.039 0-.146-.009-.255-.016s-.2-.017-.241-.017c-.01.15.709.509.852.516a2.129 2.129 0 0 0 .286-.125 1.736 1.736 0 0 1 .191-.087 18.229 18.229 0 0 1 1.45-.367z"/></g><g data-name="グループ 7"><path data-name="パス 35" d="M80.414 86.083c0 .132-.116.173-.265.223a1.856 1.856 0 0 0-.587.364 3.72 3.72 0 0 1-.752.446.043.043 0 0 1-.041-.041c0-.092.719-.86.719-1.066 0-.057-.057-.066-.091-.066s-1.033.24-1.148.265c-.3.074-.331.082-.331.215a19.11 19.11 0 0 0 .711 2.205 2.219 2.219 0 0 1 .231.76c0 .173-.082.347-.173.347a.86.86 0 0 1-.5-.462c-.041-.133-.487-2.057-.6-2.437-.1-.331-.116-.372-.231-.372a4.966 4.966 0 0 0-.933.264c-.339.14-.372.158-.421.158-.083 0-.124-.025-.487-.273a.33.33 0 0 1-.165-.3c0-.05.008-.206.074-.206.025 0 .149.05.182.057a1.312 1.312 0 0 0 .438.066 6.221 6.221 0 0 0 1.157-.148.15.15 0 0 0 .116-.132 1.6 1.6 0 0 0-.405-.926c-.033-.025-.165-.107-.19-.123a.069.069 0 0 1-.016-.042c0-.132.338-.132.413-.132.339 0 .611.066.611.331 0 .4 0 .85.19.85a8.077 8.077 0 0 0 1.223-.256 4.166 4.166 0 0 1 .487-.215c.238 0 .784.431.784.646z"/><path data-name="パス 36" d="M78.687 89.823a.909.909 0 0 1-.581-.526 34.257 34.257 0 0 1-.186-.758 55.116 55.116 0 0 0-.417-1.679c-.092-.308-.1-.308-.146-.308a5.078 5.078 0 0 0-.9.257l-.115.047c-.248.1-.281.117-.342.117-.115 0-.171-.039-.537-.289a.417.417 0 0 1-.2-.371c0-.188.059-.3.164-.3a.484.484 0 0 1 .142.039l.06.021a1.253 1.253 0 0 0 .417.063 6.1 6.1 0 0 0 1.133-.145s.051-.018.051-.046a1.539 1.539 0 0 0-.373-.856 3.235 3.235 0 0 0-.139-.091l-.044-.028a.155.155 0 0 1-.056-.116c0-.221.378-.221.5-.221.174 0 .7 0 .7.42 0 .228 0 .761.1.761a8 8 0 0 0 1.191-.25 1.682 1.682 0 0 0 .154-.073 1.169 1.169 0 0 1 .365-.148c.278 0 .874.461.874.734 0 .2-.173.256-.325.307a1.6 1.6 0 0 0-.519.319l-.044.031a2.9 2.9 0 0 1-.8.464.13.13 0 0 1-.13-.13c0-.062.048-.128.271-.409a3.986 3.986 0 0 0 .442-.629c-.111.018-.52.115-.772.174l-.354.083a.95.95 0 0 0-.256.08.135.135 0 0 0 0 .048 20.212 20.212 0 0 0 .7 2.173 2.256 2.256 0 0 1 .238.793c-.004.217-.109.442-.266.442zm-1.331-3.449c.187 0 .219.11.317.435.072.237.265 1.042.42 1.69.09.375.167.7.182.747a.823.823 0 0 0 .415.4.4.4 0 0 0 .081-.258 2.184 2.184 0 0 0-.225-.728 18.362 18.362 0 0 1-.717-2.238c0-.2.1-.227.4-.3l.353-.083c.672-.158.788-.184.817-.184a.159.159 0 0 1 .18.155c0 .145-.193.4-.486.767-.049.062-.1.13-.148.189.134-.075.347-.212.568-.368l.042-.031a1.765 1.765 0 0 1 .568-.344c.167-.057.2-.08.2-.139 0-.156-.5-.556-.7-.556a2.32 2.32 0 0 0-.285.129 1.791 1.791 0 0 1-.174.081 7.9 7.9 0 0 1-1.251.26c-.279 0-.279-.456-.279-.939 0-.112-.059-.242-.522-.242a.783.783 0 0 0-.3.039c.051.033.127.081.151.1a1.676 1.676 0 0 1 .44 1 .235.235 0 0 1-.176.217 6.2 6.2 0 0 1-1.185.152 1.4 1.4 0 0 1-.466-.07l-.071-.024-.057-.02a.508.508 0 0 0-.011.108.243.243 0 0 0 .127.224c.342.233.383.257.437.257a1.271 1.271 0 0 0 .273-.1l.114-.048a4.9 4.9 0 0 1 .968-.278z"/></g><g data-name="グループ 8"><path data-name="パス 37" d="M89.572 87.949a5.783 5.783 0 0 0-.81.677c-.157.19-.174.206-.3.206-.447 0-1.058-.528-1.058-.859 0-.058.009-.438.082-.438a2.09 2.09 0 0 1 .248.157 1.368 1.368 0 0 0 .562.19 13.721 13.721 0 0 0 3.965-2.817c.133-.132.364-.363.38-.363a.053.053 0 0 1 .041.041 11.244 11.244 0 0 1-3.11 3.206zm-.678-2.718c-.223 0-.306-.132-.578-.545a1.869 1.869 0 0 0-.752-.678c-.033-.016-.075-.041-.075-.074s.066-.075.182-.075c.884 0 1.577.471 1.577.958a.365.365 0 0 1-.354.414z"/><path data-name="パス 38" d="M88.465 88.922c-.482 0-1.147-.55-1.147-.948 0-.527.12-.527.171-.527s.086.026.223.122a.722.722 0 0 0 .066.045 1.307 1.307 0 0 0 .522.181 14.136 14.136 0 0 0 3.9-2.792c.389-.389.394-.389.443-.389a.139.139 0 0 1 .13.13 10.656 10.656 0 0 1-3.151 3.277 5.163 5.163 0 0 0-.794.663c-.153.188-.195.238-.363.238zm-.943-1.267a1.921 1.921 0 0 0-.026.319c0 .272.57.77.969.77.085 0 .085 0 .229-.174a5.315 5.315 0 0 1 .826-.693 13.262 13.262 0 0 0 2.847-2.787l-.039.039c-1.334 1.318-3.574 2.843-4.028 2.843a1.451 1.451 0 0 1-.609-.2c-.006 0-.041-.027-.081-.056a.744.744 0 0 0-.088-.061zm1.372-2.334c-.266 0-.367-.152-.637-.562l-.015-.023a1.753 1.753 0 0 0-.69-.632l-.032-.018c-.026-.012-.119-.058-.119-.151s.111-.164.271-.164c.9 0 1.667.48 1.667 1.047a.45.45 0 0 1-.441.502zm-1.252-1.37a1.922 1.922 0 0 1 .748.687l.015.023c.262.4.324.482.488.482s.266-.124.266-.324c0-.411-.611-.869-1.488-.869z"/></g><g data-name="グループ 9"><path data-name="パス 39" d="M98.518 84.34a1.946 1.946 0 0 0 .686.174 21.316 21.316 0 0 0 3.115-.389c.256-.116.289-.132.347-.132.182 0 .314.116.57.339.372.331.42.421.42.537s-.041.148-.189.3a1.361 1.361 0 0 0-.322.521 8.407 8.407 0 0 1-4.263 3.849.055.055 0 0 1-.058-.049c0-.033.025-.05.108-.108a10.757 10.757 0 0 0 3.263-3.271 4.659 4.659 0 0 0 .562-1.4c0-.14-.14-.148-.182-.148a27.158 27.158 0 0 0-2.974.594 2.991 2.991 0 0 1-.413.182c-.19 0-.851-.414-.851-.868 0-.157.025-.182.075-.182.015.001.089.051.106.051zm6.651-.553a.8.8 0 1 1-1.595 0 .785.785 0 0 1 .809-.785.769.769 0 0 1 .785.784zm-1.321.025a.525.525 0 0 0 1.049-.009.553.553 0 0 0-.529-.521.532.532 0 0 0-.518.529z"/><path data-name="パス 40" d="M98.882 89.625a.143.143 0 0 1-.147-.138c0-.08.051-.115.141-.178a10.668 10.668 0 0 0 3.241-3.245 4.716 4.716 0 0 0 .55-1.353c0-.019 0-.059-.092-.059a27.87 27.87 0 0 0-2.942.588c-.022.009-.065.03-.115.056a1.014 1.014 0 0 1-.331.133c-.224 0-.94-.442-.94-.957 0-.094 0-.271.164-.271a.206.206 0 0 1 .1.036l.026.014.025.009a1.877 1.877 0 0 0 .647.164 22.079 22.079 0 0 0 3.079-.381l.036-.016c.236-.107.272-.123.347-.123.214 0 .361.127.625.358.367.325.455.444.455.607 0 .145-.063.207-.216.361a1.3 1.3 0 0 0-.3.5 8.355 8.355 0 0 1-4.353 3.895zm3.693-5.151a.239.239 0 0 1 .271.237 4.625 4.625 0 0 1-.574 1.44 10.4 10.4 0 0 1-3.118 3.18 8.271 8.271 0 0 0 3.911-3.683 1.438 1.438 0 0 1 .342-.547c.149-.149.161-.167.161-.232s-.027-.146-.391-.471c-.259-.225-.368-.316-.51-.316-.034 0-.063.012-.273.108l-.037.016a21.027 21.027 0 0 1-3.151.4 2.029 2.029 0 0 1-.715-.178.3.3 0 0 1-.061-.027v.074c0 .4.626.779.762.779a2.207 2.207 0 0 0 .25-.114c.058-.029.108-.053.131-.062a26.181 26.181 0 0 1 3.001-.604zm1.8.2a.9.9 0 0 1-.891-.891.878.878 0 0 1 .9-.874.86.86 0 0 1 .874.874.9.9 0 0 1-.883.894zm.008-1.587a.693.693 0 0 0-.72.7.708.708 0 1 0 1.416 0 .682.682 0 0 0-.696-.697zm0 1.306a.6.6 0 0 1-.625-.585.616.616 0 0 1 .609-.618.64.64 0 0 1 .618.61.6.6 0 0 1-.602.596zm-.018-1.022a.445.445 0 0 0-.431.44.436.436 0 0 0 .871-.009.467.467 0 0 0-.44-.431z"/></g><g data-name="グループ 10"><path data-name="パス 41" d="M112.076 83.596c.2 0 .653.289.653.43 0 .041-.017.231-.017.272 0 .958.017 1.7.026 1.9.008.1.049.512.049.594 0 .215-.19.422-.313.422-.182 0-.372-.438-.372-.653 0-.066.041-.347.041-.413.016-.372.016-.694.016-.843 0-.926-.041-1.115-.3-1.413-.066-.075-.108-.123-.108-.189s.135-.107.325-.107zm2.272-.231c-.1-.132-.108-.149-.108-.165s0-.05.24-.05c.5 0 .909.206.909.421a3.263 3.263 0 0 1-.082.331c-.033.223-.042 1.463-.066 1.751a5.234 5.234 0 0 1-2.066 3.834 3.326 3.326 0 0 1-.743.487c-.033 0-.051-.017-.051-.042s.538-.562.636-.669a5.986 5.986 0 0 0 1.653-4.792 1.581 1.581 0 0 0-.322-1.106z"/><path data-name="パス 42" d="M112.431 90.064a.132.132 0 0 1-.14-.131c0-.05 0-.059.471-.536.086-.086.158-.16.189-.193a5.945 5.945 0 0 0 1.629-4.732 1.5 1.5 0 0 0-.3-1.054c-.108-.143-.125-.17-.125-.218 0-.139.16-.139.329-.139.541 0 1 .234 1 .51a.879.879 0 0 1-.049.217 1.211 1.211 0 0 0-.035.129c-.017.116-.028.566-.038.963-.009.335-.016.65-.027.781a5.3 5.3 0 0 1-2.1 3.9 3.11 3.11 0 0 1-.804.503zm1.935-6.822l.053.069a1.668 1.668 0 0 1 .338 1.158 6.092 6.092 0 0 1-1.677 4.853c-.031.033-.1.109-.193.2l-.223.227c.131-.087.3-.208.452-.331a5.129 5.129 0 0 0 2.032-3.771c.011-.125.019-.438.027-.77.01-.421.021-.857.04-.987a1.526 1.526 0 0 1 .04-.152.915.915 0 0 0 .041-.165c0-.134-.344-.332-.82-.332a.948.948 0 0 0-.11.001zm-1.893 4.063c-.266 0-.461-.521-.461-.742 0-.034.01-.126.021-.217s.021-.164.021-.2c.016-.374.016-.69.016-.843 0-.945-.049-1.09-.276-1.355a.377.377 0 0 1-.129-.247c0-.146.212-.2.412-.2.221 0 .742.307.742.519 0 .021 0 .082-.009.142s-.009.111-.009.13c0 .975.017 1.71.026 1.9l.013.141c.02.216.036.4.036.457a.52.52 0 0 1-.404.514zm-.627-3.581a.389.389 0 0 0 .081.111c.276.32.32.526.32 1.472 0 .153 0 .473-.016.847 0 .031-.01.122-.021.213s-.02.164-.02.2c0 .2.182.564.283.564a.367.367 0 0 0 .224-.333c0-.055-.022-.3-.036-.441l-.013-.146c-.008-.19-.026-.929-.026-1.907 0-.021 0-.082.009-.142s.009-.11.009-.13a.98.98 0 0 0-.563-.341.564.564 0 0 0-.231.032z"/></g><g data-name="グループ 11"><path data-name="パス 43" d="M124.958 85.763c0 .4-.289.446-.338.446-.182 0-.215-.05-.578-.678a3.751 3.751 0 0 0-.661-.8c-.016-.017-.05-.05-.05-.074s.05-.025.066-.025c.345.072 1.561.303 1.561 1.131zm3.091-.5c-.1.157-.463.925-.545 1.074a7.362 7.362 0 0 1-2.462 2.743 4.507 4.507 0 0 1-.917.454.044.044 0 0 1-.041-.041c0-.033.743-.653.875-.777a8.02 8.02 0 0 0 2.487-4 .622.622 0 0 0-.231-.421c-.009-.009-.041-.041-.041-.066 0-.074.182-.074.215-.074a.744.744 0 0 1 .6.231c.083.075.347.306.347.487-.001.078-.248.334-.289.39zm1.346-1.132c0 .182-.107.331-.239.331-.1 0-.158-.033-.438-.331a2.446 2.446 0 0 0-.628-.438c-.041-.025-.132-.083-.132-.116s.066-.074.14-.083c.791-.096 1.295.383 1.295.639zm-.405-1.346c.678 0 .926.388.926.569a.22.22 0 0 1-.215.24c-.157 0-.215-.05-.43-.231a2.114 2.114 0 0 0-.793-.322c-.082-.017-.123-.05-.123-.074 0-.05.132-.124.281-.149a1.942 1.942 0 0 1 .352-.031z"/><path data-name="パス 44" d="M124.122 89.625a.132.132 0 0 1-.13-.13c0-.057 0-.062.59-.568.14-.122.266-.229.313-.274a8.016 8.016 0 0 0 2.459-3.935.537.537 0 0 0-.2-.352.2.2 0 0 1-.072-.134c0-.109.1-.164.3-.164a.837.837 0 0 1 .66.252c.182.164.379.366.379.556 0 .075-.071.17-.241.364l-.063.074c-.059.094-.217.415-.344.674-.087.177-.164.334-.2.393a7.413 7.413 0 0 1-2.493 2.776 4.183 4.183 0 0 1-.958.468zm3.172-5.372a.683.683 0 0 1 .238.467 8.141 8.141 0 0 1-2.515 4.064c-.048.045-.176.154-.319.278-.1.083-.218.188-.322.277a6.008 6.008 0 0 0 .617-.333 7.241 7.241 0 0 0 2.431-2.71c.033-.058.108-.212.194-.386.136-.277.292-.593.355-.693.012-.017.04-.05.075-.09a1.554 1.554 0 0 0 .2-.256c0-.081-.1-.219-.308-.4a.668.668 0 0 0-.553-.217.593.593 0 0 0-.093-.001zm-2.676 2.043c-.237 0-.293-.1-.655-.723a3.648 3.648 0 0 0-.647-.783.207.207 0 0 1-.075-.137v-.039l.034-.043a.152.152 0 0 1 .117-.033l.057.009c.395.084 1.6.339 1.6 1.212a.475.475 0 0 1-.431.537zm-1.1-1.549a3.431 3.431 0 0 1 .594.736c.367.635.38.635.5.635 0 0 .249-.014.249-.357.006-.664-.906-.916-1.339-1.014zm5.632-.194c-.139 0-.218-.056-.5-.358a2.38 2.38 0 0 0-.608-.422c-.146-.087-.176-.14-.176-.193 0-.1.113-.159.219-.171a1.442 1.442 0 0 1 1.16.314.6.6 0 0 1 .236.41.383.383 0 0 1-.327.42zm-1.067-.963a.54.54 0 0 0 .046.029 2.5 2.5 0 0 1 .646.452c.275.291.316.3.375.3.08 0 .15-.112.15-.241a.44.44 0 0 0-.176-.277 1.317 1.317 0 0 0-1.021-.271zm-.051-.041zm1.662.137c-.188 0-.268-.068-.482-.248a2.026 2.026 0 0 0-.756-.307c-.124-.025-.2-.086-.2-.162 0-.13.212-.212.355-.236a1.983 1.983 0 0 1 .37-.034c.76 0 1.015.452 1.015.659a.306.306 0 0 1-.297.327zm-1.2-.73a2.212 2.212 0 0 1 .83.339c.224.189.256.212.374.212s.126-.135.126-.151c0-.123-.206-.48-.837-.48a1.842 1.842 0 0 0-.337.031.606.606 0 0 0-.155.049z"/></g><g data-name="グループ 12"><path data-name="パス 45" d="M140.935 85.943c.05 0 .141-.009.182-.009.5 0 .579.306.579.364 0 .231-.339.256-.686.256-.19 0-1.017-.017-1.181-.017-1.141 0-3.032.108-3.23.149-.1.016-.546.149-.645.149-.355 0-.735-.513-.735-.793 0-.05.024-.1.066-.1s.24.091.281.1a4.509 4.509 0 0 0 1.008.074c.272 0 3.156-.107 4.361-.173z"/><path data-name="パス 46" d="M135.954 86.924a1.022 1.022 0 0 1-.824-.882.171.171 0 0 1 .155-.188.685.685 0 0 1 .2.065c.041.016.078.032.094.036a4.024 4.024 0 0 0 .99.073c.271 0 3.154-.108 4.357-.174h.181c.546 0 .668.335.668.453 0 .345-.5.345-.775.345-.1 0-.368 0-.628-.009-.241 0-.474-.009-.553-.009-1.115 0-3.019.107-3.212.147-.04.007-.123.029-.219.054a2.678 2.678 0 0 1-.434.089zm-.646-.884c0 .238.349.7.646.7a3.557 3.557 0 0 0 .4-.092c.1-.027.192-.05.231-.056.2-.042 2.094-.151 3.245-.151.08 0 .313 0 .556.009.259 0 .528.009.625.009.3 0 .6-.02.6-.167 0 0-.03-.275-.49-.275h-.177c-1.207.066-4.093.174-4.365.174a4.688 4.688 0 0 1-1.034-.078c-.011 0-.062-.021-.116-.043-.036.002-.087-.02-.121-.03z"/></g><g data-name="グループ 13"><path data-name="パス 47" d="M148.542 83.208c.3 0 .892.264.892.528a2.309 2.309 0 0 1-.1.347 10.759 10.759 0 0 0-.074 1.148c0 .182.033.206.272.265.5.116 1.784.718 1.784 1.339a.282.282 0 0 1-.3.289c-.206 0-.231-.033-.784-.751-.231-.307-.62-.694-.876-.694-.082 0-.116 0-.116.611 0 .876.009 1.314.041 2.057.009.091.016.3.016.421 0 .206 0 .752-.239.752s-.462-.562-.462-.777c0-.033.033-.206.033-.24a16.977 16.977 0 0 0 .075-1.917 11.544 11.544 0 0 0-.1-2.891.911.911 0 0 0-.281-.38l-.016-.033c.013-.074.227-.074.235-.074z"/><path data-name="パス 48" d="M149.063 89.607c-.335 0-.552-.643-.552-.866 0-.018.009-.075.017-.133s.015-.091.015-.108a16.9 16.9 0 0 0 .074-1.916 12.1 12.1 0 0 0-.093-2.86.835.835 0 0 0-.259-.346l-.019-.025-.028-.057v-.026c.014-.127.182-.153.319-.153.331 0 .981.279.981.617a1.434 1.434 0 0 1-.1.366 10.617 10.617 0 0 0-.073 1.13c0 .128 0 .128.2.178.51.116 1.852.732 1.852 1.425a.369.369 0 0 1-.386.378c-.25 0-.283-.044-.85-.778-.254-.336-.61-.667-.811-.667a3.377 3.377 0 0 0-.026.522c0 .882.009 1.324.041 2.054.009.092.016.3.016.425.01.252.01.84-.318.84zm-.617-6.3a.907.907 0 0 1 .246.36c.105.28.105.53.105 2.923a17.271 17.271 0 0 1-.074 1.924c0 .011-.009.069-.017.127s-.015.089-.015.106c0 .215.213.687.373.687.045 0 .15-.064.15-.663 0-.117-.008-.322-.015-.414a39.343 39.343 0 0 1-.042-2.065c0-.576.018-.7.2-.7.384 0 .891.655.947.73.552.716.557.716.713.716a.19.19 0 0 0 .208-.2c0-.534-1.191-1.131-1.715-1.251-.253-.062-.341-.105-.341-.352a10.717 10.717 0 0 1 .075-1.166 2.006 2.006 0 0 0 .1-.331c0-.18-.52-.438-.8-.438a.648.648 0 0 0-.099.007z"/></g><g data-name="グループ 14"><path data-name="パス 49" d="M159.92 83.092a.42.42 0 0 0 .405-.19c.108-.124.165-.149.215-.149.189 0 .677.43.677.578 0 .074-.025.091-.19.248-.1.082-.14.223-.14.537 0 .091.016.553.016.661a13.76 13.76 0 0 1-.528 4.445c-.075.148-.372.768-.892.768-.041 0-.091 0-.1-.041-.091-.348-.1-.405-.521-.611-.082-.042-.313-.149-.313-.2 0-.033.05-.033.074-.033a.545.545 0 0 1 .107.016 4.548 4.548 0 0 0 .521.066.748.748 0 0 0 .793-.611 7.778 7.778 0 0 0 .248-1.512c0-.206-.158-.206-.248-.206h-.809c-.174 0-.256.041-.289.206a5.5 5.5 0 0 1-.231.983 3.536 3.536 0 0 1-1.438 1.834c-.009 0-.016-.009-.016-.025 0-.05.025-.083.173-.257a5.837 5.837 0 0 0 1.041-2.561.154.154 0 0 0-.174-.174c-.091 0-.578.033-.635.033-.033 0-.042-.016-.074-.05l-.158-.19c-.041-.041-.041-.041-.041-.057s.025-.017.033-.017c.124 0 .76.05.9.05a.193.193 0 0 0 .215-.182c.016-.116.058-.777.058-1.124 0-.182-.033-.281-.231-.281-.033 0-.455.009-.62.025-.025 0-.149.016-.174.016s-.041-.016-.074-.05l-.158-.19c-.041-.041-.041-.041-.041-.057s.025-.016.033-.016c.148 0 .884.05 1.049.05.265 0 .265-.067.265-1.041 0-.347 0-.471-.2-.471-.1 0-.587.041-.644.041-.033 0-.05-.025-.075-.057l-.165-.19c-.033-.041-.033-.041-.033-.05s.017-.025.033-.025c.05 0 .306.025.355.033.239.008.669.025 1.14.025zm.149 3.552c.124 0 .256 0 .272-.215 0-.033.009-.2.009-1.074 0-.248-.05-.306-.281-.306h-.661c-.124 0-.247.016-.281.165-.016.057-.091 1.2-.091 1.239 0 .19.116.19.265.19zm-.628-3.33c-.075 0-.206 0-.248.107-.033.075-.05 1.041-.05 1.149 0 .189.017.264.265.264h.669c.158 0 .273-.025.273-.24 0-.164 0-.941-.009-1.074-.009-.206-.165-.206-.272-.206zm4.2-.223a.208.208 0 0 0 .14-.033c.025-.016.124-.19.157-.19s.678.355.678.471c0 .041-.124.116-.191.157-.123.074-.916 1.331-1.106 1.562-.132.173-.149.182-.149.231a.145.145 0 0 0 .058.1c.033.033.24.173.281.206a2.942 2.942 0 0 1 1.09 2.017 1.71 1.71 0 0 1-1.2 1.611c-.108 0-.124-.033-.174-.182a.985.985 0 0 0-.389-.511c-.025-.017-.182-.108-.182-.149 0-.025.033-.025.066-.025.091 0 .529.074.628.074a.735.735 0 0 0 .307-.05c.255-.158.338-.7.338-1.017a2.358 2.358 0 0 0-.636-1.611c-.058-.057-.388-.331-.388-.421a3.181 3.181 0 0 1 .281-.553 5.593 5.593 0 0 0 .479-1.347c0-.116-.091-.116-.157-.116h-.876c-.124 0-.231.016-.256.157-.016.067-.074 3.891-.074 4.206 0 .4 0 .917.033 1.586 0 .05.016.314.016.38a.374.374 0 0 1-.429.379c-.067 0-.207 0-.207-.239 0-.075.042-.446.042-.529.033-.933.091-3.924.091-4.989 0-.207-.016-.86-.033-1.041 0-.041-.058-.247-.058-.3a.081.081 0 0 1 .091-.091 1.873 1.873 0 0 1 .5.182.732.732 0 0 0 .355.075z"/><path data-name="パス 50" d="M161.994 90.112c-.245 0-.3-.178-.3-.328 0-.038.01-.148.021-.261s.021-.227.021-.268c.033-.954.091-3.944.091-4.989 0-.206-.017-.858-.033-1.034a1.111 1.111 0 0 0-.025-.124 1.055 1.055 0 0 1-.033-.181.168.168 0 0 1 .18-.18 1.317 1.317 0 0 1 .436.143l.1.045a.646.646 0 0 0 .32.068h.868a.144.144 0 0 0 .085-.014l.037-.052c.068-.1.109-.158.176-.158.05 0 .767.367.767.56 0 .082-.087.141-.217.223a8.732 8.732 0 0 0-.65.9c-.2.3-.371.551-.45.648l-.068.088a.654.654 0 0 0-.061.083c0 .01.018.026.024.032.025.025.121.092.177.133s.088.062.1.074a3.008 3.008 0 0 1 1.124 2.086 1.8 1.8 0 0 1-1.286 1.7c-.178 0-.212-.1-.259-.243-.06-.2-.136-.271-.363-.474-.146-.089-.212-.143-.212-.215 0-.052.027-.114.155-.114.048 0 .151.014.315.037.119.016.268.038.313.038a.54.54 0 0 0 .257-.035c.2-.12.3-.574.3-.942a2.269 2.269 0 0 0-.612-1.55l-.057-.052c-.272-.243-.355-.343-.355-.43a1.513 1.513 0 0 1 .244-.513c.021-.036.038-.065.047-.083a5.668 5.668 0 0 0 .469-1.309c-.012-.021-.051-.021-.069-.021h-.876c-.139 0-.158.026-.169.084-.015.129-.072 3.831-.072 4.189 0 .386 0 .915.033 1.582 0 .027 0 .094.008.166 0 .087.009.182.009.218a.454.454 0 0 1-.51.473zm-.075-7.187a.966.966 0 0 0 .027.142.8.8 0 0 1 .029.157c.016.176.033.826.033 1.041 0 1.047-.057 4.04-.091 4.993 0 .04-.011.162-.022.281s-.02.21-.02.245c0 .15.055.15.118.15.34 0 .34-.218.34-.29 0-.035 0-.125-.009-.209s-.008-.147-.008-.171c-.033-.667-.033-1.2-.033-1.586 0-.039.054-4.135.076-4.226a.3.3 0 0 1 .343-.225h.876c.164 0 .246.069.246.2a5.508 5.508 0 0 1-.489 1.387l-.051.089a11.07 11.07 0 0 0-.115.2l.013-.015.068-.09c.076-.093.254-.357.442-.637a5.949 5.949 0 0 1 .69-.947 1.619 1.619 0 0 0 .138-.092 3.337 3.337 0 0 0-.562-.355l-.047.066a.314.314 0 0 1-.079.094.287.287 0 0 1-.189.048h-.861a.812.812 0 0 1-.393-.083l-.1-.045a1.388 1.388 0 0 0-.369-.122zm.985 5.537a1.063 1.063 0 0 1 .414.552.509.509 0 0 0 .048.114.106.106 0 0 0 .041 0 1.635 1.635 0 0 0 1.108-1.522 2.824 2.824 0 0 0-1.059-1.948l-.094-.068a2.288 2.288 0 0 1-.189-.141c.068.067.15.14.188.174l.066.061a2.447 2.447 0 0 1 .663 1.674c0 .319-.081.908-.381 1.092a.68.68 0 0 1-.353.063c-.052 0-.168-.016-.337-.039zm.265-3.011zm-.084-.176a.284.284 0 0 0-.021.058.512.512 0 0 0 .087.1.207.207 0 0 1-.067-.145zm-3.6 4.8c-.045 0-.164 0-.187-.112-.087-.331-.1-.365-.472-.55l-.035-.017c-.243-.119-.329-.176-.329-.261 0-.037.015-.122.164-.122a.651.651 0 0 1 .129.019l.131.02a2.845 2.845 0 0 0 .367.044.66.66 0 0 0 .708-.549 7.72 7.72 0 0 0 .244-1.486c0-.1-.036-.117-.159-.117h-.809c-.152 0-.182.03-.2.135l-.021.11a4.937 4.937 0 0 1-.214.885 3.419 3.419 0 0 1-1.522 1.893.109.109 0 0 1-.105-.114c0-.087.045-.14.194-.314a5.787 5.787 0 0 0 1.02-2.5c0-.067-.018-.085-.085-.085-.05 0-.22.01-.371.02-.126.007-.239.014-.265.014a.159.159 0 0 1-.125-.062l-.018-.02-.158-.19c-.04-.039-.062-.061-.062-.114a.11.11 0 0 1 .122-.106c.061 0 .244.012.432.024s.4.026.468.026.115-.027.128-.106c.015-.1.057-.761.057-1.11 0-.174-.027-.192-.142-.192-.035 0-.453.009-.611.024-.021 0-.053.005-.086.009s-.082.009-.1.009a.159.159 0 0 1-.122-.061l-.02-.021-.158-.189c-.04-.04-.062-.062-.062-.115a.11.11 0 0 1 .122-.105c.073 0 .286.011.505.024s.462.026.544.026c.169 0 .176 0 .176-.952 0-.382-.015-.382-.11-.382-.056 0-.234.014-.388.025-.122.009-.23.016-.256.016a.177.177 0 0 1-.143-.088l-.164-.19c-.041-.052-.055-.069-.055-.108a.118.118 0 0 1 .122-.114c.058 0 .32.027.37.034h.039c.242.009.648.023 1.086.023h.859a.336.336 0 0 0 .335-.156c.114-.131.2-.183.285-.183.236 0 .766.462.766.667 0 .106-.041.145-.176.273l-.041.039c-.07.058-.113.158-.113.473 0 .043 0 .17.008.3s.009.3.009.357a12.066 12.066 0 0 1-.538 4.483c-.271.552-.596.827-.971.827zm-.013-.152zm-.007-.027h.017c.3 0 .574-.238.808-.709a11.928 11.928 0 0 0 .524-4.415c0-.056 0-.207-.009-.353s-.008-.265-.008-.308c0-.337.047-.5.173-.605l.037-.035c.121-.115.121-.117.121-.145a1.23 1.23 0 0 0-.588-.489c-.03 0-.08.039-.148.118a.5.5 0 0 1-.472.22h-.859c-.441 0-.849-.014-1.092-.022h-.051a5.826 5.826 0 0 0-.212-.023l.092.107.027.033a1.451 1.451 0 0 1 .224-.022c.159-.012.343-.026.4-.026.288 0 .288.211.288.56 0 1 0 1.13-.354 1.13-.087 0-.325-.014-.554-.027l-.355-.019.106.126a.2.2 0 0 0 .07 0c.042 0 .083-.009.1-.009.157-.016.58-.025.62-.025.32 0 .32.25.32.37 0 .344-.041 1.012-.059 1.136a.281.281 0 0 1-.3.259c-.074 0-.281-.013-.479-.026l-.281-.018.117.137a1.629 1.629 0 0 1 .236-.021c.156-.009.331-.02.382-.02a.241.241 0 0 1 .263.263 6.109 6.109 0 0 1-.945 2.478 3.587 3.587 0 0 0 1.012-1.5 4.627 4.627 0 0 0 .206-.857l.021-.112a.324.324 0 0 1 .378-.279h.809a.286.286 0 0 1 .337.3 7.782 7.782 0 0 1-.252 1.538.831.831 0 0 1-.878.674 2.924 2.924 0 0 1-.395-.045h-.009l.02.009.035.018c.426.208.463.291.555.639zm.606-3.168h-.768c-.141 0-.354 0-.354-.279 0-.009.073-1.186.094-1.264a.327.327 0 0 1 .367-.23h.661c.28 0 .37.1.37.395 0 .735-.006.97-.008 1.047v.027c-.026.31-.246.31-.364.31zm-.661-1.595c-.146 0-.18.031-.194.1a36.4 36.4 0 0 0-.089 1.221c0 .09.006.1.176.1h.768c.134 0 .174-.006.184-.133v-.025c0-.076.008-.311.008-1.042 0-.21-.019-.217-.192-.217zm.669-.215h-.669c-.327 0-.354-.152-.354-.353a11.249 11.249 0 0 1 .057-1.185c.062-.16.25-.16.33-.16h.628c.1 0 .349 0 .361.292.007.11.009.647.009 1.077-.002.335-.259.335-.364.335zm-.635-1.52c-.074 0-.147 0-.165.051-.025.092-.044.957-.044 1.117s0 .175.176.175h.669c.147 0 .184-.017.184-.151 0-.605 0-.985-.008-1.068-.005-.107-.046-.123-.184-.123z"/></g><g data-name="グループ 15"><path data-name="パス 51" d="M171.81 87.016a1.922 1.922 0 0 1 .685.677c0 .066-.025.075-.247.149a22.905 22.905 0 0 1-2.594 1.677c-.025 0-.05-.009-.05-.033 0-.05.215-.224.306-.289a5.944 5.944 0 0 0 1.826-2.066c0-.049.007-.115.074-.115zm-.529-4.147c.033 0 .653.347.653.347a.1.1 0 0 1 .05.092c0 .066-.041.091-.173.157a10.338 10.338 0 0 0-.826.777 3.843 3.843 0 0 1-1.148.793c-.016 0-.033 0-.033-.025 0-.009.355-.389.4-.43a5.7 5.7 0 0 0 .966-1.462 1.862 1.862 0 0 1 .05-.224.1.1 0 0 1 .061-.025zm.331 2.082c.05.033.636.438.661.48 0 .016.009.041.009.066 0 .091-.026.1-.273.182-.107.033-.859.653-1.024.768-.339.24-1.024.695-1.058.695a.03.03 0 0 1-.033-.033 2.464 2.464 0 0 1 .322-.355 8.4 8.4 0 0 0 1.2-1.545 1.233 1.233 0 0 1 .115-.231.113.113 0 0 1 .08-.027zm2.693 3.8c.165.132.174.165.174.206 0 .108-.116.108-.272.124-.067 0-.579.24-.686.281a9.622 9.622 0 0 1-1.95.537c-.025 0-.091-.009-.091-.05 0-.016.016-.025.165-.083a5.789 5.789 0 0 0 2.016-1.131 2.462 2.462 0 0 0 .132-.215c.041-.031.09.009.512.331zm-.611-.546c-.057 0-.206 0-.248.107a.4.4 0 0 1-.389.289c-.223 0-.231-.157-.231-.223 0-.041.041-.57.05-.67.05-.793.058-1.553.058-1.858a9.28 9.28 0 0 0-.067-1.429c0-.05-.049-.273-.049-.314s.041-.057.074-.057a2.954 2.954 0 0 1 .513.256.6.6 0 0 0 .214.033h.14c.124 0 .174-.025.248-.265a2.037 2.037 0 0 0 .091-.553c0-.148-.066-.174-.19-.174h-.272c-.289 0-.636.009-.8.026-.025 0-.149.016-.174.016s-.049-.016-.074-.05l-.157-.19c-.033-.041-.041-.041-.041-.057s.016-.017.033-.017c.057 0 .313.025.363.025.38.017.752.033 1.132.033h1.553c.348 0 .38 0 .446-.066s.331-.438.414-.438c.05 0 .669.471.669.6s-.107.123-.339.123h-1.619c-.182 0-.207.042-.463.414-.057.083-.388.5-.388.537s.05.041.083.041h1.363c.116 0 .149 0 .256-.132.05-.066.132-.174.182-.174s.594.306.594.438c0 .051-.033.083-.14.2a.2.2 0 0 0-.066.174v1.883c0 .224.033 1.231.033 1.438 0 .289-.3.347-.429.347-.1 0-.116-.066-.14-.165-.033-.14-.149-.14-.224-.14zm-.016-2.42c-.256 0-.256.148-.256.264 0 .727 0 .752.264.752h2.011c.256 0 .256-.066.256-.644 0-.248 0-.372-.248-.372zm2.016-.215c.256 0 .256-.083.256-.537 0-.38 0-.471-.256-.471h-2.017a.257.257 0 0 0-.2.057c-.051.058-.051.108-.051.578 0 .265 0 .373.248.373zm-.017 2.419c.264 0 .264-.082.264-.569 0-.3 0-.4-.264-.4h-1.98c-.248 0-.265.1-.265.313 0 .587 0 .653.272.653zm-.6.4c.206 0 1.917.455 1.917 1.182a.391.391 0 0 1-.322.372c-.14 0-.174-.041-.5-.479a3.149 3.149 0 0 0-.916-.926 1.387 1.387 0 0 1-.2-.107c-.016-.019-.008-.042.025-.042z"/><path data-name="パス 52" d="M176.676 90.03c-.187 0-.238-.069-.576-.515a3.089 3.089 0 0 0-.891-.9l-.059-.029c-.107-.051-.158-.076-.176-.116a.112.112 0 0 1-.007-.1.119.119 0 0 1 .114-.071 3.666 3.666 0 0 1 .815.222.454.454 0 0 1-.059-.152c-.015-.063-.045-.074-.137-.074h-2.007c-.036 0-.146 0-.164.051a.5.5 0 0 1-.472.346.288.288 0 0 1-.32-.312c0-.048.044-.6.051-.677.054-.879.057-1.7.057-1.851v-.138a8.132 8.132 0 0 0-.065-1.278 1.5 1.5 0 0 0-.027-.167 1.516 1.516 0 0 1-.024-.161.152.152 0 0 1 .163-.146 1.19 1.19 0 0 1 .431.2l.118.066a.507.507 0 0 0 .178.025h.14c.08 0 .1 0 .164-.2a1.969 1.969 0 0 0 .087-.528c0-.079 0-.085-.1-.085h-.272c-.274 0-.624.008-.793.025-.021 0-.053.005-.085.009s-.084.009-.1.009a.175.175 0 0 1-.146-.085l-.178-.215a.121.121 0 0 1-.038-.086.107.107 0 0 1 .122-.106c.031 0 .117.007.2.014s.14.011.163.011c.391.017.754.033 1.132.033h1.553c.343 0 .347 0 .384-.04a1.541 1.541 0 0 0 .117-.139c.182-.226.271-.325.359-.325.109 0 .758.507.758.684 0 .212-.2.212-.428.212h-1.619c-.127 0-.132 0-.376.355l-.014.021c-.018.026-.061.081-.111.148s-.158.206-.218.29h1.314c.1 0 .106 0 .187-.1.1-.133.17-.206.252-.206s.683.323.683.527c0 .083-.044.13-.15.244l-.016.018c-.04.039-.04.051-.04.111v1.883c0 .114.009.43.017.741s.015.6.015.7a.463.463 0 0 1-.489.435c.5.216.993.543.993.969a.475.475 0 0 1-.41.453zm-1.231-1.476a3.542 3.542 0 0 1 .8.856c.326.432.341.443.432.443a.307.307 0 0 0 .233-.283c.002-.482-.922-.861-1.465-1.017zm-2.533-4.409c0 .025.011.058.017.092a1.385 1.385 0 0 1 .027.186 8.108 8.108 0 0 1 .067 1.293v.136c0 .156 0 .979-.058 1.864-.01.121-.049.624-.05.664 0 .086.023.134.142.134a.318.318 0 0 0 .306-.233c.063-.164.265-.164.331-.164h2.007a.278.278 0 0 1 .31.209c.024.1.027.1.054.1s.34 0 .34-.258c0-.1-.008-.394-.015-.692s-.017-.632-.017-.746v-1.886a.284.284 0 0 1 .092-.237.691.691 0 0 0 .114-.135 1.681 1.681 0 0 0-.5-.343.76.76 0 0 0-.116.133.331.331 0 0 1-.327.168h-1.364c-.15 0-.172-.081-.172-.13s.013-.075.3-.447c.049-.063.089-.116.106-.14l.014-.021c.246-.357.3-.432.522-.432h1.619a.783.783 0 0 0 .249-.019 2.47 2.47 0 0 0-.586-.516c-.036.033-.154.181-.213.254a1.442 1.442 0 0 1-.134.156c-.088.089-.144.089-.505.089h-1.56a25.512 25.512 0 0 1-1.309-.045h-.044l.091.11a.1.1 0 0 0 .018.021c0-.005.033-.009.065-.012s.082-.009.1-.009c.165-.017.523-.026.8-.026h.272c.13 0 .279.03.279.263a2.123 2.123 0 0 1-.1.581c-.08.255-.152.325-.333.325h-.14a.686.686 0 0 1-.245-.038 2.096 2.096 0 0 1-.14-.077 2.921 2.921 0 0 0-.314-.172zm-1.341 5.844c-.106 0-.18-.057-.18-.139s.047-.1.222-.166a5.606 5.606 0 0 0 1.986-1.112c.018-.021.1-.168.115-.192l.024-.028c.092-.076.128-.048.558.281l.065.05c.164.131.207.188.207.276 0 .178-.172.2-.31.208h-.043a4.967 4.967 0 0 0-.461.188l-.2.087a9.862 9.862 0 0 1-1.984.547zm2.27-1.472a1.245 1.245 0 0 1-.117.182 5.34 5.34 0 0 1-1.845 1.07 13.922 13.922 0 0 0 1.61-.49 8.13 8.13 0 0 0 .194-.083 2.187 2.187 0 0 1 .524-.2h.034a.491.491 0 0 0 .151-.027c0-.016-.022-.045-.141-.14l-.062-.048a6.184 6.184 0 0 0-.348-.264zm-4.187 1.092a.127.127 0 0 1-.139-.122c0-.075.115-.2.343-.361a6.225 6.225 0 0 0 1.789-1.994c0-.19.125-.2.164-.2a1.736 1.736 0 0 1 .774.766c0 .13-.071.154-.308.233a1.734 1.734 0 0 1-.146.108c-1.963 1.383-2.354 1.565-2.477 1.565zm2.171-2.493v.016a5.825 5.825 0 0 1-1.86 2.136l-.061.045c.294-.167.9-.557 2.122-1.424.17-.121.172-.121.182-.126a1.608 1.608 0 0 0 .208-.078 2.883 2.883 0 0 0-.591-.569zm-.015-.01zm3.867.975h-1.965c-.361 0-.361-.157-.361-.742 0-.229.027-.4.354-.4h1.975c.353 0 .353.193.353.486-.004.479-.004.655-.356.655zm-1.975-.966c-.17 0-.176.022-.176.224 0 .563 0 .563.183.563h1.967c.175 0 .175 0 .175-.48 0-.307 0-.307-.175-.307zm-3.776.116a.12.12 0 0 1-.122-.122c0-.049.015-.088.325-.4l.022-.022a8.381 8.381 0 0 0 1.183-1.524l.017-.041a.575.575 0 0 1 .123-.219.19.19 0 0 1 .136-.043h.027l.022.015a7.386 7.386 0 0 1 .688.508l.013.021v.025a.356.356 0 0 1 .009.066c0 .154-.077.181-.331.265a7.886 7.886 0 0 0-.671.5c-.148.116-.277.218-.334.259a11.6 11.6 0 0 1-1.107.71zm1.661-2.187a1.623 1.623 0 0 0-.07.151l-.023.054a8.475 8.475 0 0 1-1.211 1.564l-.011.011c.217-.142.48-.32.661-.448.057-.04.182-.14.326-.253a4.768 4.768 0 0 1 .724-.528 1.124 1.124 0 0 0 .211-.081.3.3 0 0 0-.005-.039c-.077-.071-.477-.346-.602-.433zm4.105 1.848h-2.008c-.353 0-.353-.112-.353-.841a.3.3 0 0 1 .345-.353h2.024c.337 0 .337.224.337.461.001.576.001.731-.344.731zm-2.016-1.016c-.167 0-.167.058-.167.175 0 .663 0 .663.175.663h2.008c.167 0 .167 0 .167-.555 0-.267-.009-.283-.159-.283zm2.016-.215h-2.016c-.337 0-.337-.2-.337-.462 0-.5 0-.553.072-.636a.34.34 0 0 1 .265-.088h2.016c.345 0 .345.187.345.56.001.454.001.625-.344.625zm-2.016-1.008c-.064 0-.105 0-.135.032s-.024.105-.024.515c0 .275.005.283.159.283h2.016c.167 0 .167 0 .167-.448 0-.382 0-.382-.167-.382zm-3.842.471a.112.112 0 0 1-.122-.12 2.232 2.232 0 0 1 .422-.493 5.624 5.624 0 0 0 .944-1.423l.009-.046a.6.6 0 0 1 .053-.2.189.189 0 0 1 .14-.064c.028 0 .057 0 .7.359a.189.189 0 0 1 .1.169c0 .125-.093.171-.223.236a5.363 5.363 0 0 0-.577.537c-.1.1-.189.192-.23.227a3.666 3.666 0 0 1-1.215.817zm1.45-2.156c-.008.034-.016.085-.021.111l-.011.06a5.8 5.8 0 0 1-.987 1.5 5.226 5.226 0 0 0-.146.155 5.239 5.239 0 0 0 .8-.618c.042-.036.124-.12.224-.22a4.355 4.355 0 0 1 .622-.57.62.62 0 0 0 .127-.074 8.473 8.473 0 0 0-.607-.346z"/></g></g></g></svg>